G04 #@! TF.GenerationSoftware,KiCad,Pcbnew,5.1.5+dfsg1-2build2*
G04 #@! TF.CreationDate,2022-11-23T16:28:01-06:00*
G04 #@! TF.ProjectId,2068-Z80-TMS9118,32303638-2d5a-4383-902d-544d53393131,1*
G04 #@! TF.SameCoordinates,Original*
G04 #@! TF.FileFunction,Legend,Bot*
G04 #@! TF.FilePolarity,Positive*
%FSLAX46Y46*%
G04 Gerber Fmt 4.6, Leading zero omitted, Abs format (unit mm)*
G04 Created by KiCad (PCBNEW 5.1.5+dfsg1-2build2) date 2022-11-23 16:28:01*
%MOMM*%
%LPD*%
G04 APERTURE LIST*
%ADD10C,0.100000*%
%ADD11C,0.120000*%
%ADD12C,0.150000*%
%ADD13C,1.702000*%
%ADD14O,1.502000X1.502000*%
%ADD15C,1.502000*%
%ADD16R,1.802000X1.802000*%
%ADD17O,1.802000X1.802000*%
%ADD18O,1.702000X1.702000*%
%ADD19R,1.702000X1.702000*%
%ADD20C,4.102000*%
%ADD21C,3.102000*%
%ADD22C,1.602000*%
%ADD23C,4.700000*%
%ADD24R,1.402000X1.402000*%
%ADD25C,1.402000*%
G04 APERTURE END LIST*
D10*
G36*
X179195400Y-70470600D02*
G01*
X177671400Y-70470600D01*
X177671400Y-69454600D01*
X179195400Y-69454600D01*
X179195400Y-70470600D01*
G37*
X179195400Y-70470600D02*
X177671400Y-70470600D01*
X177671400Y-69454600D01*
X179195400Y-69454600D01*
X179195400Y-70470600D01*
G36*
X168465500Y-67183000D02*
G01*
X166941500Y-67183000D01*
X166941500Y-66167000D01*
X168465500Y-66167000D01*
X168465500Y-67183000D01*
G37*
X168465500Y-67183000D02*
X166941500Y-67183000D01*
X166941500Y-66167000D01*
X168465500Y-66167000D01*
X168465500Y-67183000D01*
G36*
X136144000Y-67183000D02*
G01*
X134620000Y-67183000D01*
X134620000Y-66167000D01*
X136144000Y-66167000D01*
X136144000Y-67183000D01*
G37*
X136144000Y-67183000D02*
X134620000Y-67183000D01*
X134620000Y-66167000D01*
X136144000Y-66167000D01*
X136144000Y-67183000D01*
G36*
X87647780Y-61384180D02*
G01*
X86123780Y-61384180D01*
X86123780Y-60368180D01*
X87647780Y-60368180D01*
X87647780Y-61384180D01*
G37*
X87647780Y-61384180D02*
X86123780Y-61384180D01*
X86123780Y-60368180D01*
X87647780Y-60368180D01*
X87647780Y-61384180D01*
D11*
X86854000Y-61582000D02*
X85524000Y-61582000D01*
X85524000Y-61582000D02*
X85524000Y-62912000D01*
X88124000Y-61582000D02*
X88124000Y-64182000D01*
X88124000Y-64182000D02*
X85524000Y-64182000D01*
X85524000Y-64182000D02*
X85524000Y-112502000D01*
X90724000Y-112502000D02*
X85524000Y-112502000D01*
X90724000Y-61582000D02*
X90724000Y-112502000D01*
X90724000Y-61582000D02*
X88124000Y-61582000D01*
D12*
X91110820Y-62422446D02*
X91825106Y-62422446D01*
X91967963Y-62374827D01*
X92063201Y-62279589D01*
X92110820Y-62136732D01*
X92110820Y-62041494D01*
X91206059Y-62851018D02*
X91158440Y-62898637D01*
X91110820Y-62993875D01*
X91110820Y-63231970D01*
X91158440Y-63327208D01*
X91206059Y-63374827D01*
X91301297Y-63422446D01*
X91396535Y-63422446D01*
X91539392Y-63374827D01*
X92110820Y-62803399D01*
X92110820Y-63422446D01*
%LPC*%
D13*
X170300000Y-68950000D03*
X172800000Y-68950000D03*
X155700000Y-68950000D03*
X158200000Y-68950000D03*
D14*
X136920000Y-91800000D03*
D15*
X142000000Y-91800000D03*
D13*
X139300000Y-83800000D03*
X141800000Y-83800000D03*
D16*
X92180000Y-105450000D03*
D17*
X92180000Y-102910000D03*
D18*
X92380000Y-110880000D03*
D19*
X92380000Y-118500000D03*
D20*
X101752400Y-57374400D03*
X106752400Y-61874400D03*
X96752400Y-61874400D03*
D21*
X101752400Y-61874400D03*
D17*
X180694000Y-94981600D03*
X178154000Y-94981600D03*
X180694000Y-92441600D03*
X178154000Y-92441600D03*
X180694000Y-89901600D03*
X178154000Y-89901600D03*
X180694000Y-87361600D03*
X178154000Y-87361600D03*
X180694000Y-84821600D03*
X178154000Y-84821600D03*
X180694000Y-82281600D03*
X178154000Y-82281600D03*
X180694000Y-79741600D03*
X178154000Y-79741600D03*
X180694000Y-77201600D03*
X178154000Y-77201600D03*
X180694000Y-74661600D03*
X178154000Y-74661600D03*
X180694000Y-72121600D03*
D16*
X178154000Y-72121600D03*
D13*
X96202500Y-94829000D03*
D19*
X96202500Y-92329000D03*
D13*
X124530000Y-87490000D03*
X124530000Y-89990000D03*
X132480000Y-90310000D03*
D19*
X132480000Y-87810000D03*
D13*
X127660000Y-87490000D03*
X127660000Y-89990000D03*
D20*
X149663500Y-63604000D03*
X174663500Y-63604000D03*
D13*
X158008500Y-62184000D03*
X160778500Y-62184000D03*
X163548500Y-62184000D03*
X166318500Y-62184000D03*
X156623500Y-65024000D03*
X159393500Y-65024000D03*
X162163500Y-65024000D03*
X164933500Y-65024000D03*
D19*
X167703500Y-65024000D03*
D20*
X117342000Y-63604000D03*
X142342000Y-63604000D03*
D13*
X125687000Y-62184000D03*
X128457000Y-62184000D03*
X131227000Y-62184000D03*
X133997000Y-62184000D03*
X124302000Y-65024000D03*
X127072000Y-65024000D03*
X129842000Y-65024000D03*
X132612000Y-65024000D03*
D19*
X135382000Y-65024000D03*
D15*
X136900000Y-86500000D03*
D14*
X141980000Y-86500000D03*
D18*
X172312000Y-72147000D03*
X164692000Y-95007000D03*
X172312000Y-74687000D03*
X164692000Y-92467000D03*
X172312000Y-77227000D03*
X164692000Y-89927000D03*
X172312000Y-79767000D03*
X164692000Y-87387000D03*
X172312000Y-82307000D03*
X164692000Y-84847000D03*
X172312000Y-84847000D03*
X164692000Y-82307000D03*
X172312000Y-87387000D03*
X164692000Y-79767000D03*
X172312000Y-89927000D03*
X164692000Y-77227000D03*
X172312000Y-92467000D03*
X164692000Y-74687000D03*
X172312000Y-95007000D03*
D19*
X164692000Y-72147000D03*
D18*
X161390000Y-92530500D03*
X161390000Y-89990500D03*
X161390000Y-87450500D03*
X161390000Y-84910500D03*
X161390000Y-82370500D03*
X161390000Y-79830500D03*
X161390000Y-77290500D03*
X161390000Y-74750500D03*
D19*
X161390000Y-72210500D03*
D18*
X158088000Y-72147000D03*
X150468000Y-95007000D03*
X158088000Y-74687000D03*
X150468000Y-92467000D03*
X158088000Y-77227000D03*
X150468000Y-89927000D03*
X158088000Y-79767000D03*
X150468000Y-87387000D03*
X158088000Y-82307000D03*
X150468000Y-84847000D03*
X158088000Y-84847000D03*
X150468000Y-82307000D03*
X158088000Y-87387000D03*
X150468000Y-79767000D03*
X158088000Y-89927000D03*
X150468000Y-77227000D03*
X158088000Y-92467000D03*
X150468000Y-74687000D03*
X158088000Y-95007000D03*
D19*
X150468000Y-72147000D03*
D18*
X147000000Y-92520000D03*
X147000000Y-89980000D03*
X147000000Y-87440000D03*
X147000000Y-84900000D03*
X147000000Y-82360000D03*
X147000000Y-79820000D03*
X147000000Y-77280000D03*
X147000000Y-74740000D03*
D19*
X147000000Y-72200000D03*
D22*
X128270000Y-72062000D03*
X128270000Y-76962000D03*
D18*
X102806500Y-69850000D03*
X95186500Y-87630000D03*
X102806500Y-72390000D03*
X95186500Y-85090000D03*
X102806500Y-74930000D03*
X95186500Y-82550000D03*
X102806500Y-77470000D03*
X95186500Y-80010000D03*
X102806500Y-80010000D03*
X95186500Y-77470000D03*
X102806500Y-82550000D03*
X95186500Y-74930000D03*
X102806500Y-85090000D03*
X95186500Y-72390000D03*
X102806500Y-87630000D03*
D19*
X95186500Y-69850000D03*
D18*
X102806500Y-100266500D03*
X95186500Y-118046500D03*
X102806500Y-102806500D03*
X95186500Y-115506500D03*
X102806500Y-105346500D03*
X95186500Y-112966500D03*
X102806500Y-107886500D03*
X95186500Y-110426500D03*
X102806500Y-110426500D03*
X95186500Y-107886500D03*
X102806500Y-112966500D03*
X95186500Y-105346500D03*
X102806500Y-115506500D03*
X95186500Y-102806500D03*
X102806500Y-118046500D03*
D19*
X95186500Y-100266500D03*
D18*
X121412000Y-69850000D03*
X106172000Y-118110000D03*
X121412000Y-72390000D03*
X106172000Y-115570000D03*
X121412000Y-74930000D03*
X106172000Y-113030000D03*
X121412000Y-77470000D03*
X106172000Y-110490000D03*
X121412000Y-80010000D03*
X106172000Y-107950000D03*
X121412000Y-82550000D03*
X106172000Y-105410000D03*
X121412000Y-85090000D03*
X106172000Y-102870000D03*
X121412000Y-87630000D03*
X106172000Y-100330000D03*
X121412000Y-90170000D03*
X106172000Y-97790000D03*
X121412000Y-92710000D03*
X106172000Y-95250000D03*
X121412000Y-95250000D03*
X106172000Y-92710000D03*
X121412000Y-97790000D03*
X106172000Y-90170000D03*
X121412000Y-100330000D03*
X106172000Y-87630000D03*
X121412000Y-102870000D03*
X106172000Y-85090000D03*
X121412000Y-105410000D03*
X106172000Y-82550000D03*
X121412000Y-107950000D03*
X106172000Y-80010000D03*
X121412000Y-110490000D03*
X106172000Y-77470000D03*
X121412000Y-113030000D03*
X106172000Y-74930000D03*
X121412000Y-115570000D03*
X106172000Y-72390000D03*
X121412000Y-118110000D03*
D19*
X106172000Y-69850000D03*
D18*
X144272000Y-97790000D03*
X136652000Y-118110000D03*
X144272000Y-100330000D03*
X136652000Y-115570000D03*
X144272000Y-102870000D03*
X136652000Y-113030000D03*
X144272000Y-105410000D03*
X136652000Y-110490000D03*
X144272000Y-107950000D03*
X136652000Y-107950000D03*
X144272000Y-110490000D03*
X136652000Y-105410000D03*
X144272000Y-113030000D03*
X136652000Y-102870000D03*
X144272000Y-115570000D03*
X136652000Y-100330000D03*
X144272000Y-118110000D03*
D19*
X136652000Y-97790000D03*
D18*
X133350000Y-97790000D03*
X125730000Y-118110000D03*
X133350000Y-100330000D03*
X125730000Y-115570000D03*
X133350000Y-102870000D03*
X125730000Y-113030000D03*
X133350000Y-105410000D03*
X125730000Y-110490000D03*
X133350000Y-107950000D03*
X125730000Y-107950000D03*
X133350000Y-110490000D03*
X125730000Y-105410000D03*
X133350000Y-113030000D03*
X125730000Y-102870000D03*
X133350000Y-115570000D03*
X125730000Y-100330000D03*
X133350000Y-118110000D03*
D19*
X125730000Y-97790000D03*
D13*
X125222000Y-75732000D03*
X125222000Y-78232000D03*
X125222000Y-70652000D03*
X125222000Y-73152000D03*
D17*
X89394000Y-111172000D03*
X86854000Y-111172000D03*
X89394000Y-108632000D03*
X86854000Y-108632000D03*
X89394000Y-106092000D03*
X86854000Y-106092000D03*
X89394000Y-103552000D03*
X86854000Y-103552000D03*
X89394000Y-101012000D03*
X86854000Y-101012000D03*
X89394000Y-98472000D03*
X86854000Y-98472000D03*
X89394000Y-95932000D03*
X86854000Y-95932000D03*
X89394000Y-93392000D03*
X86854000Y-93392000D03*
X89394000Y-90852000D03*
X86854000Y-90852000D03*
X89394000Y-88312000D03*
X86854000Y-88312000D03*
X89394000Y-85772000D03*
X86854000Y-85772000D03*
X89394000Y-83232000D03*
X86854000Y-83232000D03*
X89394000Y-80692000D03*
X86854000Y-80692000D03*
X89394000Y-78152000D03*
X86854000Y-78152000D03*
X89394000Y-75612000D03*
X86854000Y-75612000D03*
X89394000Y-73072000D03*
X86854000Y-73072000D03*
X89394000Y-70532000D03*
X86854000Y-70532000D03*
X89394000Y-67992000D03*
X86854000Y-67992000D03*
X89394000Y-65452000D03*
X86854000Y-65452000D03*
X89394000Y-62912000D03*
D16*
X86854000Y-62912000D03*
D23*
X163000000Y-107190000D03*
D14*
X141986000Y-88800000D03*
D15*
X136906000Y-88800000D03*
D24*
X127508000Y-83375500D03*
D25*
X124968000Y-83375500D03*
X126228000Y-84645500D03*
D13*
X102743000Y-94972500D03*
X102743000Y-97472500D03*
D23*
X182000000Y-117000000D03*
X88000000Y-117000000D03*
X182000000Y-58000000D03*
X88000000Y-58000000D03*
D13*
X141721200Y-94488000D03*
X144221200Y-94488000D03*
X100420800Y-66649600D03*
X102920800Y-66649600D03*
X133437000Y-94488000D03*
X130937000Y-94488000D03*
M02*
