M48
; DRILL file {KiCad 5.1.5+dfsg1-2build2} date Sat Jun  3 14:15:59 2023
; FORMAT={-:-/ absolute / metric / decimal}
; #@! TF.CreationDate,2023-06-03T14:15:59-05:00
; #@! TF.GenerationSoftware,Kicad,Pcbnew,5.1.5+dfsg1-2build2
; #@! TF.FileFunction,Plated,1,4,PTH
FMAT,2
METRIC
T1C0.400
T2C0.508
T3C0.700
T4C0.750
T5C0.800
T6C1.000
T7C1.700
T8C2.600
T9C3.200
%
G90
G05
T1
X86.0Y-114.0
X88.25Y-113.0
X90.0Y-114.0
X90.7Y-97.26
X91.09Y-109.21
X91.3Y-90.85
X91.44Y-72.39
X91.44Y-85.75
X91.51Y-96.51
X91.72Y-71.28
X92.0Y-116.0
X92.24Y-90.86
X92.335Y-94.59
X92.49Y-85.75
X92.58Y-93.59
X92.87Y-113.79
X92.964Y-91.999
X93.13Y-90.88
X93.29Y-108.41
X93.92Y-114.25
X94.1Y-90.89
X96.5Y-111.5
X96.755Y-74.93
X96.77Y-85.38
X96.774Y-84.125
X97.079Y-99.263
X97.23Y-89.83
X97.282Y-88.798
X97.384Y-69.85
X97.45Y-117.98
X97.64Y-112.03
X97.75Y-111.0
X97.77Y-103.85
X97.961Y-102.819
X98.012Y-76.098
X98.17Y-74.86
X98.23Y-70.65
X98.4Y-80.01
X98.43Y-77.47
X98.501Y-118.008
X98.603Y-68.631
X99.13Y-105.359
X99.2Y-106.44
X99.47Y-116.1
X99.651Y-107.899
X99.72Y-73.355
X99.79Y-68.77
X99.85Y-118.74
X99.9Y-72.24
X100.279Y-116.942
X100.482Y-79.35
X100.49Y-77.55
X101.07Y-118.69
X101.09Y-106.74
X101.11Y-105.68
X101.17Y-80.65
X104.648Y-88.849
X104.767Y-119.083
X107.188Y-116.891
X107.955Y-106.393
X108.61Y-111.42
X108.661Y-108.763
X108.712Y-90.17
X109.0Y-118.0
X109.576Y-87.63
X109.576Y-111.963
X109.74Y-114.55
X110.23Y-107.97
X110.249Y-106.921
X110.287Y-93.269
X110.61Y-70.73
X110.744Y-80.112
X110.858Y-114.059
X111.26Y-57.11
X111.404Y-69.85
X111.554Y-108.528
X112.0Y-118.0
X112.166Y-85.192
X112.218Y-114.687
X112.27Y-76.05
X112.36Y-80.02
X113.03Y-57.785
X113.081Y-77.47
X113.081Y-111.201
X113.36Y-76.1
X113.47Y-58.64
X113.48Y-73.2
X114.097Y-74.93
X114.097Y-117.094
X114.31Y-59.48
X114.757Y-95.301
X114.757Y-106.121
X114.8Y-94.19
X114.95Y-76.91
X115.28Y-81.29
X115.46Y-73.42
X115.519Y-82.55
X115.524Y-116.199
X116.15Y-71.05
X116.31Y-107.64
X116.4Y-105.33
X116.434Y-72.39
X116.446Y-103.899
X117.14Y-117.83
X117.196Y-115.011
X117.23Y-82.49
X117.246Y-83.617
X118.313Y-78.638
X118.313Y-118.11
X118.364Y-112.674
X118.516Y-85.192
X118.516Y-98.806
X118.9Y-83.93
X118.942Y-115.64
X118.993Y-110.49
X119.075Y-113.436
X119.215Y-86.601
X119.5Y-56.5
X119.844Y-95.322
X119.844Y-104.639
X119.94Y-75.97
X119.94Y-81.2
X119.95Y-71.05
X119.97Y-73.59
X119.98Y-78.76
X119.99Y-88.53
X119.99Y-93.9
X121.95Y-67.71
X122.02Y-65.76
X123.47Y-115.7
X123.5Y-112.91
X123.55Y-102.96
X123.6Y-110.61
X123.66Y-105.36
X123.71Y-118.35
X123.77Y-108.09
X124.0Y-56.5
X128.0Y-70.0
X128.0Y-79.0
X128.86Y-100.05
X129.24Y-115.49
X129.438Y-104.191
X129.47Y-118.16
X129.58Y-113.02
X129.75Y-108.22
X129.85Y-110.51
X130.65Y-103.64
X131.4Y-79.44
X131.52Y-71.74
X133.0Y-56.5
X135.5Y-81.74
X135.98Y-68.98
X138.049Y-76.708
X138.25Y-79.48
X138.77Y-67.36
X139.53Y-100.32
X140.12Y-110.54
X140.15Y-115.89
X140.23Y-118.16
X140.28Y-108.15
X140.46Y-113.26
X140.716Y-100.33
X141.5Y-56.5
X141.605Y-80.391
X141.99Y-70.57
X142.13Y-75.12
X146.507Y-118.77
X146.6Y-109.5
X146.66Y-117.551
X146.7Y-116.15
X146.761Y-114.91
X146.863Y-111.15
X146.863Y-113.589
X146.914Y-112.42
X147.69Y-110.29
X147.78Y-116.86
X147.9Y-114.22
X147.92Y-111.82
X149.0Y-56.5
X151.04Y-97.52
X151.09Y-98.95
X151.13Y-100.83
X151.61Y-59.42
X151.721Y-117.583
X151.821Y-92.442
X152.33Y-85.07
X152.37Y-77.94
X152.37Y-81.51
X152.4Y-74.69
X152.43Y-58.64
X152.449Y-116.18
X152.449Y-87.311
X152.449Y-99.554
X152.89Y-117.51
X152.978Y-112.471
X153.069Y-82.42
X153.091Y-97.59
X153.364Y-77.202
X153.719Y-98.436
X153.891Y-111.15
X153.97Y-112.46
X154.114Y-109.314
X154.519Y-100.227
X154.532Y-77.252
X154.635Y-113.589
X154.761Y-82.282
X154.842Y-101.174
X155.35Y-116.89
X155.448Y-114.808
X155.548Y-87.412
X155.548Y-101.941
X155.66Y-77.89
X155.83Y-85.06
X155.95Y-81.57
X156.208Y-92.442
X156.21Y-118.77
X156.28Y-90.0
X156.94Y-102.88
X157.05Y-97.88
X157.28Y-118.32
X163.206Y-93.496
X164.0Y-118.0
X164.86Y-69.84
X164.89Y-66.78
X165.0Y-56.5
X165.47Y-97.86
X166.47Y-82.332
X166.47Y-97.217
X166.878Y-74.676
X167.005Y-67.818
X167.181Y-98.03
X167.232Y-77.303
X167.486Y-99.046
X167.943Y-87.311
X167.95Y-82.16
X167.97Y-84.79
X168.0Y-58.1
X168.0Y-79.46
X168.0Y-118.0
X168.013Y-78.23
X168.197Y-100.112
X168.38Y-102.82
X168.807Y-77.252
X169.067Y-100.93
X169.15Y-57.4
X169.16Y-74.63
X169.416Y-82.282
X169.53Y-79.11
X169.874Y-101.941
X169.9Y-85.05
X170.026Y-87.311
X170.12Y-103.27
X170.48Y-72.15
X170.48Y-74.69
X170.7Y-98.11
X170.88Y-101.04
X171.5Y-56.5
X173.0Y-118.0
X176.276Y-115.316
X176.403Y-110.49
X176.657Y-104.267
X177.0Y-56.5
X177.0Y-118.0
X183.0Y-100.33
X183.0Y-103.0
X183.0Y-107.0
X183.0Y-111.0
T2
X91.75Y-87.25
X91.75Y-88.25
X92.75Y-87.25
X92.75Y-88.25
X121.11Y-66.73
T3
X136.9Y-86.5
X141.98Y-86.5
X136.906Y-88.8
X141.986Y-88.8
X136.92Y-91.8
X142.0Y-91.8
T4
X124.968Y-83.376
X126.228Y-84.645
X127.508Y-83.376
T5
X130.937Y-94.488
X133.437Y-94.488
X139.3Y-83.8
X141.8Y-83.8
X106.172Y-69.85
X106.172Y-72.39
X106.172Y-74.93
X106.172Y-77.47
X106.172Y-80.01
X106.172Y-82.55
X106.172Y-85.09
X106.172Y-87.63
X106.172Y-90.17
X106.172Y-92.71
X106.172Y-95.25
X106.172Y-97.79
X106.172Y-100.33
X106.172Y-102.87
X106.172Y-105.41
X106.172Y-107.95
X106.172Y-110.49
X106.172Y-113.03
X106.172Y-115.57
X106.172Y-118.11
X121.412Y-69.85
X121.412Y-72.39
X121.412Y-74.93
X121.412Y-77.47
X121.412Y-80.01
X121.412Y-82.55
X121.412Y-85.09
X121.412Y-87.63
X121.412Y-90.17
X121.412Y-92.71
X121.412Y-95.25
X121.412Y-97.79
X121.412Y-100.33
X121.412Y-102.87
X121.412Y-105.41
X121.412Y-107.95
X121.412Y-110.49
X121.412Y-113.03
X121.412Y-115.57
X121.412Y-118.11
X127.66Y-87.49
X127.66Y-89.99
X92.583Y-56.642
X92.583Y-66.802
X170.3Y-68.95
X172.8Y-68.95
X155.7Y-68.95
X158.2Y-68.95
X128.27Y-72.062
X128.27Y-76.962
X125.73Y-97.79
X125.73Y-100.33
X125.73Y-102.87
X125.73Y-105.41
X125.73Y-107.95
X125.73Y-110.49
X125.73Y-113.03
X125.73Y-115.57
X125.73Y-118.11
X133.35Y-97.79
X133.35Y-100.33
X133.35Y-102.87
X133.35Y-105.41
X133.35Y-107.95
X133.35Y-110.49
X133.35Y-113.03
X133.35Y-115.57
X133.35Y-118.11
X95.186Y-69.85
X95.186Y-72.39
X95.186Y-74.93
X95.186Y-77.47
X95.186Y-80.01
X95.186Y-82.55
X95.186Y-85.09
X95.186Y-87.63
X102.806Y-69.85
X102.806Y-72.39
X102.806Y-74.93
X102.806Y-77.47
X102.806Y-80.01
X102.806Y-82.55
X102.806Y-85.09
X102.806Y-87.63
X95.186Y-100.266
X95.186Y-102.806
X95.186Y-105.346
X95.186Y-107.886
X95.186Y-110.426
X95.186Y-112.966
X95.186Y-115.506
X95.186Y-118.046
X102.806Y-100.266
X102.806Y-102.806
X102.806Y-105.346
X102.806Y-107.886
X102.806Y-110.426
X102.806Y-112.966
X102.806Y-115.506
X102.806Y-118.046
X132.48Y-87.81
X132.48Y-90.31
X147.0Y-72.2
X147.0Y-74.74
X147.0Y-77.28
X147.0Y-79.82
X147.0Y-82.36
X147.0Y-84.9
X147.0Y-87.44
X147.0Y-89.98
X147.0Y-92.52
X150.468Y-72.147
X150.468Y-74.687
X150.468Y-77.227
X150.468Y-79.767
X150.468Y-82.307
X150.468Y-84.847
X150.468Y-87.387
X150.468Y-89.927
X150.468Y-92.467
X150.468Y-95.007
X158.088Y-72.147
X158.088Y-74.687
X158.088Y-77.227
X158.088Y-79.767
X158.088Y-82.307
X158.088Y-84.847
X158.088Y-87.387
X158.088Y-89.927
X158.088Y-92.467
X158.088Y-95.007
X124.53Y-87.49
X124.53Y-89.99
X161.39Y-72.21
X161.39Y-74.751
X161.39Y-77.29
X161.39Y-79.831
X161.39Y-82.37
X161.39Y-84.91
X161.39Y-87.45
X161.39Y-89.99
X161.39Y-92.53
X96.203Y-92.329
X96.203Y-94.829
X125.222Y-70.652
X125.222Y-73.152
X141.721Y-94.488
X144.221Y-94.488
X100.421Y-66.65
X102.921Y-66.65
X125.222Y-75.732
X125.222Y-78.232
X92.38Y-110.88
X92.38Y-118.5
X136.652Y-97.79
X136.652Y-100.33
X136.652Y-102.87
X136.652Y-105.41
X136.652Y-107.95
X136.652Y-110.49
X136.652Y-113.03
X136.652Y-115.57
X136.652Y-118.11
X144.272Y-97.79
X144.272Y-100.33
X144.272Y-102.87
X144.272Y-105.41
X144.272Y-107.95
X144.272Y-110.49
X144.272Y-113.03
X144.272Y-115.57
X144.272Y-118.11
X164.692Y-72.147
X164.692Y-74.687
X164.692Y-77.227
X164.692Y-79.767
X164.692Y-82.307
X164.692Y-84.847
X164.692Y-87.387
X164.692Y-89.927
X164.692Y-92.467
X164.692Y-95.007
X172.312Y-72.147
X172.312Y-74.687
X172.312Y-77.227
X172.312Y-79.767
X172.312Y-82.307
X172.312Y-84.847
X172.312Y-87.387
X172.312Y-89.927
X172.312Y-92.467
X172.312Y-95.007
X102.743Y-94.972
X102.743Y-97.472
T6
X110.744Y-60.833
X110.744Y-63.373
X156.624Y-65.024
X158.008Y-62.184
X159.393Y-65.024
X160.778Y-62.184
X162.163Y-65.024
X163.548Y-62.184
X164.933Y-65.024
X166.319Y-62.184
X167.703Y-65.024
X180.213Y-62.865
X180.213Y-65.405
X86.854Y-62.912
X86.854Y-65.452
X86.854Y-67.992
X86.854Y-70.532
X86.854Y-73.072
X86.854Y-75.612
X86.854Y-78.152
X86.854Y-80.692
X86.854Y-83.232
X86.854Y-85.772
X86.854Y-88.312
X86.854Y-90.852
X86.854Y-93.392
X86.854Y-95.932
X86.854Y-98.472
X86.854Y-101.012
X86.854Y-103.552
X86.854Y-106.092
X86.854Y-108.632
X86.854Y-111.172
X89.394Y-62.912
X89.394Y-65.452
X89.394Y-67.992
X89.394Y-70.532
X89.394Y-73.072
X89.394Y-75.612
X89.394Y-78.152
X89.394Y-80.692
X89.394Y-83.232
X89.394Y-85.772
X89.394Y-88.312
X89.394Y-90.852
X89.394Y-93.392
X89.394Y-95.932
X89.394Y-98.472
X89.394Y-101.012
X89.394Y-103.552
X89.394Y-106.092
X89.394Y-108.632
X89.394Y-111.172
X178.154Y-72.122
X178.154Y-74.662
X178.154Y-77.202
X178.154Y-79.742
X178.154Y-82.282
X178.154Y-84.822
X178.154Y-87.362
X178.154Y-89.902
X178.154Y-92.442
X178.154Y-94.982
X180.694Y-72.122
X180.694Y-74.662
X180.694Y-77.202
X180.694Y-79.742
X180.694Y-82.282
X180.694Y-84.822
X180.694Y-87.362
X180.694Y-89.902
X180.694Y-92.442
X180.694Y-94.982
X124.302Y-65.024
X125.687Y-62.184
X127.072Y-65.024
X128.457Y-62.184
X129.842Y-65.024
X131.227Y-62.184
X132.612Y-65.024
X133.997Y-62.184
X135.382Y-65.024
X178.181Y-101.092
X180.721Y-101.092
X92.075Y-101.727
X92.075Y-104.267
X92.075Y-106.807
T7
X101.752Y-61.874
T8
X96.752Y-61.874
X101.752Y-57.374
X106.752Y-61.874
T9
X149.663Y-63.604
X174.663Y-63.604
X117.342Y-63.604
X142.342Y-63.604
T0
M30
