%FSLAX45Y45*%
G04 Gerber Fmt 4.5, Leading zero omitted, Abs format (unit mm)*
G04 Created by KiCad (PCBNEW 5.1.5+dfsg1-2build2) date 2022-11-23 16:28:10*
%MOMM*%
%LPD*%
G04 APERTURE LIST*
%TA.AperFunction,Profile*%
%ADD10C,0.500000*%
%TD*%
%ADD11C,0.200000*%
%ADD12C,0.300000*%
G04 APERTURE END LIST*
D10*
X8800000Y-12000000D02*
G75*
G02X8500000Y-11700000I0J300000D01*
G01*
X18500000Y-11700000D02*
G75*
G02X18200000Y-12000000I-300000J0D01*
G01*
X18200000Y-5500000D02*
G75*
G02X18500000Y-5800000I0J-300000D01*
G01*
X8500000Y-5800000D02*
G75*
G02X8800000Y-5500000I300000J0D01*
G01*
X8500000Y-11700000D02*
X8500000Y-5800000D01*
X18200000Y-12000000D02*
X8800000Y-12000000D01*
X18500000Y-5800000D02*
X18500000Y-11700000D01*
X8800000Y-5500000D02*
X18200000Y-5500000D01*
D11*
X8580000Y-11380000D02*
X8620000Y-11420000D01*
X8620000Y-11380000D02*
X8580000Y-11420000D01*
X8805000Y-11280000D02*
X8845000Y-11320000D01*
X8845000Y-11280000D02*
X8805000Y-11320000D01*
X8980000Y-11380000D02*
X9020000Y-11420000D01*
X9020000Y-11380000D02*
X8980000Y-11420000D01*
X9050000Y-9706000D02*
X9090000Y-9746000D01*
X9090000Y-9706000D02*
X9050000Y-9746000D01*
X9089000Y-10901000D02*
X9129000Y-10941000D01*
X9129000Y-10901000D02*
X9089000Y-10941000D01*
X9110000Y-9065000D02*
X9150000Y-9105000D01*
X9150000Y-9065000D02*
X9110000Y-9105000D01*
X9124000Y-7219000D02*
X9164000Y-7259000D01*
X9164000Y-7219000D02*
X9124000Y-7259000D01*
X9124000Y-8555040D02*
X9164000Y-8595040D01*
X9164000Y-8555040D02*
X9124000Y-8595040D01*
X9127000Y-10792000D02*
X9167000Y-10832000D01*
X9167000Y-10792000D02*
X9127000Y-10832000D01*
X9131000Y-9631000D02*
X9171000Y-9671000D01*
X9171000Y-9631000D02*
X9131000Y-9671000D01*
X9152000Y-7108000D02*
X9192000Y-7148000D01*
X9192000Y-7108000D02*
X9152000Y-7148000D01*
X9180000Y-11580000D02*
X9220000Y-11620000D01*
X9220000Y-11580000D02*
X9180000Y-11620000D01*
X9204000Y-9066000D02*
X9244000Y-9106000D01*
X9244000Y-9066000D02*
X9204000Y-9106000D01*
X9213539Y-9438960D02*
X9253539Y-9478960D01*
X9253539Y-9438960D02*
X9213539Y-9478960D01*
X9229000Y-8555000D02*
X9269000Y-8595000D01*
X9269000Y-8555000D02*
X9229000Y-8595000D01*
X9238000Y-9339000D02*
X9278000Y-9379000D01*
X9278000Y-9339000D02*
X9238000Y-9379000D01*
X9267000Y-11359000D02*
X9307000Y-11399000D01*
X9307000Y-11359000D02*
X9267000Y-11399000D01*
X9276400Y-9179880D02*
X9316400Y-9219880D01*
X9316400Y-9179880D02*
X9276400Y-9219880D01*
X9293000Y-9068000D02*
X9333000Y-9108000D01*
X9333000Y-9068000D02*
X9293000Y-9108000D01*
X9309000Y-10821000D02*
X9349000Y-10861000D01*
X9349000Y-10821000D02*
X9309000Y-10861000D01*
X9372000Y-11405000D02*
X9412000Y-11445000D01*
X9412000Y-11405000D02*
X9372000Y-11445000D01*
X9390000Y-9069000D02*
X9430000Y-9109000D01*
X9430000Y-9069000D02*
X9390000Y-9109000D01*
X9630000Y-11130000D02*
X9670000Y-11170000D01*
X9670000Y-11130000D02*
X9630000Y-11170000D01*
X9655499Y-7473000D02*
X9695499Y-7513000D01*
X9695499Y-7473000D02*
X9655499Y-7513000D01*
X9657000Y-8518000D02*
X9697000Y-8558000D01*
X9697000Y-8518000D02*
X9657000Y-8558000D01*
X9657400Y-8392480D02*
X9697400Y-8432480D01*
X9697400Y-8392480D02*
X9657400Y-8432480D01*
X9687880Y-9906320D02*
X9727880Y-9946320D01*
X9727880Y-9906320D02*
X9687880Y-9946320D01*
X9703000Y-8963000D02*
X9743000Y-9003000D01*
X9743000Y-8963000D02*
X9703000Y-9003000D01*
X9708200Y-8859840D02*
X9748200Y-8899840D01*
X9748200Y-8859840D02*
X9708200Y-8899840D01*
X9718360Y-6965000D02*
X9758360Y-7005000D01*
X9758360Y-6965000D02*
X9718360Y-7005000D01*
X9725000Y-11778000D02*
X9765000Y-11818000D01*
X9765000Y-11778000D02*
X9725000Y-11818000D01*
X9744000Y-11183000D02*
X9784000Y-11223000D01*
X9784000Y-11183000D02*
X9744000Y-11223000D01*
X9754999Y-11080000D02*
X9794999Y-11120000D01*
X9794999Y-11080000D02*
X9754999Y-11120000D01*
X9757000Y-10365000D02*
X9797000Y-10405000D01*
X9797000Y-10365000D02*
X9757000Y-10405000D01*
X9776141Y-10261920D02*
X9816141Y-10301920D01*
X9816141Y-10261920D02*
X9776141Y-10301920D01*
X9781221Y-7589840D02*
X9821221Y-7629840D01*
X9821221Y-7589840D02*
X9781221Y-7629840D01*
X9797000Y-7466000D02*
X9837000Y-7506000D01*
X9837000Y-7466000D02*
X9797000Y-7506000D01*
X9803000Y-7045000D02*
X9843000Y-7085000D01*
X9843000Y-7045000D02*
X9803000Y-7085000D01*
X9819960Y-7981000D02*
X9859960Y-8021000D01*
X9859960Y-7981000D02*
X9819960Y-8021000D01*
X9823000Y-7727000D02*
X9863000Y-7767000D01*
X9863000Y-7727000D02*
X9823000Y-7767000D01*
X9830120Y-11780840D02*
X9870120Y-11820840D01*
X9870120Y-11780840D02*
X9830120Y-11820840D01*
X9840280Y-6843080D02*
X9880280Y-6883080D01*
X9880280Y-6843080D02*
X9840280Y-6883080D01*
X9892981Y-10515920D02*
X9932981Y-10555920D01*
X9932981Y-10515920D02*
X9892981Y-10555920D01*
X9900000Y-10624000D02*
X9940000Y-10664000D01*
X9940000Y-10624000D02*
X9900000Y-10664000D01*
X9927000Y-11590000D02*
X9967000Y-11630000D01*
X9967000Y-11590000D02*
X9927000Y-11630000D01*
X9945059Y-10769920D02*
X9985059Y-10809920D01*
X9985059Y-10769920D02*
X9945059Y-10809920D01*
X9952040Y-7315520D02*
X9992040Y-7355520D01*
X9992040Y-7315520D02*
X9952040Y-7355520D01*
X9959000Y-6857000D02*
X9999000Y-6897000D01*
X9999000Y-6857000D02*
X9959000Y-6897000D01*
X9965000Y-11854000D02*
X10005000Y-11894000D01*
X10005000Y-11854000D02*
X9965000Y-11894000D01*
X9970000Y-7204000D02*
X10010000Y-7244000D01*
X10010000Y-7204000D02*
X9970000Y-7244000D01*
X10007920Y-11674160D02*
X10047920Y-11714160D01*
X10047920Y-11674160D02*
X10007920Y-11714160D01*
X10028240Y-7914960D02*
X10068240Y-7954960D01*
X10068240Y-7914960D02*
X10028240Y-7954960D01*
X10029000Y-7735000D02*
X10069000Y-7775000D01*
X10069000Y-7735000D02*
X10029000Y-7775000D01*
X10087000Y-11849000D02*
X10127000Y-11889000D01*
X10127000Y-11849000D02*
X10087000Y-11889000D01*
X10089000Y-10654000D02*
X10129000Y-10694000D01*
X10129000Y-10654000D02*
X10089000Y-10694000D01*
X10091000Y-10548000D02*
X10131000Y-10588000D01*
X10131000Y-10548000D02*
X10091000Y-10588000D01*
X10097000Y-8045000D02*
X10137000Y-8085000D01*
X10137000Y-8045000D02*
X10097000Y-8085000D01*
X10444800Y-8864920D02*
X10484800Y-8904920D01*
X10484800Y-8864920D02*
X10444800Y-8904920D01*
X10698800Y-11669080D02*
X10738800Y-11709080D01*
X10738800Y-11669080D02*
X10698800Y-11709080D01*
X10771000Y-10766000D02*
X10811000Y-10806000D01*
X10811000Y-10766000D02*
X10771000Y-10806000D01*
X10841000Y-11122000D02*
X10881000Y-11162000D01*
X10881000Y-11122000D02*
X10841000Y-11162000D01*
X10846120Y-10856280D02*
X10886120Y-10896280D01*
X10886120Y-10856280D02*
X10846120Y-10896280D01*
X10851200Y-8997000D02*
X10891200Y-9037000D01*
X10891200Y-8997000D02*
X10851200Y-9037000D01*
X10880000Y-11780000D02*
X10920000Y-11820000D01*
X10920000Y-11780000D02*
X10880000Y-11820000D01*
X10937560Y-8743000D02*
X10977560Y-8783000D01*
X10977560Y-8743000D02*
X10937560Y-8783000D01*
X10937560Y-11176320D02*
X10977560Y-11216320D01*
X10977560Y-11176320D02*
X10937560Y-11216320D01*
X10954000Y-11435000D02*
X10994000Y-11475000D01*
X10994000Y-11435000D02*
X10954000Y-11475000D01*
X11003000Y-10777000D02*
X11043000Y-10817000D01*
X11043000Y-10777000D02*
X11003000Y-10817000D01*
X11004860Y-10672140D02*
X11044860Y-10712140D01*
X11044860Y-10672140D02*
X11004860Y-10712140D01*
X11008680Y-9306880D02*
X11048680Y-9346880D01*
X11048680Y-9306880D02*
X11008680Y-9346880D01*
X11041000Y-7053000D02*
X11081000Y-7093000D01*
X11081000Y-7053000D02*
X11041000Y-7093000D01*
X11054400Y-7991160D02*
X11094400Y-8031160D01*
X11094400Y-7991160D02*
X11054400Y-8031160D01*
X11065820Y-11385860D02*
X11105820Y-11425860D01*
X11105820Y-11385860D02*
X11065820Y-11425860D01*
X11106000Y-5691000D02*
X11146000Y-5731000D01*
X11146000Y-5691000D02*
X11106000Y-5731000D01*
X11116000Y-5874000D02*
X11156000Y-5914000D01*
X11156000Y-5874000D02*
X11116000Y-5914000D01*
X11120440Y-6965000D02*
X11160440Y-7005000D01*
X11160440Y-6965000D02*
X11120440Y-7005000D01*
X11135377Y-10832798D02*
X11175377Y-10872798D01*
X11175377Y-10832798D02*
X11135377Y-10872798D01*
X11180000Y-11780000D02*
X11220000Y-11820000D01*
X11220000Y-11780000D02*
X11180000Y-11820000D01*
X11196640Y-8499160D02*
X11236640Y-8539160D01*
X11236640Y-8499160D02*
X11196640Y-8539160D01*
X11201805Y-11448721D02*
X11241805Y-11488721D01*
X11241805Y-11448721D02*
X11201805Y-11488721D01*
X11207000Y-7585000D02*
X11247000Y-7625000D01*
X11247000Y-7585000D02*
X11207000Y-7625000D01*
X11208000Y-5720000D02*
X11248000Y-5760000D01*
X11248000Y-5720000D02*
X11208000Y-5760000D01*
X11216000Y-7982000D02*
X11256000Y-8022000D01*
X11256000Y-7982000D02*
X11216000Y-8022000D01*
X11288080Y-7727000D02*
X11328080Y-7767000D01*
X11328080Y-7727000D02*
X11288080Y-7767000D01*
X11288080Y-11100120D02*
X11328080Y-11140120D01*
X11328080Y-11100120D02*
X11288080Y-11140120D01*
X11316000Y-7590000D02*
X11356000Y-7630000D01*
X11356000Y-7590000D02*
X11316000Y-7630000D01*
X11327000Y-5844000D02*
X11367000Y-5884000D01*
X11367000Y-5844000D02*
X11327000Y-5884000D01*
X11328000Y-7300000D02*
X11368000Y-7340000D01*
X11368000Y-7300000D02*
X11328000Y-7340000D01*
X11389680Y-7473000D02*
X11429680Y-7513000D01*
X11429680Y-7473000D02*
X11389680Y-7513000D01*
X11389680Y-11689400D02*
X11429680Y-11729400D01*
X11429680Y-11689400D02*
X11389680Y-11729400D01*
X11411000Y-5928000D02*
X11451000Y-5968000D01*
X11451000Y-5928000D02*
X11411000Y-5968000D01*
X11455720Y-9510080D02*
X11495720Y-9550080D01*
X11495720Y-9510080D02*
X11455720Y-9550080D01*
X11455720Y-10592120D02*
X11495720Y-10632120D01*
X11495720Y-10592120D02*
X11455720Y-10632120D01*
X11460000Y-9399000D02*
X11500000Y-9439000D01*
X11500000Y-9399000D02*
X11460000Y-9439000D01*
X11475000Y-7671000D02*
X11515000Y-7711000D01*
X11515000Y-7671000D02*
X11475000Y-7711000D01*
X11508000Y-8109000D02*
X11548000Y-8149000D01*
X11548000Y-8109000D02*
X11508000Y-8149000D01*
X11526000Y-7322000D02*
X11566000Y-7362000D01*
X11566000Y-7322000D02*
X11526000Y-7362000D01*
X11531920Y-8235000D02*
X11571920Y-8275000D01*
X11571920Y-8235000D02*
X11531920Y-8275000D01*
X11532408Y-11599861D02*
X11572408Y-11639861D01*
X11572408Y-11599861D02*
X11532408Y-11639861D01*
X11595000Y-7085000D02*
X11635000Y-7125000D01*
X11635000Y-7085000D02*
X11595000Y-7125000D01*
X11611000Y-10744000D02*
X11651000Y-10784000D01*
X11651000Y-10744000D02*
X11611000Y-10784000D01*
X11620000Y-10513000D02*
X11660000Y-10553000D01*
X11660000Y-10513000D02*
X11620000Y-10553000D01*
X11623360Y-7219000D02*
X11663360Y-7259000D01*
X11663360Y-7219000D02*
X11623360Y-7259000D01*
X11624620Y-10369860D02*
X11664620Y-10409860D01*
X11664620Y-10369860D02*
X11624620Y-10409860D01*
X11694000Y-11763000D02*
X11734000Y-11803000D01*
X11734000Y-11763000D02*
X11694000Y-11803000D01*
X11699560Y-11481120D02*
X11739560Y-11521120D01*
X11739560Y-11481120D02*
X11699560Y-11521120D01*
X11703000Y-8229000D02*
X11743000Y-8269000D01*
X11743000Y-8229000D02*
X11703000Y-8269000D01*
X11704640Y-8341680D02*
X11744640Y-8381680D01*
X11744640Y-8341680D02*
X11704640Y-8381680D01*
X11811320Y-7843840D02*
X11851320Y-7883840D01*
X11851320Y-7843840D02*
X11811320Y-7883840D01*
X11811320Y-11791000D02*
X11851320Y-11831000D01*
X11851320Y-11791000D02*
X11811320Y-11831000D01*
X11816400Y-11247440D02*
X11856400Y-11287440D01*
X11856400Y-11247440D02*
X11816400Y-11287440D01*
X11831640Y-8499160D02*
X11871640Y-8539160D01*
X11871640Y-8499160D02*
X11831640Y-8539160D01*
X11831640Y-9860600D02*
X11871640Y-9900600D01*
X11871640Y-9860600D02*
X11831640Y-9900600D01*
X11870000Y-8373000D02*
X11910000Y-8413000D01*
X11910000Y-8373000D02*
X11870000Y-8413000D01*
X11874181Y-11543981D02*
X11914181Y-11583981D01*
X11914181Y-11543981D02*
X11874181Y-11583981D01*
X11879261Y-11029000D02*
X11919261Y-11069000D01*
X11919261Y-11029000D02*
X11879261Y-11069000D01*
X11887520Y-11323640D02*
X11927520Y-11363640D01*
X11927520Y-11323640D02*
X11887520Y-11363640D01*
X11901500Y-8640140D02*
X11941500Y-8680140D01*
X11941500Y-8640140D02*
X11901500Y-8680140D01*
X11930000Y-5630000D02*
X11970000Y-5670000D01*
X11970000Y-5630000D02*
X11930000Y-5670000D01*
X11964361Y-9512229D02*
X12004361Y-9552229D01*
X12004361Y-9512229D02*
X11964361Y-9552229D01*
X11964361Y-10443867D02*
X12004361Y-10483867D01*
X12004361Y-10443867D02*
X11964361Y-10483867D01*
X11974000Y-7577000D02*
X12014000Y-7617000D01*
X12014000Y-7577000D02*
X11974000Y-7617000D01*
X11974000Y-8100000D02*
X12014000Y-8140000D01*
X12014000Y-8100000D02*
X11974000Y-8140000D01*
X11975000Y-7085000D02*
X12015000Y-7125000D01*
X12015000Y-7085000D02*
X11975000Y-7125000D01*
X11977000Y-7339000D02*
X12017000Y-7379000D01*
X12017000Y-7339000D02*
X11977000Y-7379000D01*
X11978000Y-7856000D02*
X12018000Y-7896000D01*
X12018000Y-7856000D02*
X11978000Y-7896000D01*
X11979000Y-8833000D02*
X12019000Y-8873000D01*
X12019000Y-8833000D02*
X11979000Y-8873000D01*
X11979000Y-9370000D02*
X12019000Y-9410000D01*
X12019000Y-9370000D02*
X11979000Y-9410000D01*
X12175000Y-6751000D02*
X12215000Y-6791000D01*
X12215000Y-6751000D02*
X12175000Y-6791000D01*
X12182000Y-6556000D02*
X12222000Y-6596000D01*
X12222000Y-6556000D02*
X12182000Y-6596000D01*
X12327000Y-11550000D02*
X12367000Y-11590000D01*
X12367000Y-11550000D02*
X12327000Y-11590000D01*
X12330000Y-11271000D02*
X12370000Y-11311000D01*
X12370000Y-11271000D02*
X12330000Y-11311000D01*
X12335000Y-10276000D02*
X12375000Y-10316000D01*
X12375000Y-10276000D02*
X12335000Y-10316000D01*
X12340000Y-11041000D02*
X12380000Y-11081000D01*
X12380000Y-11041000D02*
X12340000Y-11081000D01*
X12346000Y-10516000D02*
X12386000Y-10556000D01*
X12386000Y-10516000D02*
X12346000Y-10556000D01*
X12351000Y-11815000D02*
X12391000Y-11855000D01*
X12391000Y-11815000D02*
X12351000Y-11855000D01*
X12357000Y-10789000D02*
X12397000Y-10829000D01*
X12397000Y-10789000D02*
X12357000Y-10829000D01*
X12380000Y-5630000D02*
X12420000Y-5670000D01*
X12420000Y-5630000D02*
X12380000Y-5670000D01*
X12780000Y-6980000D02*
X12820000Y-7020000D01*
X12820000Y-6980000D02*
X12780000Y-7020000D01*
X12780000Y-7880000D02*
X12820000Y-7920000D01*
X12820000Y-7880000D02*
X12780000Y-7920000D01*
X12866000Y-9985000D02*
X12906000Y-10025000D01*
X12906000Y-9985000D02*
X12866000Y-10025000D01*
X12904000Y-11529000D02*
X12944000Y-11569000D01*
X12944000Y-11529000D02*
X12904000Y-11569000D01*
X12923840Y-10399080D02*
X12963840Y-10439080D01*
X12963840Y-10399080D02*
X12923840Y-10439080D01*
X12927000Y-11796000D02*
X12967000Y-11836000D01*
X12967000Y-11796000D02*
X12927000Y-11836000D01*
X12938000Y-11282000D02*
X12978000Y-11322000D01*
X12978000Y-11282000D02*
X12938000Y-11322000D01*
X12955000Y-10802000D02*
X12995000Y-10842000D01*
X12995000Y-10802000D02*
X12955000Y-10842000D01*
X12965000Y-11031000D02*
X13005000Y-11071000D01*
X13005000Y-11031000D02*
X12965000Y-11071000D01*
X13045000Y-10344000D02*
X13085000Y-10384000D01*
X13085000Y-10344000D02*
X13045000Y-10384000D01*
X13120000Y-7924000D02*
X13160000Y-7964000D01*
X13160000Y-7924000D02*
X13120000Y-7964000D01*
X13132000Y-7154000D02*
X13172000Y-7194000D01*
X13172000Y-7154000D02*
X13132000Y-7194000D01*
X13158000Y-6860000D02*
X13198000Y-6900000D01*
X13198000Y-6860000D02*
X13158000Y-6900000D01*
X13280000Y-5630000D02*
X13320000Y-5670000D01*
X13320000Y-5630000D02*
X13280000Y-5670000D01*
X13530000Y-8154000D02*
X13570000Y-8194000D01*
X13570000Y-8154000D02*
X13530000Y-8194000D01*
X13578000Y-6878000D02*
X13618000Y-6918000D01*
X13618000Y-6878000D02*
X13578000Y-6918000D01*
X13805000Y-7928000D02*
X13845000Y-7968000D01*
X13845000Y-7928000D02*
X13805000Y-7968000D01*
X13823000Y-7555000D02*
X13863000Y-7595000D01*
X13863000Y-7555000D02*
X13823000Y-7595000D01*
X13857000Y-6716000D02*
X13897000Y-6756000D01*
X13897000Y-6716000D02*
X13857000Y-6756000D01*
X13933000Y-10012000D02*
X13973000Y-10052000D01*
X13973000Y-10012000D02*
X13933000Y-10052000D01*
X13992000Y-11034000D02*
X14032000Y-11074000D01*
X14032000Y-11034000D02*
X13992000Y-11074000D01*
X13995000Y-11569000D02*
X14035000Y-11609000D01*
X14035000Y-11569000D02*
X13995000Y-11609000D01*
X14003000Y-11796000D02*
X14043000Y-11836000D01*
X14043000Y-11796000D02*
X14003000Y-11836000D01*
X14008000Y-10795000D02*
X14048000Y-10835000D01*
X14048000Y-10795000D02*
X14008000Y-10835000D01*
X14026000Y-11306000D02*
X14066000Y-11346000D01*
X14066000Y-11306000D02*
X14026000Y-11346000D01*
X14051600Y-10013000D02*
X14091600Y-10053000D01*
X14091600Y-10013000D02*
X14051600Y-10053000D01*
X14130000Y-5630000D02*
X14170000Y-5670000D01*
X14170000Y-5630000D02*
X14130000Y-5670000D01*
X14179000Y-7037000D02*
X14219000Y-7077000D01*
X14219000Y-7037000D02*
X14179000Y-7077000D01*
X14193000Y-7492000D02*
X14233000Y-7532000D01*
X14233000Y-7492000D02*
X14193000Y-7532000D01*
X14198000Y-7933000D02*
X14238000Y-7973000D01*
X14238000Y-7933000D02*
X14198000Y-7973000D01*
X14630720Y-11857040D02*
X14670720Y-11897040D01*
X14670720Y-11857040D02*
X14630720Y-11897040D01*
X14640000Y-10930000D02*
X14680000Y-10970000D01*
X14680000Y-10930000D02*
X14640000Y-10970000D01*
X14645960Y-11735120D02*
X14685960Y-11775120D01*
X14685960Y-11735120D02*
X14645960Y-11775120D01*
X14650000Y-11595000D02*
X14690000Y-11635000D01*
X14690000Y-11595000D02*
X14650000Y-11635000D01*
X14656120Y-11470960D02*
X14696120Y-11510960D01*
X14696120Y-11470960D02*
X14656120Y-11510960D01*
X14666280Y-11095040D02*
X14706280Y-11135040D01*
X14706280Y-11095040D02*
X14666280Y-11135040D01*
X14666280Y-11338880D02*
X14706280Y-11378880D01*
X14706280Y-11338880D02*
X14666280Y-11378880D01*
X14671360Y-11222040D02*
X14711360Y-11262040D01*
X14711360Y-11222040D02*
X14671360Y-11262040D01*
X14749000Y-11009000D02*
X14789000Y-11049000D01*
X14789000Y-11009000D02*
X14749000Y-11049000D01*
X14758000Y-11666000D02*
X14798000Y-11706000D01*
X14798000Y-11666000D02*
X14758000Y-11706000D01*
X14770000Y-11402000D02*
X14810000Y-11442000D01*
X14810000Y-11402000D02*
X14770000Y-11442000D01*
X14772000Y-11162000D02*
X14812000Y-11202000D01*
X14812000Y-11162000D02*
X14772000Y-11202000D01*
X14880000Y-5630000D02*
X14920000Y-5670000D01*
X14920000Y-5630000D02*
X14880000Y-5670000D01*
X15084000Y-9732000D02*
X15124000Y-9772000D01*
X15124000Y-9732000D02*
X15084000Y-9772000D01*
X15089000Y-9875000D02*
X15129000Y-9915000D01*
X15129000Y-9875000D02*
X15089000Y-9915000D01*
X15093000Y-10063000D02*
X15133000Y-10103000D01*
X15133000Y-10063000D02*
X15093000Y-10103000D01*
X15141000Y-5922000D02*
X15181000Y-5962000D01*
X15181000Y-5922000D02*
X15141000Y-5962000D01*
X15152057Y-11738297D02*
X15192057Y-11778297D01*
X15192057Y-11738297D02*
X15152057Y-11778297D01*
X15162057Y-9224160D02*
X15202057Y-9264160D01*
X15202057Y-9224160D02*
X15162057Y-9264160D01*
X15213000Y-8487000D02*
X15253000Y-8527000D01*
X15253000Y-8487000D02*
X15213000Y-8527000D01*
X15217000Y-7774000D02*
X15257000Y-7814000D01*
X15257000Y-7774000D02*
X15217000Y-7814000D01*
X15217000Y-8131000D02*
X15257000Y-8171000D01*
X15257000Y-8131000D02*
X15217000Y-8171000D01*
X15220000Y-7449000D02*
X15260000Y-7489000D01*
X15260000Y-7449000D02*
X15220000Y-7489000D01*
X15223000Y-5844000D02*
X15263000Y-5884000D01*
X15263000Y-5844000D02*
X15223000Y-5884000D01*
X15224918Y-11597960D02*
X15264918Y-11637960D01*
X15264918Y-11597960D02*
X15224918Y-11637960D01*
X15224920Y-8711080D02*
X15264920Y-8751080D01*
X15264920Y-8711080D02*
X15224920Y-8751080D01*
X15224920Y-9935360D02*
X15264920Y-9975360D01*
X15264920Y-9935360D02*
X15224920Y-9975360D01*
X15269000Y-11731000D02*
X15309000Y-11771000D01*
X15309000Y-11731000D02*
X15269000Y-11771000D01*
X15277781Y-11227120D02*
X15317781Y-11267120D01*
X15317781Y-11227120D02*
X15277781Y-11267120D01*
X15286887Y-8221979D02*
X15326887Y-8261979D01*
X15326887Y-8221979D02*
X15286887Y-8261979D01*
X15289059Y-9738965D02*
X15329059Y-9778965D01*
X15329059Y-9738965D02*
X15289059Y-9778965D01*
X15316360Y-7700160D02*
X15356360Y-7740160D01*
X15356360Y-7700160D02*
X15316360Y-7740160D01*
X15351920Y-9823599D02*
X15391920Y-9863599D01*
X15391920Y-9823599D02*
X15351920Y-9863599D01*
X15369061Y-11095040D02*
X15409061Y-11135040D01*
X15409061Y-11095040D02*
X15369061Y-11135040D01*
X15377000Y-11226000D02*
X15417000Y-11266000D01*
X15417000Y-11226000D02*
X15377000Y-11266000D01*
X15391382Y-10911387D02*
X15431382Y-10951387D01*
X15431382Y-10911387D02*
X15391382Y-10951387D01*
X15431921Y-10002679D02*
X15471921Y-10042679D01*
X15471921Y-10002679D02*
X15431921Y-10042679D01*
X15433200Y-7705240D02*
X15473200Y-7745240D01*
X15473200Y-7705240D02*
X15433200Y-7745240D01*
X15443520Y-11338880D02*
X15483520Y-11378880D01*
X15483520Y-11338880D02*
X15443520Y-11378880D01*
X15456061Y-8208160D02*
X15496061Y-8248160D01*
X15496061Y-8208160D02*
X15456061Y-8248160D01*
X15464242Y-10097358D02*
X15504242Y-10137358D01*
X15504242Y-10097358D02*
X15464242Y-10137358D01*
X15515000Y-11669000D02*
X15555000Y-11709000D01*
X15555000Y-11669000D02*
X15515000Y-11709000D01*
X15524800Y-11460800D02*
X15564800Y-11500800D01*
X15564800Y-11460800D02*
X15524800Y-11500800D01*
X15534800Y-8721240D02*
X15574800Y-8761240D01*
X15574800Y-8721240D02*
X15534800Y-8761240D01*
X15534800Y-10174120D02*
X15574800Y-10214120D01*
X15574800Y-10174120D02*
X15534800Y-10214120D01*
X15546000Y-7769000D02*
X15586000Y-7809000D01*
X15586000Y-7769000D02*
X15546000Y-7809000D01*
X15563000Y-8486000D02*
X15603000Y-8526000D01*
X15603000Y-8486000D02*
X15563000Y-8526000D01*
X15575000Y-8137000D02*
X15615000Y-8177000D01*
X15615000Y-8137000D02*
X15575000Y-8177000D01*
X15600840Y-9224160D02*
X15640840Y-9264160D01*
X15640840Y-9224160D02*
X15600840Y-9264160D01*
X15601000Y-11857040D02*
X15641000Y-11897040D01*
X15641000Y-11857040D02*
X15601000Y-11897040D01*
X15608000Y-8980000D02*
X15648000Y-9020000D01*
X15648000Y-8980000D02*
X15608000Y-9020000D01*
X15674000Y-10268000D02*
X15714000Y-10308000D01*
X15714000Y-10268000D02*
X15674000Y-10308000D01*
X15685000Y-9768000D02*
X15725000Y-9808000D01*
X15725000Y-9768000D02*
X15685000Y-9808000D01*
X15708000Y-11812000D02*
X15748000Y-11852000D01*
X15748000Y-11812000D02*
X15708000Y-11852000D01*
X16300600Y-9329560D02*
X16340600Y-9369560D01*
X16340600Y-9329560D02*
X16300600Y-9369560D01*
X16380000Y-11780000D02*
X16420000Y-11820000D01*
X16420000Y-11780000D02*
X16380000Y-11820000D01*
X16466000Y-6964000D02*
X16506000Y-7004000D01*
X16506000Y-6964000D02*
X16466000Y-7004000D01*
X16469000Y-6658000D02*
X16509000Y-6698000D01*
X16509000Y-6658000D02*
X16469000Y-6698000D01*
X16480000Y-5630000D02*
X16520000Y-5670000D01*
X16520000Y-5630000D02*
X16480000Y-5670000D01*
X16527000Y-9766000D02*
X16567000Y-9806000D01*
X16567000Y-9766000D02*
X16527000Y-9806000D01*
X16627000Y-8213240D02*
X16667000Y-8253240D01*
X16667000Y-8213240D02*
X16627000Y-8253240D01*
X16627000Y-9701680D02*
X16667000Y-9741680D01*
X16667000Y-9701680D02*
X16627000Y-9741680D01*
X16698120Y-9782960D02*
X16738120Y-9822960D01*
X16738120Y-9782960D02*
X16698120Y-9822960D01*
X16703200Y-7710320D02*
X16743200Y-7750320D01*
X16743200Y-7710320D02*
X16703200Y-7750320D01*
X16728600Y-9884560D02*
X16768600Y-9924560D01*
X16768600Y-9884560D02*
X16728600Y-9924560D01*
X16774320Y-8711080D02*
X16814320Y-8751080D01*
X16814320Y-8711080D02*
X16774320Y-8751080D01*
X16775000Y-8196000D02*
X16815000Y-8236000D01*
X16815000Y-8196000D02*
X16775000Y-8236000D01*
X16777000Y-8459000D02*
X16817000Y-8499000D01*
X16817000Y-8459000D02*
X16777000Y-8499000D01*
X16780000Y-5790000D02*
X16820000Y-5830000D01*
X16820000Y-5790000D02*
X16780000Y-5830000D01*
X16780000Y-7926000D02*
X16820000Y-7966000D01*
X16820000Y-7926000D02*
X16780000Y-7966000D01*
X16780000Y-11780000D02*
X16820000Y-11820000D01*
X16820000Y-11780000D02*
X16780000Y-11820000D01*
X16781301Y-7803020D02*
X16821301Y-7843020D01*
X16821301Y-7803020D02*
X16781301Y-7843020D01*
X16799720Y-9991240D02*
X16839720Y-10031240D01*
X16839720Y-9991240D02*
X16799720Y-10031240D01*
X16818000Y-10262000D02*
X16858000Y-10302000D01*
X16858000Y-10262000D02*
X16818000Y-10302000D01*
X16860680Y-7705240D02*
X16900680Y-7745240D01*
X16900680Y-7705240D02*
X16860680Y-7745240D01*
X16886683Y-10072962D02*
X16926683Y-10112962D01*
X16926683Y-10072962D02*
X16886683Y-10112962D01*
X16895000Y-5720000D02*
X16935000Y-5760000D01*
X16935000Y-5720000D02*
X16895000Y-5760000D01*
X16896000Y-7443000D02*
X16936000Y-7483000D01*
X16936000Y-7443000D02*
X16896000Y-7483000D01*
X16921640Y-8208160D02*
X16961640Y-8248160D01*
X16961640Y-8208160D02*
X16921640Y-8248160D01*
X16933000Y-7891000D02*
X16973000Y-7931000D01*
X16973000Y-7891000D02*
X16933000Y-7931000D01*
X16967360Y-10174120D02*
X17007360Y-10214120D01*
X17007360Y-10174120D02*
X16967360Y-10214120D01*
X16970000Y-8485000D02*
X17010000Y-8525000D01*
X17010000Y-8485000D02*
X16970000Y-8525000D01*
X16982600Y-8711080D02*
X17022600Y-8751080D01*
X17022600Y-8711080D02*
X16982600Y-8751080D01*
X16992000Y-10307000D02*
X17032000Y-10347000D01*
X17032000Y-10307000D02*
X16992000Y-10347000D01*
X17028000Y-7195000D02*
X17068000Y-7235000D01*
X17068000Y-7195000D02*
X17028000Y-7235000D01*
X17028000Y-7449000D02*
X17068000Y-7489000D01*
X17068000Y-7449000D02*
X17028000Y-7489000D01*
X17050000Y-9791000D02*
X17090000Y-9831000D01*
X17090000Y-9791000D02*
X17050000Y-9831000D01*
X17068000Y-10084000D02*
X17108000Y-10124000D01*
X17108000Y-10084000D02*
X17068000Y-10124000D01*
X17130000Y-5630000D02*
X17170000Y-5670000D01*
X17170000Y-5630000D02*
X17130000Y-5670000D01*
X17280000Y-11780000D02*
X17320000Y-11820000D01*
X17320000Y-11780000D02*
X17280000Y-11820000D01*
X17680000Y-5630000D02*
X17720000Y-5670000D01*
X17720000Y-5630000D02*
X17680000Y-5670000D01*
X17680000Y-11780000D02*
X17720000Y-11820000D01*
X17720000Y-11780000D02*
X17680000Y-11820000D01*
X18280000Y-9880000D02*
X18320000Y-9920000D01*
X18320000Y-9880000D02*
X18280000Y-9920000D01*
X18280000Y-10280000D02*
X18320000Y-10320000D01*
X18320000Y-10280000D02*
X18280000Y-10320000D01*
X18280000Y-10680000D02*
X18320000Y-10720000D01*
X18320000Y-10680000D02*
X18280000Y-10720000D01*
X18280000Y-11080000D02*
X18320000Y-11120000D01*
X18320000Y-11080000D02*
X18280000Y-11120000D01*
X9200400Y-8725000D02*
G75*
G03X9200400Y-8725000I-25400J0D01*
G01*
X9200400Y-8825000D02*
G75*
G03X9200400Y-8825000I-25400J0D01*
G01*
X9300400Y-8725000D02*
G75*
G03X9300400Y-8725000I-25400J0D01*
G01*
X9300400Y-8825000D02*
G75*
G03X9300400Y-8825000I-25400J0D01*
G01*
X12136400Y-6673000D02*
G75*
G03X12136400Y-6673000I-25400J0D01*
G01*
X13690000Y-8615000D02*
X13690000Y-8685000D01*
X13655000Y-8650000D02*
X13725000Y-8650000D01*
X14198000Y-8615000D02*
X14198000Y-8685000D01*
X14163000Y-8650000D02*
X14233000Y-8650000D01*
X13690600Y-8845000D02*
X13690600Y-8915000D01*
X13655600Y-8880000D02*
X13725600Y-8880000D01*
X14198600Y-8845000D02*
X14198600Y-8915000D01*
X14163600Y-8880000D02*
X14233600Y-8880000D01*
X13692000Y-9145000D02*
X13692000Y-9215000D01*
X13657000Y-9180000D02*
X13727000Y-9180000D01*
X14200000Y-9145000D02*
X14200000Y-9215000D01*
X14165000Y-9180000D02*
X14235000Y-9180000D01*
X12523317Y-8364067D02*
X12523317Y-8311033D01*
X12470283Y-8311033D01*
X12470283Y-8364067D01*
X12523317Y-8364067D01*
X12649317Y-8491067D02*
X12649317Y-8438033D01*
X12596283Y-8438033D01*
X12596283Y-8491067D01*
X12649317Y-8491067D01*
X12777317Y-8364067D02*
X12777317Y-8311033D01*
X12724283Y-8311033D01*
X12724283Y-8364067D01*
X12777317Y-8364067D01*
X12522200Y-7613200D02*
X12562200Y-7573200D01*
X12522200Y-7533200D01*
X12482200Y-7573200D01*
X12522200Y-7613200D01*
X12522200Y-7863200D02*
X12562200Y-7823200D01*
X12522200Y-7783200D01*
X12482200Y-7823200D01*
X12522200Y-7863200D01*
X9238000Y-11128000D02*
X9278000Y-11088000D01*
X9238000Y-11048000D01*
X9198000Y-11088000D01*
X9238000Y-11128000D01*
X9238000Y-11890000D02*
X9278000Y-11850000D01*
X9238000Y-11810000D01*
X9198000Y-11850000D01*
X9238000Y-11890000D01*
X10042080Y-6704960D02*
X10082080Y-6664960D01*
X10042080Y-6624960D01*
X10002080Y-6664960D01*
X10042080Y-6704960D01*
X10292080Y-6704960D02*
X10332080Y-6664960D01*
X10292080Y-6624960D01*
X10252080Y-6664960D01*
X10292080Y-6704960D01*
X15046800Y-7254700D02*
X15086800Y-7214700D01*
X15046800Y-7174700D01*
X15006800Y-7214700D01*
X15046800Y-7254700D01*
X15046800Y-7508700D02*
X15086800Y-7468700D01*
X15046800Y-7428700D01*
X15006800Y-7468700D01*
X15046800Y-7508700D01*
X15046800Y-7762700D02*
X15086800Y-7722700D01*
X15046800Y-7682700D01*
X15006800Y-7722700D01*
X15046800Y-7762700D01*
X15046800Y-8016700D02*
X15086800Y-7976700D01*
X15046800Y-7936700D01*
X15006800Y-7976700D01*
X15046800Y-8016700D01*
X15046800Y-8270700D02*
X15086800Y-8230700D01*
X15046800Y-8190700D01*
X15006800Y-8230700D01*
X15046800Y-8270700D01*
X15046800Y-8524700D02*
X15086800Y-8484700D01*
X15046800Y-8444700D01*
X15006800Y-8484700D01*
X15046800Y-8524700D01*
X15046800Y-8778700D02*
X15086800Y-8738700D01*
X15046800Y-8698700D01*
X15006800Y-8738700D01*
X15046800Y-8778700D01*
X15046800Y-9032700D02*
X15086800Y-8992700D01*
X15046800Y-8952700D01*
X15006800Y-8992700D01*
X15046800Y-9032700D01*
X15046800Y-9286700D02*
X15086800Y-9246700D01*
X15046800Y-9206700D01*
X15006800Y-9246700D01*
X15046800Y-9286700D01*
X15046800Y-9540700D02*
X15086800Y-9500700D01*
X15046800Y-9460700D01*
X15006800Y-9500700D01*
X15046800Y-9540700D01*
X15808800Y-7254700D02*
X15848800Y-7214700D01*
X15808800Y-7174700D01*
X15768800Y-7214700D01*
X15808800Y-7254700D01*
X15808800Y-7508700D02*
X15848800Y-7468700D01*
X15808800Y-7428700D01*
X15768800Y-7468700D01*
X15808800Y-7508700D01*
X15808800Y-7762700D02*
X15848800Y-7722700D01*
X15808800Y-7682700D01*
X15768800Y-7722700D01*
X15808800Y-7762700D01*
X15808800Y-8016700D02*
X15848800Y-7976700D01*
X15808800Y-7936700D01*
X15768800Y-7976700D01*
X15808800Y-8016700D01*
X15808800Y-8270700D02*
X15848800Y-8230700D01*
X15808800Y-8190700D01*
X15768800Y-8230700D01*
X15808800Y-8270700D01*
X15808800Y-8524700D02*
X15848800Y-8484700D01*
X15808800Y-8444700D01*
X15768800Y-8484700D01*
X15808800Y-8524700D01*
X15808800Y-8778700D02*
X15848800Y-8738700D01*
X15808800Y-8698700D01*
X15768800Y-8738700D01*
X15808800Y-8778700D01*
X15808800Y-9032700D02*
X15848800Y-8992700D01*
X15808800Y-8952700D01*
X15768800Y-8992700D01*
X15808800Y-9032700D01*
X15808800Y-9286700D02*
X15848800Y-9246700D01*
X15808800Y-9206700D01*
X15768800Y-9246700D01*
X15808800Y-9286700D01*
X15808800Y-9540700D02*
X15848800Y-9500700D01*
X15808800Y-9460700D01*
X15768800Y-9500700D01*
X15808800Y-9540700D01*
X14700000Y-7260000D02*
X14740000Y-7220000D01*
X14700000Y-7180000D01*
X14660000Y-7220000D01*
X14700000Y-7260000D01*
X14700000Y-7514000D02*
X14740000Y-7474000D01*
X14700000Y-7434000D01*
X14660000Y-7474000D01*
X14700000Y-7514000D01*
X14700000Y-7768000D02*
X14740000Y-7728000D01*
X14700000Y-7688000D01*
X14660000Y-7728000D01*
X14700000Y-7768000D01*
X14700000Y-8022000D02*
X14740000Y-7982000D01*
X14700000Y-7942000D01*
X14660000Y-7982000D01*
X14700000Y-8022000D01*
X14700000Y-8276000D02*
X14740000Y-8236000D01*
X14700000Y-8196000D01*
X14660000Y-8236000D01*
X14700000Y-8276000D01*
X14700000Y-8530000D02*
X14740000Y-8490000D01*
X14700000Y-8450000D01*
X14660000Y-8490000D01*
X14700000Y-8530000D01*
X14700000Y-8784000D02*
X14740000Y-8744000D01*
X14700000Y-8704000D01*
X14660000Y-8744000D01*
X14700000Y-8784000D01*
X14700000Y-9038000D02*
X14740000Y-8998000D01*
X14700000Y-8958000D01*
X14660000Y-8998000D01*
X14700000Y-9038000D01*
X14700000Y-9292000D02*
X14740000Y-9252000D01*
X14700000Y-9212000D01*
X14660000Y-9252000D01*
X14700000Y-9292000D01*
X13248000Y-8821000D02*
X13288000Y-8781000D01*
X13248000Y-8741000D01*
X13208000Y-8781000D01*
X13248000Y-8821000D01*
X13248000Y-9071000D02*
X13288000Y-9031000D01*
X13248000Y-8991000D01*
X13208000Y-9031000D01*
X13248000Y-9071000D01*
X16139000Y-7261050D02*
X16179000Y-7221050D01*
X16139000Y-7181050D01*
X16099000Y-7221050D01*
X16139000Y-7261050D01*
X16139000Y-7515050D02*
X16179000Y-7475050D01*
X16139000Y-7435050D01*
X16099000Y-7475050D01*
X16139000Y-7515050D01*
X16139000Y-7769050D02*
X16179000Y-7729050D01*
X16139000Y-7689050D01*
X16099000Y-7729050D01*
X16139000Y-7769050D01*
X16139000Y-8023050D02*
X16179000Y-7983050D01*
X16139000Y-7943050D01*
X16099000Y-7983050D01*
X16139000Y-8023050D01*
X16139000Y-8277050D02*
X16179000Y-8237050D01*
X16139000Y-8197050D01*
X16099000Y-8237050D01*
X16139000Y-8277050D01*
X16139000Y-8531050D02*
X16179000Y-8491050D01*
X16139000Y-8451050D01*
X16099000Y-8491050D01*
X16139000Y-8531050D01*
X16139000Y-8785050D02*
X16179000Y-8745050D01*
X16139000Y-8705050D01*
X16099000Y-8745050D01*
X16139000Y-8785050D01*
X16139000Y-9039050D02*
X16179000Y-8999050D01*
X16139000Y-8959050D01*
X16099000Y-8999050D01*
X16139000Y-9039050D01*
X16139000Y-9293050D02*
X16179000Y-9253050D01*
X16139000Y-9213050D01*
X16099000Y-9253050D01*
X16139000Y-9293050D01*
X13930000Y-8420000D02*
X13970000Y-8380000D01*
X13930000Y-8340000D01*
X13890000Y-8380000D01*
X13930000Y-8420000D01*
X14180000Y-8420000D02*
X14220000Y-8380000D01*
X14180000Y-8340000D01*
X14140000Y-8380000D01*
X14180000Y-8420000D01*
X15570000Y-6935000D02*
X15610000Y-6895000D01*
X15570000Y-6855000D01*
X15530000Y-6895000D01*
X15570000Y-6935000D01*
X15820000Y-6935000D02*
X15860000Y-6895000D01*
X15820000Y-6855000D01*
X15780000Y-6895000D01*
X15820000Y-6935000D01*
X9620250Y-9272900D02*
X9660250Y-9232900D01*
X9620250Y-9192900D01*
X9580250Y-9232900D01*
X9620250Y-9272900D01*
X9620250Y-9522900D02*
X9660250Y-9482900D01*
X9620250Y-9442900D01*
X9580250Y-9482900D01*
X9620250Y-9522900D01*
X13093700Y-9488800D02*
X13133700Y-9448800D01*
X13093700Y-9408800D01*
X13053700Y-9448800D01*
X13093700Y-9488800D01*
X13343700Y-9488800D02*
X13383700Y-9448800D01*
X13343700Y-9408800D01*
X13303700Y-9448800D01*
X13343700Y-9488800D01*
X12766000Y-8789000D02*
X12806000Y-8749000D01*
X12766000Y-8709000D01*
X12726000Y-8749000D01*
X12766000Y-8789000D01*
X12766000Y-9039000D02*
X12806000Y-8999000D01*
X12766000Y-8959000D01*
X12726000Y-8999000D01*
X12766000Y-9039000D01*
X9518650Y-7025000D02*
X9558650Y-6985000D01*
X9518650Y-6945000D01*
X9478650Y-6985000D01*
X9518650Y-7025000D01*
X9518650Y-7279000D02*
X9558650Y-7239000D01*
X9518650Y-7199000D01*
X9478650Y-7239000D01*
X9518650Y-7279000D01*
X9518650Y-7533000D02*
X9558650Y-7493000D01*
X9518650Y-7453000D01*
X9478650Y-7493000D01*
X9518650Y-7533000D01*
X9518650Y-7787000D02*
X9558650Y-7747000D01*
X9518650Y-7707000D01*
X9478650Y-7747000D01*
X9518650Y-7787000D01*
X9518650Y-8041000D02*
X9558650Y-8001000D01*
X9518650Y-7961000D01*
X9478650Y-8001000D01*
X9518650Y-8041000D01*
X9518650Y-8295000D02*
X9558650Y-8255000D01*
X9518650Y-8215000D01*
X9478650Y-8255000D01*
X9518650Y-8295000D01*
X9518650Y-8549000D02*
X9558650Y-8509000D01*
X9518650Y-8469000D01*
X9478650Y-8509000D01*
X9518650Y-8549000D01*
X9518650Y-8803000D02*
X9558650Y-8763000D01*
X9518650Y-8723000D01*
X9478650Y-8763000D01*
X9518650Y-8803000D01*
X10280650Y-7025000D02*
X10320650Y-6985000D01*
X10280650Y-6945000D01*
X10240650Y-6985000D01*
X10280650Y-7025000D01*
X10280650Y-7279000D02*
X10320650Y-7239000D01*
X10280650Y-7199000D01*
X10240650Y-7239000D01*
X10280650Y-7279000D01*
X10280650Y-7533000D02*
X10320650Y-7493000D01*
X10280650Y-7453000D01*
X10240650Y-7493000D01*
X10280650Y-7533000D01*
X10280650Y-7787000D02*
X10320650Y-7747000D01*
X10280650Y-7707000D01*
X10240650Y-7747000D01*
X10280650Y-7787000D01*
X10280650Y-8041000D02*
X10320650Y-8001000D01*
X10280650Y-7961000D01*
X10240650Y-8001000D01*
X10280650Y-8041000D01*
X10280650Y-8295000D02*
X10320650Y-8255000D01*
X10280650Y-8215000D01*
X10240650Y-8255000D01*
X10280650Y-8295000D01*
X10280650Y-8549000D02*
X10320650Y-8509000D01*
X10280650Y-8469000D01*
X10240650Y-8509000D01*
X10280650Y-8549000D01*
X10280650Y-8803000D02*
X10320650Y-8763000D01*
X10280650Y-8723000D01*
X10240650Y-8763000D01*
X10280650Y-8803000D01*
X12573000Y-9819000D02*
X12613000Y-9779000D01*
X12573000Y-9739000D01*
X12533000Y-9779000D01*
X12573000Y-9819000D01*
X12573000Y-10073000D02*
X12613000Y-10033000D01*
X12573000Y-9993000D01*
X12533000Y-10033000D01*
X12573000Y-10073000D01*
X12573000Y-10327000D02*
X12613000Y-10287000D01*
X12573000Y-10247000D01*
X12533000Y-10287000D01*
X12573000Y-10327000D01*
X12573000Y-10581000D02*
X12613000Y-10541000D01*
X12573000Y-10501000D01*
X12533000Y-10541000D01*
X12573000Y-10581000D01*
X12573000Y-10835000D02*
X12613000Y-10795000D01*
X12573000Y-10755000D01*
X12533000Y-10795000D01*
X12573000Y-10835000D01*
X12573000Y-11089000D02*
X12613000Y-11049000D01*
X12573000Y-11009000D01*
X12533000Y-11049000D01*
X12573000Y-11089000D01*
X12573000Y-11343000D02*
X12613000Y-11303000D01*
X12573000Y-11263000D01*
X12533000Y-11303000D01*
X12573000Y-11343000D01*
X12573000Y-11597000D02*
X12613000Y-11557000D01*
X12573000Y-11517000D01*
X12533000Y-11557000D01*
X12573000Y-11597000D01*
X12573000Y-11851000D02*
X12613000Y-11811000D01*
X12573000Y-11771000D01*
X12533000Y-11811000D01*
X12573000Y-11851000D01*
X13335000Y-9819000D02*
X13375000Y-9779000D01*
X13335000Y-9739000D01*
X13295000Y-9779000D01*
X13335000Y-9819000D01*
X13335000Y-10073000D02*
X13375000Y-10033000D01*
X13335000Y-9993000D01*
X13295000Y-10033000D01*
X13335000Y-10073000D01*
X13335000Y-10327000D02*
X13375000Y-10287000D01*
X13335000Y-10247000D01*
X13295000Y-10287000D01*
X13335000Y-10327000D01*
X13335000Y-10581000D02*
X13375000Y-10541000D01*
X13335000Y-10501000D01*
X13295000Y-10541000D01*
X13335000Y-10581000D01*
X13335000Y-10835000D02*
X13375000Y-10795000D01*
X13335000Y-10755000D01*
X13295000Y-10795000D01*
X13335000Y-10835000D01*
X13335000Y-11089000D02*
X13375000Y-11049000D01*
X13335000Y-11009000D01*
X13295000Y-11049000D01*
X13335000Y-11089000D01*
X13335000Y-11343000D02*
X13375000Y-11303000D01*
X13335000Y-11263000D01*
X13295000Y-11303000D01*
X13335000Y-11343000D01*
X13335000Y-11597000D02*
X13375000Y-11557000D01*
X13335000Y-11517000D01*
X13295000Y-11557000D01*
X13335000Y-11597000D01*
X13335000Y-11851000D02*
X13375000Y-11811000D01*
X13335000Y-11771000D01*
X13295000Y-11811000D01*
X13335000Y-11851000D01*
X17030000Y-6935000D02*
X17070000Y-6895000D01*
X17030000Y-6855000D01*
X16990000Y-6895000D01*
X17030000Y-6935000D01*
X17280000Y-6935000D02*
X17320000Y-6895000D01*
X17280000Y-6855000D01*
X17240000Y-6895000D01*
X17280000Y-6935000D01*
X12453000Y-8789000D02*
X12493000Y-8749000D01*
X12453000Y-8709000D01*
X12413000Y-8749000D01*
X12453000Y-8789000D01*
X12453000Y-9039000D02*
X12493000Y-8999000D01*
X12453000Y-8959000D01*
X12413000Y-8999000D01*
X12453000Y-9039000D01*
X12827000Y-7246200D02*
X12867000Y-7206200D01*
X12827000Y-7166200D01*
X12787000Y-7206200D01*
X12827000Y-7246200D01*
X12827000Y-7736200D02*
X12867000Y-7696200D01*
X12827000Y-7656200D01*
X12787000Y-7696200D01*
X12827000Y-7736200D01*
X9518650Y-10066650D02*
X9558650Y-10026650D01*
X9518650Y-9986650D01*
X9478650Y-10026650D01*
X9518650Y-10066650D01*
X9518650Y-10320650D02*
X9558650Y-10280650D01*
X9518650Y-10240650D01*
X9478650Y-10280650D01*
X9518650Y-10320650D01*
X9518650Y-10574650D02*
X9558650Y-10534650D01*
X9518650Y-10494650D01*
X9478650Y-10534650D01*
X9518650Y-10574650D01*
X9518650Y-10828650D02*
X9558650Y-10788650D01*
X9518650Y-10748650D01*
X9478650Y-10788650D01*
X9518650Y-10828650D01*
X9518650Y-11082650D02*
X9558650Y-11042650D01*
X9518650Y-11002650D01*
X9478650Y-11042650D01*
X9518650Y-11082650D01*
X9518650Y-11336650D02*
X9558650Y-11296650D01*
X9518650Y-11256650D01*
X9478650Y-11296650D01*
X9518650Y-11336650D01*
X9518650Y-11590650D02*
X9558650Y-11550650D01*
X9518650Y-11510650D01*
X9478650Y-11550650D01*
X9518650Y-11590650D01*
X9518650Y-11844650D02*
X9558650Y-11804650D01*
X9518650Y-11764650D01*
X9478650Y-11804650D01*
X9518650Y-11844650D01*
X10280650Y-10066650D02*
X10320650Y-10026650D01*
X10280650Y-9986650D01*
X10240650Y-10026650D01*
X10280650Y-10066650D01*
X10280650Y-10320650D02*
X10320650Y-10280650D01*
X10280650Y-10240650D01*
X10240650Y-10280650D01*
X10280650Y-10320650D01*
X10280650Y-10574650D02*
X10320650Y-10534650D01*
X10280650Y-10494650D01*
X10240650Y-10534650D01*
X10280650Y-10574650D01*
X10280650Y-10828650D02*
X10320650Y-10788650D01*
X10280650Y-10748650D01*
X10240650Y-10788650D01*
X10280650Y-10828650D01*
X10280650Y-11082650D02*
X10320650Y-11042650D01*
X10280650Y-11002650D01*
X10240650Y-11042650D01*
X10280650Y-11082650D01*
X10280650Y-11336650D02*
X10320650Y-11296650D01*
X10280650Y-11256650D01*
X10240650Y-11296650D01*
X10280650Y-11336650D01*
X10280650Y-11590650D02*
X10320650Y-11550650D01*
X10280650Y-11510650D01*
X10240650Y-11550650D01*
X10280650Y-11590650D01*
X10280650Y-11844650D02*
X10320650Y-11804650D01*
X10280650Y-11764650D01*
X10240650Y-11804650D01*
X10280650Y-11844650D01*
X10274300Y-9537250D02*
X10314300Y-9497250D01*
X10274300Y-9457250D01*
X10234300Y-9497250D01*
X10274300Y-9537250D01*
X10274300Y-9787250D02*
X10314300Y-9747250D01*
X10274300Y-9707250D01*
X10234300Y-9747250D01*
X10274300Y-9787250D01*
X10617200Y-7025000D02*
X10657200Y-6985000D01*
X10617200Y-6945000D01*
X10577200Y-6985000D01*
X10617200Y-7025000D01*
X10617200Y-7279000D02*
X10657200Y-7239000D01*
X10617200Y-7199000D01*
X10577200Y-7239000D01*
X10617200Y-7279000D01*
X10617200Y-7533000D02*
X10657200Y-7493000D01*
X10617200Y-7453000D01*
X10577200Y-7493000D01*
X10617200Y-7533000D01*
X10617200Y-7787000D02*
X10657200Y-7747000D01*
X10617200Y-7707000D01*
X10577200Y-7747000D01*
X10617200Y-7787000D01*
X10617200Y-8041000D02*
X10657200Y-8001000D01*
X10617200Y-7961000D01*
X10577200Y-8001000D01*
X10617200Y-8041000D01*
X10617200Y-8295000D02*
X10657200Y-8255000D01*
X10617200Y-8215000D01*
X10577200Y-8255000D01*
X10617200Y-8295000D01*
X10617200Y-8549000D02*
X10657200Y-8509000D01*
X10617200Y-8469000D01*
X10577200Y-8509000D01*
X10617200Y-8549000D01*
X10617200Y-8803000D02*
X10657200Y-8763000D01*
X10617200Y-8723000D01*
X10577200Y-8763000D01*
X10617200Y-8803000D01*
X10617200Y-9057000D02*
X10657200Y-9017000D01*
X10617200Y-8977000D01*
X10577200Y-9017000D01*
X10617200Y-9057000D01*
X10617200Y-9311000D02*
X10657200Y-9271000D01*
X10617200Y-9231000D01*
X10577200Y-9271000D01*
X10617200Y-9311000D01*
X10617200Y-9565000D02*
X10657200Y-9525000D01*
X10617200Y-9485000D01*
X10577200Y-9525000D01*
X10617200Y-9565000D01*
X10617200Y-9819000D02*
X10657200Y-9779000D01*
X10617200Y-9739000D01*
X10577200Y-9779000D01*
X10617200Y-9819000D01*
X10617200Y-10073000D02*
X10657200Y-10033000D01*
X10617200Y-9993000D01*
X10577200Y-10033000D01*
X10617200Y-10073000D01*
X10617200Y-10327000D02*
X10657200Y-10287000D01*
X10617200Y-10247000D01*
X10577200Y-10287000D01*
X10617200Y-10327000D01*
X10617200Y-10581000D02*
X10657200Y-10541000D01*
X10617200Y-10501000D01*
X10577200Y-10541000D01*
X10617200Y-10581000D01*
X10617200Y-10835000D02*
X10657200Y-10795000D01*
X10617200Y-10755000D01*
X10577200Y-10795000D01*
X10617200Y-10835000D01*
X10617200Y-11089000D02*
X10657200Y-11049000D01*
X10617200Y-11009000D01*
X10577200Y-11049000D01*
X10617200Y-11089000D01*
X10617200Y-11343000D02*
X10657200Y-11303000D01*
X10617200Y-11263000D01*
X10577200Y-11303000D01*
X10617200Y-11343000D01*
X10617200Y-11597000D02*
X10657200Y-11557000D01*
X10617200Y-11517000D01*
X10577200Y-11557000D01*
X10617200Y-11597000D01*
X10617200Y-11851000D02*
X10657200Y-11811000D01*
X10617200Y-11771000D01*
X10577200Y-11811000D01*
X10617200Y-11851000D01*
X12141200Y-7025000D02*
X12181200Y-6985000D01*
X12141200Y-6945000D01*
X12101200Y-6985000D01*
X12141200Y-7025000D01*
X12141200Y-7279000D02*
X12181200Y-7239000D01*
X12141200Y-7199000D01*
X12101200Y-7239000D01*
X12141200Y-7279000D01*
X12141200Y-7533000D02*
X12181200Y-7493000D01*
X12141200Y-7453000D01*
X12101200Y-7493000D01*
X12141200Y-7533000D01*
X12141200Y-7787000D02*
X12181200Y-7747000D01*
X12141200Y-7707000D01*
X12101200Y-7747000D01*
X12141200Y-7787000D01*
X12141200Y-8041000D02*
X12181200Y-8001000D01*
X12141200Y-7961000D01*
X12101200Y-8001000D01*
X12141200Y-8041000D01*
X12141200Y-8295000D02*
X12181200Y-8255000D01*
X12141200Y-8215000D01*
X12101200Y-8255000D01*
X12141200Y-8295000D01*
X12141200Y-8549000D02*
X12181200Y-8509000D01*
X12141200Y-8469000D01*
X12101200Y-8509000D01*
X12141200Y-8549000D01*
X12141200Y-8803000D02*
X12181200Y-8763000D01*
X12141200Y-8723000D01*
X12101200Y-8763000D01*
X12141200Y-8803000D01*
X12141200Y-9057000D02*
X12181200Y-9017000D01*
X12141200Y-8977000D01*
X12101200Y-9017000D01*
X12141200Y-9057000D01*
X12141200Y-9311000D02*
X12181200Y-9271000D01*
X12141200Y-9231000D01*
X12101200Y-9271000D01*
X12141200Y-9311000D01*
X12141200Y-9565000D02*
X12181200Y-9525000D01*
X12141200Y-9485000D01*
X12101200Y-9525000D01*
X12141200Y-9565000D01*
X12141200Y-9819000D02*
X12181200Y-9779000D01*
X12141200Y-9739000D01*
X12101200Y-9779000D01*
X12141200Y-9819000D01*
X12141200Y-10073000D02*
X12181200Y-10033000D01*
X12141200Y-9993000D01*
X12101200Y-10033000D01*
X12141200Y-10073000D01*
X12141200Y-10327000D02*
X12181200Y-10287000D01*
X12141200Y-10247000D01*
X12101200Y-10287000D01*
X12141200Y-10327000D01*
X12141200Y-10581000D02*
X12181200Y-10541000D01*
X12141200Y-10501000D01*
X12101200Y-10541000D01*
X12141200Y-10581000D01*
X12141200Y-10835000D02*
X12181200Y-10795000D01*
X12141200Y-10755000D01*
X12101200Y-10795000D01*
X12141200Y-10835000D01*
X12141200Y-11089000D02*
X12181200Y-11049000D01*
X12141200Y-11009000D01*
X12101200Y-11049000D01*
X12141200Y-11089000D01*
X12141200Y-11343000D02*
X12181200Y-11303000D01*
X12141200Y-11263000D01*
X12101200Y-11303000D01*
X12141200Y-11343000D01*
X12141200Y-11597000D02*
X12181200Y-11557000D01*
X12141200Y-11517000D01*
X12101200Y-11557000D01*
X12141200Y-11597000D01*
X12141200Y-11851000D02*
X12181200Y-11811000D01*
X12141200Y-11771000D01*
X12101200Y-11811000D01*
X12141200Y-11851000D01*
X13665200Y-9819000D02*
X13705200Y-9779000D01*
X13665200Y-9739000D01*
X13625200Y-9779000D01*
X13665200Y-9819000D01*
X13665200Y-10073000D02*
X13705200Y-10033000D01*
X13665200Y-9993000D01*
X13625200Y-10033000D01*
X13665200Y-10073000D01*
X13665200Y-10327000D02*
X13705200Y-10287000D01*
X13665200Y-10247000D01*
X13625200Y-10287000D01*
X13665200Y-10327000D01*
X13665200Y-10581000D02*
X13705200Y-10541000D01*
X13665200Y-10501000D01*
X13625200Y-10541000D01*
X13665200Y-10581000D01*
X13665200Y-10835000D02*
X13705200Y-10795000D01*
X13665200Y-10755000D01*
X13625200Y-10795000D01*
X13665200Y-10835000D01*
X13665200Y-11089000D02*
X13705200Y-11049000D01*
X13665200Y-11009000D01*
X13625200Y-11049000D01*
X13665200Y-11089000D01*
X13665200Y-11343000D02*
X13705200Y-11303000D01*
X13665200Y-11263000D01*
X13625200Y-11303000D01*
X13665200Y-11343000D01*
X13665200Y-11597000D02*
X13705200Y-11557000D01*
X13665200Y-11517000D01*
X13625200Y-11557000D01*
X13665200Y-11597000D01*
X13665200Y-11851000D02*
X13705200Y-11811000D01*
X13665200Y-11771000D01*
X13625200Y-11811000D01*
X13665200Y-11851000D01*
X14427200Y-9819000D02*
X14467200Y-9779000D01*
X14427200Y-9739000D01*
X14387200Y-9779000D01*
X14427200Y-9819000D01*
X14427200Y-10073000D02*
X14467200Y-10033000D01*
X14427200Y-9993000D01*
X14387200Y-10033000D01*
X14427200Y-10073000D01*
X14427200Y-10327000D02*
X14467200Y-10287000D01*
X14427200Y-10247000D01*
X14387200Y-10287000D01*
X14427200Y-10327000D01*
X14427200Y-10581000D02*
X14467200Y-10541000D01*
X14427200Y-10501000D01*
X14387200Y-10541000D01*
X14427200Y-10581000D01*
X14427200Y-10835000D02*
X14467200Y-10795000D01*
X14427200Y-10755000D01*
X14387200Y-10795000D01*
X14427200Y-10835000D01*
X14427200Y-11089000D02*
X14467200Y-11049000D01*
X14427200Y-11009000D01*
X14387200Y-11049000D01*
X14427200Y-11089000D01*
X14427200Y-11343000D02*
X14467200Y-11303000D01*
X14427200Y-11263000D01*
X14387200Y-11303000D01*
X14427200Y-11343000D01*
X14427200Y-11597000D02*
X14467200Y-11557000D01*
X14427200Y-11517000D01*
X14387200Y-11557000D01*
X14427200Y-11597000D01*
X14427200Y-11851000D02*
X14467200Y-11811000D01*
X14427200Y-11771000D01*
X14387200Y-11811000D01*
X14427200Y-11851000D01*
X14172120Y-9488800D02*
X14212120Y-9448800D01*
X14172120Y-9408800D01*
X14132120Y-9448800D01*
X14172120Y-9488800D01*
X14422120Y-9488800D02*
X14462120Y-9448800D01*
X14422120Y-9408800D01*
X14382120Y-9448800D01*
X14422120Y-9488800D01*
X12522200Y-7105200D02*
X12562200Y-7065200D01*
X12522200Y-7025200D01*
X12482200Y-7065200D01*
X12522200Y-7105200D01*
X12522200Y-7355200D02*
X12562200Y-7315200D01*
X12522200Y-7275200D01*
X12482200Y-7315200D01*
X12522200Y-7355200D01*
X16469200Y-7254700D02*
X16509200Y-7214700D01*
X16469200Y-7174700D01*
X16429200Y-7214700D01*
X16469200Y-7254700D01*
X16469200Y-7508700D02*
X16509200Y-7468700D01*
X16469200Y-7428700D01*
X16429200Y-7468700D01*
X16469200Y-7508700D01*
X16469200Y-7762700D02*
X16509200Y-7722700D01*
X16469200Y-7682700D01*
X16429200Y-7722700D01*
X16469200Y-7762700D01*
X16469200Y-8016700D02*
X16509200Y-7976700D01*
X16469200Y-7936700D01*
X16429200Y-7976700D01*
X16469200Y-8016700D01*
X16469200Y-8270700D02*
X16509200Y-8230700D01*
X16469200Y-8190700D01*
X16429200Y-8230700D01*
X16469200Y-8270700D01*
X16469200Y-8524700D02*
X16509200Y-8484700D01*
X16469200Y-8444700D01*
X16429200Y-8484700D01*
X16469200Y-8524700D01*
X16469200Y-8778700D02*
X16509200Y-8738700D01*
X16469200Y-8698700D01*
X16429200Y-8738700D01*
X16469200Y-8778700D01*
X16469200Y-9032700D02*
X16509200Y-8992700D01*
X16469200Y-8952700D01*
X16429200Y-8992700D01*
X16469200Y-9032700D01*
X16469200Y-9286700D02*
X16509200Y-9246700D01*
X16469200Y-9206700D01*
X16429200Y-9246700D01*
X16469200Y-9286700D01*
X16469200Y-9540700D02*
X16509200Y-9500700D01*
X16469200Y-9460700D01*
X16429200Y-9500700D01*
X16469200Y-9540700D01*
X17231200Y-7254700D02*
X17271200Y-7214700D01*
X17231200Y-7174700D01*
X17191200Y-7214700D01*
X17231200Y-7254700D01*
X17231200Y-7508700D02*
X17271200Y-7468700D01*
X17231200Y-7428700D01*
X17191200Y-7468700D01*
X17231200Y-7508700D01*
X17231200Y-7762700D02*
X17271200Y-7722700D01*
X17231200Y-7682700D01*
X17191200Y-7722700D01*
X17231200Y-7762700D01*
X17231200Y-8016700D02*
X17271200Y-7976700D01*
X17231200Y-7936700D01*
X17191200Y-7976700D01*
X17231200Y-8016700D01*
X17231200Y-8270700D02*
X17271200Y-8230700D01*
X17231200Y-8190700D01*
X17191200Y-8230700D01*
X17231200Y-8270700D01*
X17231200Y-8524700D02*
X17271200Y-8484700D01*
X17231200Y-8444700D01*
X17191200Y-8484700D01*
X17231200Y-8524700D01*
X17231200Y-8778700D02*
X17271200Y-8738700D01*
X17231200Y-8698700D01*
X17191200Y-8738700D01*
X17231200Y-8778700D01*
X17231200Y-9032700D02*
X17271200Y-8992700D01*
X17231200Y-8952700D01*
X17191200Y-8992700D01*
X17231200Y-9032700D01*
X17231200Y-9286700D02*
X17271200Y-9246700D01*
X17231200Y-9206700D01*
X17191200Y-9246700D01*
X17231200Y-9286700D01*
X17231200Y-9540700D02*
X17271200Y-9500700D01*
X17231200Y-9460700D01*
X17191200Y-9500700D01*
X17231200Y-9540700D01*
X15612350Y-6452400D02*
X15712350Y-6552400D01*
X15712350Y-6452400D02*
X15612350Y-6552400D01*
X15712350Y-6502400D02*
G75*
G03X15712350Y-6502400I-50000J0D01*
G01*
X15750850Y-6168400D02*
X15850850Y-6268400D01*
X15850850Y-6168400D02*
X15750850Y-6268400D01*
X15850850Y-6218400D02*
G75*
G03X15850850Y-6218400I-50000J0D01*
G01*
X15889350Y-6452400D02*
X15989350Y-6552400D01*
X15989350Y-6452400D02*
X15889350Y-6552400D01*
X15989350Y-6502400D02*
G75*
G03X15989350Y-6502400I-50000J0D01*
G01*
X16027850Y-6168400D02*
X16127850Y-6268400D01*
X16127850Y-6168400D02*
X16027850Y-6268400D01*
X16127850Y-6218400D02*
G75*
G03X16127850Y-6218400I-50000J0D01*
G01*
X16166350Y-6452400D02*
X16266350Y-6552400D01*
X16266350Y-6452400D02*
X16166350Y-6552400D01*
X16266350Y-6502400D02*
G75*
G03X16266350Y-6502400I-50000J0D01*
G01*
X16304850Y-6168400D02*
X16404850Y-6268400D01*
X16404850Y-6168400D02*
X16304850Y-6268400D01*
X16404850Y-6218400D02*
G75*
G03X16404850Y-6218400I-50000J0D01*
G01*
X16443350Y-6452400D02*
X16543350Y-6552400D01*
X16543350Y-6452400D02*
X16443350Y-6552400D01*
X16543350Y-6502400D02*
G75*
G03X16543350Y-6502400I-50000J0D01*
G01*
X16581850Y-6168400D02*
X16681850Y-6268400D01*
X16681850Y-6168400D02*
X16581850Y-6268400D01*
X16681850Y-6218400D02*
G75*
G03X16681850Y-6218400I-50000J0D01*
G01*
X16720350Y-6452400D02*
X16820350Y-6552400D01*
X16820350Y-6452400D02*
X16720350Y-6552400D01*
X16820350Y-6502400D02*
G75*
G03X16820350Y-6502400I-50000J0D01*
G01*
X12380200Y-6452400D02*
X12480200Y-6552400D01*
X12480200Y-6452400D02*
X12380200Y-6552400D01*
X12480200Y-6502400D02*
G75*
G03X12480200Y-6502400I-50000J0D01*
G01*
X12518700Y-6168400D02*
X12618700Y-6268400D01*
X12618700Y-6168400D02*
X12518700Y-6268400D01*
X12618700Y-6218400D02*
G75*
G03X12618700Y-6218400I-50000J0D01*
G01*
X12657200Y-6452400D02*
X12757200Y-6552400D01*
X12757200Y-6452400D02*
X12657200Y-6552400D01*
X12757200Y-6502400D02*
G75*
G03X12757200Y-6502400I-50000J0D01*
G01*
X12795700Y-6168400D02*
X12895700Y-6268400D01*
X12895700Y-6168400D02*
X12795700Y-6268400D01*
X12895700Y-6218400D02*
G75*
G03X12895700Y-6218400I-50000J0D01*
G01*
X12934200Y-6452400D02*
X13034200Y-6552400D01*
X13034200Y-6452400D02*
X12934200Y-6552400D01*
X13034200Y-6502400D02*
G75*
G03X13034200Y-6502400I-50000J0D01*
G01*
X13072700Y-6168400D02*
X13172700Y-6268400D01*
X13172700Y-6168400D02*
X13072700Y-6268400D01*
X13172700Y-6218400D02*
G75*
G03X13172700Y-6218400I-50000J0D01*
G01*
X13211200Y-6452400D02*
X13311200Y-6552400D01*
X13311200Y-6452400D02*
X13211200Y-6552400D01*
X13311200Y-6502400D02*
G75*
G03X13311200Y-6502400I-50000J0D01*
G01*
X13349700Y-6168400D02*
X13449700Y-6268400D01*
X13449700Y-6168400D02*
X13349700Y-6268400D01*
X13449700Y-6218400D02*
G75*
G03X13449700Y-6218400I-50000J0D01*
G01*
X13488200Y-6452400D02*
X13588200Y-6552400D01*
X13588200Y-6452400D02*
X13488200Y-6552400D01*
X13588200Y-6502400D02*
G75*
G03X13588200Y-6502400I-50000J0D01*
G01*
X9168000Y-10241000D02*
X9268000Y-10341000D01*
X9268000Y-10241000D02*
X9168000Y-10341000D01*
X9268000Y-10291000D02*
G75*
G03X9268000Y-10291000I-50000J0D01*
G01*
X9168000Y-10495000D02*
X9268000Y-10595000D01*
X9268000Y-10495000D02*
X9168000Y-10595000D01*
X9268000Y-10545000D02*
G75*
G03X9268000Y-10545000I-50000J0D01*
G01*
X17765400Y-7162160D02*
X17865400Y-7262160D01*
X17865400Y-7162160D02*
X17765400Y-7262160D01*
X17865400Y-7212160D02*
G75*
G03X17865400Y-7212160I-50000J0D01*
G01*
X17765400Y-7416160D02*
X17865400Y-7516160D01*
X17865400Y-7416160D02*
X17765400Y-7516160D01*
X17865400Y-7466160D02*
G75*
G03X17865400Y-7466160I-50000J0D01*
G01*
X17765400Y-7670160D02*
X17865400Y-7770160D01*
X17865400Y-7670160D02*
X17765400Y-7770160D01*
X17865400Y-7720160D02*
G75*
G03X17865400Y-7720160I-50000J0D01*
G01*
X17765400Y-7924160D02*
X17865400Y-8024160D01*
X17865400Y-7924160D02*
X17765400Y-8024160D01*
X17865400Y-7974160D02*
G75*
G03X17865400Y-7974160I-50000J0D01*
G01*
X17765400Y-8178160D02*
X17865400Y-8278160D01*
X17865400Y-8178160D02*
X17765400Y-8278160D01*
X17865400Y-8228160D02*
G75*
G03X17865400Y-8228160I-50000J0D01*
G01*
X17765400Y-8432160D02*
X17865400Y-8532160D01*
X17865400Y-8432160D02*
X17765400Y-8532160D01*
X17865400Y-8482160D02*
G75*
G03X17865400Y-8482160I-50000J0D01*
G01*
X17765400Y-8686160D02*
X17865400Y-8786160D01*
X17865400Y-8686160D02*
X17765400Y-8786160D01*
X17865400Y-8736160D02*
G75*
G03X17865400Y-8736160I-50000J0D01*
G01*
X17765400Y-8940160D02*
X17865400Y-9040160D01*
X17865400Y-8940160D02*
X17765400Y-9040160D01*
X17865400Y-8990160D02*
G75*
G03X17865400Y-8990160I-50000J0D01*
G01*
X17765400Y-9194160D02*
X17865400Y-9294160D01*
X17865400Y-9194160D02*
X17765400Y-9294160D01*
X17865400Y-9244160D02*
G75*
G03X17865400Y-9244160I-50000J0D01*
G01*
X17765400Y-9448160D02*
X17865400Y-9548160D01*
X17865400Y-9448160D02*
X17765400Y-9548160D01*
X17865400Y-9498160D02*
G75*
G03X17865400Y-9498160I-50000J0D01*
G01*
X18019400Y-7162160D02*
X18119400Y-7262160D01*
X18119400Y-7162160D02*
X18019400Y-7262160D01*
X18119400Y-7212160D02*
G75*
G03X18119400Y-7212160I-50000J0D01*
G01*
X18019400Y-7416160D02*
X18119400Y-7516160D01*
X18119400Y-7416160D02*
X18019400Y-7516160D01*
X18119400Y-7466160D02*
G75*
G03X18119400Y-7466160I-50000J0D01*
G01*
X18019400Y-7670160D02*
X18119400Y-7770160D01*
X18119400Y-7670160D02*
X18019400Y-7770160D01*
X18119400Y-7720160D02*
G75*
G03X18119400Y-7720160I-50000J0D01*
G01*
X18019400Y-7924160D02*
X18119400Y-8024160D01*
X18119400Y-7924160D02*
X18019400Y-8024160D01*
X18119400Y-7974160D02*
G75*
G03X18119400Y-7974160I-50000J0D01*
G01*
X18019400Y-8178160D02*
X18119400Y-8278160D01*
X18119400Y-8178160D02*
X18019400Y-8278160D01*
X18119400Y-8228160D02*
G75*
G03X18119400Y-8228160I-50000J0D01*
G01*
X18019400Y-8432160D02*
X18119400Y-8532160D01*
X18119400Y-8432160D02*
X18019400Y-8532160D01*
X18119400Y-8482160D02*
G75*
G03X18119400Y-8482160I-50000J0D01*
G01*
X18019400Y-8686160D02*
X18119400Y-8786160D01*
X18119400Y-8686160D02*
X18019400Y-8786160D01*
X18119400Y-8736160D02*
G75*
G03X18119400Y-8736160I-50000J0D01*
G01*
X18019400Y-8940160D02*
X18119400Y-9040160D01*
X18119400Y-8940160D02*
X18019400Y-9040160D01*
X18119400Y-8990160D02*
G75*
G03X18119400Y-8990160I-50000J0D01*
G01*
X18019400Y-9194160D02*
X18119400Y-9294160D01*
X18119400Y-9194160D02*
X18019400Y-9294160D01*
X18119400Y-9244160D02*
G75*
G03X18119400Y-9244160I-50000J0D01*
G01*
X18019400Y-9448160D02*
X18119400Y-9548160D01*
X18119400Y-9448160D02*
X18019400Y-9548160D01*
X18119400Y-9498160D02*
G75*
G03X18119400Y-9498160I-50000J0D01*
G01*
X8635400Y-6241200D02*
X8735400Y-6341200D01*
X8735400Y-6241200D02*
X8635400Y-6341200D01*
X8735400Y-6291200D02*
G75*
G03X8735400Y-6291200I-50000J0D01*
G01*
X8635400Y-6495200D02*
X8735400Y-6595200D01*
X8735400Y-6495200D02*
X8635400Y-6595200D01*
X8735400Y-6545200D02*
G75*
G03X8735400Y-6545200I-50000J0D01*
G01*
X8635400Y-6749200D02*
X8735400Y-6849200D01*
X8735400Y-6749200D02*
X8635400Y-6849200D01*
X8735400Y-6799200D02*
G75*
G03X8735400Y-6799200I-50000J0D01*
G01*
X8635400Y-7003200D02*
X8735400Y-7103200D01*
X8735400Y-7003200D02*
X8635400Y-7103200D01*
X8735400Y-7053200D02*
G75*
G03X8735400Y-7053200I-50000J0D01*
G01*
X8635400Y-7257200D02*
X8735400Y-7357200D01*
X8735400Y-7257200D02*
X8635400Y-7357200D01*
X8735400Y-7307200D02*
G75*
G03X8735400Y-7307200I-50000J0D01*
G01*
X8635400Y-7511200D02*
X8735400Y-7611200D01*
X8735400Y-7511200D02*
X8635400Y-7611200D01*
X8735400Y-7561200D02*
G75*
G03X8735400Y-7561200I-50000J0D01*
G01*
X8635400Y-7765200D02*
X8735400Y-7865200D01*
X8735400Y-7765200D02*
X8635400Y-7865200D01*
X8735400Y-7815200D02*
G75*
G03X8735400Y-7815200I-50000J0D01*
G01*
X8635400Y-8019200D02*
X8735400Y-8119200D01*
X8735400Y-8019200D02*
X8635400Y-8119200D01*
X8735400Y-8069200D02*
G75*
G03X8735400Y-8069200I-50000J0D01*
G01*
X8635400Y-8273200D02*
X8735400Y-8373200D01*
X8735400Y-8273200D02*
X8635400Y-8373200D01*
X8735400Y-8323200D02*
G75*
G03X8735400Y-8323200I-50000J0D01*
G01*
X8635400Y-8527200D02*
X8735400Y-8627200D01*
X8735400Y-8527200D02*
X8635400Y-8627200D01*
X8735400Y-8577200D02*
G75*
G03X8735400Y-8577200I-50000J0D01*
G01*
X8635400Y-8781200D02*
X8735400Y-8881200D01*
X8735400Y-8781200D02*
X8635400Y-8881200D01*
X8735400Y-8831200D02*
G75*
G03X8735400Y-8831200I-50000J0D01*
G01*
X8635400Y-9035200D02*
X8735400Y-9135200D01*
X8735400Y-9035200D02*
X8635400Y-9135200D01*
X8735400Y-9085200D02*
G75*
G03X8735400Y-9085200I-50000J0D01*
G01*
X8635400Y-9289200D02*
X8735400Y-9389200D01*
X8735400Y-9289200D02*
X8635400Y-9389200D01*
X8735400Y-9339200D02*
G75*
G03X8735400Y-9339200I-50000J0D01*
G01*
X8635400Y-9543200D02*
X8735400Y-9643200D01*
X8735400Y-9543200D02*
X8635400Y-9643200D01*
X8735400Y-9593200D02*
G75*
G03X8735400Y-9593200I-50000J0D01*
G01*
X8635400Y-9797200D02*
X8735400Y-9897200D01*
X8735400Y-9797200D02*
X8635400Y-9897200D01*
X8735400Y-9847200D02*
G75*
G03X8735400Y-9847200I-50000J0D01*
G01*
X8635400Y-10051200D02*
X8735400Y-10151200D01*
X8735400Y-10051200D02*
X8635400Y-10151200D01*
X8735400Y-10101200D02*
G75*
G03X8735400Y-10101200I-50000J0D01*
G01*
X8635400Y-10305200D02*
X8735400Y-10405200D01*
X8735400Y-10305200D02*
X8635400Y-10405200D01*
X8735400Y-10355200D02*
G75*
G03X8735400Y-10355200I-50000J0D01*
G01*
X8635400Y-10559200D02*
X8735400Y-10659200D01*
X8735400Y-10559200D02*
X8635400Y-10659200D01*
X8735400Y-10609200D02*
G75*
G03X8735400Y-10609200I-50000J0D01*
G01*
X8635400Y-10813200D02*
X8735400Y-10913200D01*
X8735400Y-10813200D02*
X8635400Y-10913200D01*
X8735400Y-10863200D02*
G75*
G03X8735400Y-10863200I-50000J0D01*
G01*
X8635400Y-11067200D02*
X8735400Y-11167200D01*
X8735400Y-11067200D02*
X8635400Y-11167200D01*
X8735400Y-11117200D02*
G75*
G03X8735400Y-11117200I-50000J0D01*
G01*
X8889400Y-6241200D02*
X8989400Y-6341200D01*
X8989400Y-6241200D02*
X8889400Y-6341200D01*
X8989400Y-6291200D02*
G75*
G03X8989400Y-6291200I-50000J0D01*
G01*
X8889400Y-6495200D02*
X8989400Y-6595200D01*
X8989400Y-6495200D02*
X8889400Y-6595200D01*
X8989400Y-6545200D02*
G75*
G03X8989400Y-6545200I-50000J0D01*
G01*
X8889400Y-6749200D02*
X8989400Y-6849200D01*
X8989400Y-6749200D02*
X8889400Y-6849200D01*
X8989400Y-6799200D02*
G75*
G03X8989400Y-6799200I-50000J0D01*
G01*
X8889400Y-7003200D02*
X8989400Y-7103200D01*
X8989400Y-7003200D02*
X8889400Y-7103200D01*
X8989400Y-7053200D02*
G75*
G03X8989400Y-7053200I-50000J0D01*
G01*
X8889400Y-7257200D02*
X8989400Y-7357200D01*
X8989400Y-7257200D02*
X8889400Y-7357200D01*
X8989400Y-7307200D02*
G75*
G03X8989400Y-7307200I-50000J0D01*
G01*
X8889400Y-7511200D02*
X8989400Y-7611200D01*
X8989400Y-7511200D02*
X8889400Y-7611200D01*
X8989400Y-7561200D02*
G75*
G03X8989400Y-7561200I-50000J0D01*
G01*
X8889400Y-7765200D02*
X8989400Y-7865200D01*
X8989400Y-7765200D02*
X8889400Y-7865200D01*
X8989400Y-7815200D02*
G75*
G03X8989400Y-7815200I-50000J0D01*
G01*
X8889400Y-8019200D02*
X8989400Y-8119200D01*
X8989400Y-8019200D02*
X8889400Y-8119200D01*
X8989400Y-8069200D02*
G75*
G03X8989400Y-8069200I-50000J0D01*
G01*
X8889400Y-8273200D02*
X8989400Y-8373200D01*
X8989400Y-8273200D02*
X8889400Y-8373200D01*
X8989400Y-8323200D02*
G75*
G03X8989400Y-8323200I-50000J0D01*
G01*
X8889400Y-8527200D02*
X8989400Y-8627200D01*
X8989400Y-8527200D02*
X8889400Y-8627200D01*
X8989400Y-8577200D02*
G75*
G03X8989400Y-8577200I-50000J0D01*
G01*
X8889400Y-8781200D02*
X8989400Y-8881200D01*
X8989400Y-8781200D02*
X8889400Y-8881200D01*
X8989400Y-8831200D02*
G75*
G03X8989400Y-8831200I-50000J0D01*
G01*
X8889400Y-9035200D02*
X8989400Y-9135200D01*
X8989400Y-9035200D02*
X8889400Y-9135200D01*
X8989400Y-9085200D02*
G75*
G03X8989400Y-9085200I-50000J0D01*
G01*
X8889400Y-9289200D02*
X8989400Y-9389200D01*
X8989400Y-9289200D02*
X8889400Y-9389200D01*
X8989400Y-9339200D02*
G75*
G03X8989400Y-9339200I-50000J0D01*
G01*
X8889400Y-9543200D02*
X8989400Y-9643200D01*
X8989400Y-9543200D02*
X8889400Y-9643200D01*
X8989400Y-9593200D02*
G75*
G03X8989400Y-9593200I-50000J0D01*
G01*
X8889400Y-9797200D02*
X8989400Y-9897200D01*
X8989400Y-9797200D02*
X8889400Y-9897200D01*
X8989400Y-9847200D02*
G75*
G03X8989400Y-9847200I-50000J0D01*
G01*
X8889400Y-10051200D02*
X8989400Y-10151200D01*
X8989400Y-10051200D02*
X8889400Y-10151200D01*
X8989400Y-10101200D02*
G75*
G03X8989400Y-10101200I-50000J0D01*
G01*
X8889400Y-10305200D02*
X8989400Y-10405200D01*
X8989400Y-10305200D02*
X8889400Y-10405200D01*
X8989400Y-10355200D02*
G75*
G03X8989400Y-10355200I-50000J0D01*
G01*
X8889400Y-10559200D02*
X8989400Y-10659200D01*
X8989400Y-10559200D02*
X8889400Y-10659200D01*
X8989400Y-10609200D02*
G75*
G03X8989400Y-10609200I-50000J0D01*
G01*
X8889400Y-10813200D02*
X8989400Y-10913200D01*
X8989400Y-10813200D02*
X8889400Y-10913200D01*
X8989400Y-10863200D02*
G75*
G03X8989400Y-10863200I-50000J0D01*
G01*
X8889400Y-11067200D02*
X8989400Y-11167200D01*
X8989400Y-11067200D02*
X8889400Y-11167200D01*
X8989400Y-11117200D02*
G75*
G03X8989400Y-11117200I-50000J0D01*
G01*
X10090240Y-6102440D02*
X10260240Y-6272440D01*
X10260240Y-6102440D02*
X10090240Y-6272440D01*
X10175240Y-6102440D02*
X10175240Y-6272440D01*
X10090240Y-6187440D02*
X10260240Y-6187440D01*
X9545240Y-6057440D02*
X9805240Y-6317440D01*
X9805240Y-6057440D02*
X9545240Y-6317440D01*
X9767165Y-6279365D02*
X9767165Y-6095515D01*
X9583315Y-6095515D01*
X9583315Y-6279365D01*
X9767165Y-6279365D01*
X10045240Y-5607440D02*
X10305240Y-5867440D01*
X10305240Y-5607440D02*
X10045240Y-5867440D01*
X10267165Y-5829365D02*
X10267165Y-5645515D01*
X10083315Y-5645515D01*
X10083315Y-5829365D01*
X10267165Y-5829365D01*
X10545240Y-6057440D02*
X10805240Y-6317440D01*
X10805240Y-6057440D02*
X10545240Y-6317440D01*
X10767165Y-6279365D02*
X10767165Y-6095515D01*
X10583315Y-6095515D01*
X10583315Y-6279365D01*
X10767165Y-6279365D01*
X14806350Y-6200400D02*
X15126350Y-6520400D01*
X15126350Y-6200400D02*
X14806350Y-6520400D01*
X14966350Y-6520400D02*
X15126350Y-6360400D01*
X14966350Y-6200400D01*
X14806350Y-6360400D01*
X14966350Y-6520400D01*
X17306350Y-6200400D02*
X17626350Y-6520400D01*
X17626350Y-6200400D02*
X17306350Y-6520400D01*
X17466350Y-6520400D02*
X17626350Y-6360400D01*
X17466350Y-6200400D01*
X17306350Y-6360400D01*
X17466350Y-6520400D01*
X11574200Y-6200400D02*
X11894200Y-6520400D01*
X11894200Y-6200400D02*
X11574200Y-6520400D01*
X11734200Y-6520400D02*
X11894200Y-6360400D01*
X11734200Y-6200400D01*
X11574200Y-6360400D01*
X11734200Y-6520400D01*
X14074200Y-6200400D02*
X14394200Y-6520400D01*
X14394200Y-6200400D02*
X14074200Y-6520400D01*
X14234200Y-6520400D02*
X14394200Y-6360400D01*
X14234200Y-6200400D01*
X14074200Y-6360400D01*
X14234200Y-6520400D01*
D12*
X8761428Y-12490714D02*
X8761428Y-12190714D01*
X8832857Y-12190714D01*
X8875714Y-12205000D01*
X8904286Y-12233571D01*
X8918571Y-12262143D01*
X8932857Y-12319286D01*
X8932857Y-12362143D01*
X8918571Y-12419286D01*
X8904286Y-12447857D01*
X8875714Y-12476429D01*
X8832857Y-12490714D01*
X8761428Y-12490714D01*
X9061428Y-12490714D02*
X9061428Y-12290714D01*
X9061428Y-12347857D02*
X9075714Y-12319286D01*
X9090000Y-12305000D01*
X9118571Y-12290714D01*
X9147143Y-12290714D01*
X9247143Y-12490714D02*
X9247143Y-12290714D01*
X9247143Y-12190714D02*
X9232857Y-12205000D01*
X9247143Y-12219286D01*
X9261428Y-12205000D01*
X9247143Y-12190714D01*
X9247143Y-12219286D01*
X9432857Y-12490714D02*
X9404286Y-12476429D01*
X9390000Y-12447857D01*
X9390000Y-12190714D01*
X9590000Y-12490714D02*
X9561428Y-12476429D01*
X9547143Y-12447857D01*
X9547143Y-12190714D01*
X9932857Y-12490714D02*
X9932857Y-12190714D01*
X10032857Y-12405000D01*
X10132857Y-12190714D01*
X10132857Y-12490714D01*
X10404286Y-12490714D02*
X10404286Y-12333571D01*
X10390000Y-12305000D01*
X10361428Y-12290714D01*
X10304286Y-12290714D01*
X10275714Y-12305000D01*
X10404286Y-12476429D02*
X10375714Y-12490714D01*
X10304286Y-12490714D01*
X10275714Y-12476429D01*
X10261428Y-12447857D01*
X10261428Y-12419286D01*
X10275714Y-12390714D01*
X10304286Y-12376429D01*
X10375714Y-12376429D01*
X10404286Y-12362143D01*
X10547143Y-12290714D02*
X10547143Y-12590714D01*
X10547143Y-12305000D02*
X10575714Y-12290714D01*
X10632857Y-12290714D01*
X10661428Y-12305000D01*
X10675714Y-12319286D01*
X10690000Y-12347857D01*
X10690000Y-12433571D01*
X10675714Y-12462143D01*
X10661428Y-12476429D01*
X10632857Y-12490714D01*
X10575714Y-12490714D01*
X10547143Y-12476429D01*
X10818571Y-12462143D02*
X10832857Y-12476429D01*
X10818571Y-12490714D01*
X10804286Y-12476429D01*
X10818571Y-12462143D01*
X10818571Y-12490714D01*
X10818571Y-12305000D02*
X10832857Y-12319286D01*
X10818571Y-12333571D01*
X10804286Y-12319286D01*
X10818571Y-12305000D01*
X10818571Y-12333571D01*
X8435000Y-12965000D02*
X8475000Y-13005000D01*
X8475000Y-12965000D02*
X8435000Y-13005000D01*
X8818571Y-12820714D02*
X8847143Y-12820714D01*
X8875714Y-12835000D01*
X8890000Y-12849286D01*
X8904286Y-12877857D01*
X8918571Y-12935000D01*
X8918571Y-13006429D01*
X8904286Y-13063571D01*
X8890000Y-13092143D01*
X8875714Y-13106429D01*
X8847143Y-13120714D01*
X8818571Y-13120714D01*
X8790000Y-13106429D01*
X8775714Y-13092143D01*
X8761428Y-13063571D01*
X8747143Y-13006429D01*
X8747143Y-12935000D01*
X8761428Y-12877857D01*
X8775714Y-12849286D01*
X8790000Y-12835000D01*
X8818571Y-12820714D01*
X9047143Y-13092143D02*
X9061428Y-13106429D01*
X9047143Y-13120714D01*
X9032857Y-13106429D01*
X9047143Y-13092143D01*
X9047143Y-13120714D01*
X9318571Y-12920714D02*
X9318571Y-13120714D01*
X9247143Y-12806429D02*
X9175714Y-13020714D01*
X9361428Y-13020714D01*
X9532857Y-12820714D02*
X9561428Y-12820714D01*
X9590000Y-12835000D01*
X9604286Y-12849286D01*
X9618571Y-12877857D01*
X9632857Y-12935000D01*
X9632857Y-13006429D01*
X9618571Y-13063571D01*
X9604286Y-13092143D01*
X9590000Y-13106429D01*
X9561428Y-13120714D01*
X9532857Y-13120714D01*
X9504286Y-13106429D01*
X9490000Y-13092143D01*
X9475714Y-13063571D01*
X9461428Y-13006429D01*
X9461428Y-12935000D01*
X9475714Y-12877857D01*
X9490000Y-12849286D01*
X9504286Y-12835000D01*
X9532857Y-12820714D01*
X9761428Y-13120714D02*
X9761428Y-12920714D01*
X9761428Y-12949286D02*
X9775714Y-12935000D01*
X9804286Y-12920714D01*
X9847143Y-12920714D01*
X9875714Y-12935000D01*
X9890000Y-12963571D01*
X9890000Y-13120714D01*
X9890000Y-12963571D02*
X9904286Y-12935000D01*
X9932857Y-12920714D01*
X9975714Y-12920714D01*
X10004286Y-12935000D01*
X10018571Y-12963571D01*
X10018571Y-13120714D01*
X10161428Y-13120714D02*
X10161428Y-12920714D01*
X10161428Y-12949286D02*
X10175714Y-12935000D01*
X10204286Y-12920714D01*
X10247143Y-12920714D01*
X10275714Y-12935000D01*
X10290000Y-12963571D01*
X10290000Y-13120714D01*
X10290000Y-12963571D02*
X10304286Y-12935000D01*
X10332857Y-12920714D01*
X10375714Y-12920714D01*
X10404286Y-12935000D01*
X10418571Y-12963571D01*
X10418571Y-13120714D01*
X11004286Y-12806429D02*
X10747143Y-13192143D01*
X11390000Y-12820714D02*
X11418571Y-12820714D01*
X11447143Y-12835000D01*
X11461428Y-12849286D01*
X11475714Y-12877857D01*
X11490000Y-12935000D01*
X11490000Y-13006429D01*
X11475714Y-13063571D01*
X11461428Y-13092143D01*
X11447143Y-13106429D01*
X11418571Y-13120714D01*
X11390000Y-13120714D01*
X11361428Y-13106429D01*
X11347143Y-13092143D01*
X11332857Y-13063571D01*
X11318571Y-13006429D01*
X11318571Y-12935000D01*
X11332857Y-12877857D01*
X11347143Y-12849286D01*
X11361428Y-12835000D01*
X11390000Y-12820714D01*
X11618571Y-13092143D02*
X11632857Y-13106429D01*
X11618571Y-13120714D01*
X11604286Y-13106429D01*
X11618571Y-13092143D01*
X11618571Y-13120714D01*
X11818571Y-12820714D02*
X11847143Y-12820714D01*
X11875714Y-12835000D01*
X11890000Y-12849286D01*
X11904286Y-12877857D01*
X11918571Y-12935000D01*
X11918571Y-13006429D01*
X11904286Y-13063571D01*
X11890000Y-13092143D01*
X11875714Y-13106429D01*
X11847143Y-13120714D01*
X11818571Y-13120714D01*
X11790000Y-13106429D01*
X11775714Y-13092143D01*
X11761428Y-13063571D01*
X11747143Y-13006429D01*
X11747143Y-12935000D01*
X11761428Y-12877857D01*
X11775714Y-12849286D01*
X11790000Y-12835000D01*
X11818571Y-12820714D01*
X12204286Y-13120714D02*
X12032857Y-13120714D01*
X12118571Y-13120714D02*
X12118571Y-12820714D01*
X12090000Y-12863571D01*
X12061428Y-12892143D01*
X12032857Y-12906429D01*
X12461428Y-12820714D02*
X12404286Y-12820714D01*
X12375714Y-12835000D01*
X12361428Y-12849286D01*
X12332857Y-12892143D01*
X12318571Y-12949286D01*
X12318571Y-13063571D01*
X12332857Y-13092143D01*
X12347143Y-13106429D01*
X12375714Y-13120714D01*
X12432857Y-13120714D01*
X12461428Y-13106429D01*
X12475714Y-13092143D01*
X12490000Y-13063571D01*
X12490000Y-12992143D01*
X12475714Y-12963571D01*
X12461428Y-12949286D01*
X12432857Y-12935000D01*
X12375714Y-12935000D01*
X12347143Y-12949286D01*
X12332857Y-12963571D01*
X12318571Y-12992143D01*
X12604286Y-12820714D02*
X12604286Y-12877857D01*
X12718571Y-12820714D02*
X12718571Y-12877857D01*
X13161428Y-13235000D02*
X13147143Y-13220714D01*
X13118571Y-13177857D01*
X13104286Y-13149286D01*
X13090000Y-13106429D01*
X13075714Y-13035000D01*
X13075714Y-12977857D01*
X13090000Y-12906429D01*
X13104286Y-12863571D01*
X13118571Y-12835000D01*
X13147143Y-12792143D01*
X13161428Y-12777857D01*
X13261428Y-12849286D02*
X13275714Y-12835000D01*
X13304286Y-12820714D01*
X13375714Y-12820714D01*
X13404286Y-12835000D01*
X13418571Y-12849286D01*
X13432857Y-12877857D01*
X13432857Y-12906429D01*
X13418571Y-12949286D01*
X13247143Y-13120714D01*
X13432857Y-13120714D01*
X13690000Y-12820714D02*
X13632857Y-12820714D01*
X13604286Y-12835000D01*
X13590000Y-12849286D01*
X13561428Y-12892143D01*
X13547143Y-12949286D01*
X13547143Y-13063571D01*
X13561428Y-13092143D01*
X13575714Y-13106429D01*
X13604286Y-13120714D01*
X13661428Y-13120714D01*
X13690000Y-13106429D01*
X13704286Y-13092143D01*
X13718571Y-13063571D01*
X13718571Y-12992143D01*
X13704286Y-12963571D01*
X13690000Y-12949286D01*
X13661428Y-12935000D01*
X13604286Y-12935000D01*
X13575714Y-12949286D01*
X13561428Y-12963571D01*
X13547143Y-12992143D01*
X13975714Y-12920714D02*
X13975714Y-13120714D01*
X13904286Y-12806429D02*
X13832857Y-13020714D01*
X14018571Y-13020714D01*
X14361428Y-13120714D02*
X14361428Y-12820714D01*
X14490000Y-13120714D02*
X14490000Y-12963571D01*
X14475714Y-12935000D01*
X14447143Y-12920714D01*
X14404286Y-12920714D01*
X14375714Y-12935000D01*
X14361428Y-12949286D01*
X14675714Y-13120714D02*
X14647143Y-13106429D01*
X14632857Y-13092143D01*
X14618571Y-13063571D01*
X14618571Y-12977857D01*
X14632857Y-12949286D01*
X14647143Y-12935000D01*
X14675714Y-12920714D01*
X14718571Y-12920714D01*
X14747143Y-12935000D01*
X14761428Y-12949286D01*
X14775714Y-12977857D01*
X14775714Y-13063571D01*
X14761428Y-13092143D01*
X14747143Y-13106429D01*
X14718571Y-13120714D01*
X14675714Y-13120714D01*
X14947143Y-13120714D02*
X14918571Y-13106429D01*
X14904286Y-13077857D01*
X14904286Y-12820714D01*
X15175714Y-13106429D02*
X15147143Y-13120714D01*
X15090000Y-13120714D01*
X15061428Y-13106429D01*
X15047143Y-13077857D01*
X15047143Y-12963571D01*
X15061428Y-12935000D01*
X15090000Y-12920714D01*
X15147143Y-12920714D01*
X15175714Y-12935000D01*
X15190000Y-12963571D01*
X15190000Y-12992143D01*
X15047143Y-13020714D01*
X15304286Y-13106429D02*
X15332857Y-13120714D01*
X15390000Y-13120714D01*
X15418571Y-13106429D01*
X15432857Y-13077857D01*
X15432857Y-13063571D01*
X15418571Y-13035000D01*
X15390000Y-13020714D01*
X15347143Y-13020714D01*
X15318571Y-13006429D01*
X15304286Y-12977857D01*
X15304286Y-12963571D01*
X15318571Y-12935000D01*
X15347143Y-12920714D01*
X15390000Y-12920714D01*
X15418571Y-12935000D01*
X15532857Y-13235000D02*
X15547143Y-13220714D01*
X15575714Y-13177857D01*
X15590000Y-13149286D01*
X15604286Y-13106429D01*
X15618571Y-13035000D01*
X15618571Y-12977857D01*
X15604286Y-12906429D01*
X15590000Y-12863571D01*
X15575714Y-12835000D01*
X15547143Y-12792143D01*
X15532857Y-12777857D01*
X8475000Y-13381000D02*
G75*
G03X8475000Y-13381000I-25400J0D01*
G01*
X8818571Y-13216714D02*
X8847143Y-13216714D01*
X8875714Y-13231000D01*
X8890000Y-13245286D01*
X8904286Y-13273857D01*
X8918571Y-13331000D01*
X8918571Y-13402429D01*
X8904286Y-13459571D01*
X8890000Y-13488143D01*
X8875714Y-13502429D01*
X8847143Y-13516714D01*
X8818571Y-13516714D01*
X8790000Y-13502429D01*
X8775714Y-13488143D01*
X8761428Y-13459571D01*
X8747143Y-13402429D01*
X8747143Y-13331000D01*
X8761428Y-13273857D01*
X8775714Y-13245286D01*
X8790000Y-13231000D01*
X8818571Y-13216714D01*
X9047143Y-13488143D02*
X9061428Y-13502429D01*
X9047143Y-13516714D01*
X9032857Y-13502429D01*
X9047143Y-13488143D01*
X9047143Y-13516714D01*
X9332857Y-13216714D02*
X9190000Y-13216714D01*
X9175714Y-13359571D01*
X9190000Y-13345286D01*
X9218571Y-13331000D01*
X9290000Y-13331000D01*
X9318571Y-13345286D01*
X9332857Y-13359571D01*
X9347143Y-13388143D01*
X9347143Y-13459571D01*
X9332857Y-13488143D01*
X9318571Y-13502429D01*
X9290000Y-13516714D01*
X9218571Y-13516714D01*
X9190000Y-13502429D01*
X9175714Y-13488143D01*
X9632857Y-13516714D02*
X9461428Y-13516714D01*
X9547143Y-13516714D02*
X9547143Y-13216714D01*
X9518571Y-13259571D01*
X9490000Y-13288143D01*
X9461428Y-13302429D01*
X9761428Y-13516714D02*
X9761428Y-13316714D01*
X9761428Y-13345286D02*
X9775714Y-13331000D01*
X9804286Y-13316714D01*
X9847143Y-13316714D01*
X9875714Y-13331000D01*
X9890000Y-13359571D01*
X9890000Y-13516714D01*
X9890000Y-13359571D02*
X9904286Y-13331000D01*
X9932857Y-13316714D01*
X9975714Y-13316714D01*
X10004286Y-13331000D01*
X10018571Y-13359571D01*
X10018571Y-13516714D01*
X10161428Y-13516714D02*
X10161428Y-13316714D01*
X10161428Y-13345286D02*
X10175714Y-13331000D01*
X10204286Y-13316714D01*
X10247143Y-13316714D01*
X10275714Y-13331000D01*
X10290000Y-13359571D01*
X10290000Y-13516714D01*
X10290000Y-13359571D02*
X10304286Y-13331000D01*
X10332857Y-13316714D01*
X10375714Y-13316714D01*
X10404286Y-13331000D01*
X10418571Y-13359571D01*
X10418571Y-13516714D01*
X11004286Y-13202429D02*
X10747143Y-13588143D01*
X11390000Y-13216714D02*
X11418571Y-13216714D01*
X11447143Y-13231000D01*
X11461428Y-13245286D01*
X11475714Y-13273857D01*
X11490000Y-13331000D01*
X11490000Y-13402429D01*
X11475714Y-13459571D01*
X11461428Y-13488143D01*
X11447143Y-13502429D01*
X11418571Y-13516714D01*
X11390000Y-13516714D01*
X11361428Y-13502429D01*
X11347143Y-13488143D01*
X11332857Y-13459571D01*
X11318571Y-13402429D01*
X11318571Y-13331000D01*
X11332857Y-13273857D01*
X11347143Y-13245286D01*
X11361428Y-13231000D01*
X11390000Y-13216714D01*
X11618571Y-13488143D02*
X11632857Y-13502429D01*
X11618571Y-13516714D01*
X11604286Y-13502429D01*
X11618571Y-13488143D01*
X11618571Y-13516714D01*
X11818571Y-13216714D02*
X11847143Y-13216714D01*
X11875714Y-13231000D01*
X11890000Y-13245286D01*
X11904286Y-13273857D01*
X11918571Y-13331000D01*
X11918571Y-13402429D01*
X11904286Y-13459571D01*
X11890000Y-13488143D01*
X11875714Y-13502429D01*
X11847143Y-13516714D01*
X11818571Y-13516714D01*
X11790000Y-13502429D01*
X11775714Y-13488143D01*
X11761428Y-13459571D01*
X11747143Y-13402429D01*
X11747143Y-13331000D01*
X11761428Y-13273857D01*
X11775714Y-13245286D01*
X11790000Y-13231000D01*
X11818571Y-13216714D01*
X12032857Y-13245286D02*
X12047143Y-13231000D01*
X12075714Y-13216714D01*
X12147143Y-13216714D01*
X12175714Y-13231000D01*
X12190000Y-13245286D01*
X12204286Y-13273857D01*
X12204286Y-13302429D01*
X12190000Y-13345286D01*
X12018571Y-13516714D01*
X12204286Y-13516714D01*
X12390000Y-13216714D02*
X12418571Y-13216714D01*
X12447143Y-13231000D01*
X12461428Y-13245286D01*
X12475714Y-13273857D01*
X12490000Y-13331000D01*
X12490000Y-13402429D01*
X12475714Y-13459571D01*
X12461428Y-13488143D01*
X12447143Y-13502429D01*
X12418571Y-13516714D01*
X12390000Y-13516714D01*
X12361428Y-13502429D01*
X12347143Y-13488143D01*
X12332857Y-13459571D01*
X12318571Y-13402429D01*
X12318571Y-13331000D01*
X12332857Y-13273857D01*
X12347143Y-13245286D01*
X12361428Y-13231000D01*
X12390000Y-13216714D01*
X12604286Y-13216714D02*
X12604286Y-13273857D01*
X12718571Y-13216714D02*
X12718571Y-13273857D01*
X13161428Y-13631000D02*
X13147143Y-13616714D01*
X13118571Y-13573857D01*
X13104286Y-13545286D01*
X13090000Y-13502429D01*
X13075714Y-13431000D01*
X13075714Y-13373857D01*
X13090000Y-13302429D01*
X13104286Y-13259571D01*
X13118571Y-13231000D01*
X13147143Y-13188143D01*
X13161428Y-13173857D01*
X13418571Y-13216714D02*
X13275714Y-13216714D01*
X13261428Y-13359571D01*
X13275714Y-13345286D01*
X13304286Y-13331000D01*
X13375714Y-13331000D01*
X13404286Y-13345286D01*
X13418571Y-13359571D01*
X13432857Y-13388143D01*
X13432857Y-13459571D01*
X13418571Y-13488143D01*
X13404286Y-13502429D01*
X13375714Y-13516714D01*
X13304286Y-13516714D01*
X13275714Y-13502429D01*
X13261428Y-13488143D01*
X13790000Y-13516714D02*
X13790000Y-13216714D01*
X13918571Y-13516714D02*
X13918571Y-13359571D01*
X13904286Y-13331000D01*
X13875714Y-13316714D01*
X13832857Y-13316714D01*
X13804286Y-13331000D01*
X13790000Y-13345286D01*
X14104286Y-13516714D02*
X14075714Y-13502429D01*
X14061428Y-13488143D01*
X14047143Y-13459571D01*
X14047143Y-13373857D01*
X14061428Y-13345286D01*
X14075714Y-13331000D01*
X14104286Y-13316714D01*
X14147143Y-13316714D01*
X14175714Y-13331000D01*
X14190000Y-13345286D01*
X14204286Y-13373857D01*
X14204286Y-13459571D01*
X14190000Y-13488143D01*
X14175714Y-13502429D01*
X14147143Y-13516714D01*
X14104286Y-13516714D01*
X14375714Y-13516714D02*
X14347143Y-13502429D01*
X14332857Y-13473857D01*
X14332857Y-13216714D01*
X14604286Y-13502429D02*
X14575714Y-13516714D01*
X14518571Y-13516714D01*
X14490000Y-13502429D01*
X14475714Y-13473857D01*
X14475714Y-13359571D01*
X14490000Y-13331000D01*
X14518571Y-13316714D01*
X14575714Y-13316714D01*
X14604286Y-13331000D01*
X14618571Y-13359571D01*
X14618571Y-13388143D01*
X14475714Y-13416714D01*
X14732857Y-13502429D02*
X14761428Y-13516714D01*
X14818571Y-13516714D01*
X14847143Y-13502429D01*
X14861428Y-13473857D01*
X14861428Y-13459571D01*
X14847143Y-13431000D01*
X14818571Y-13416714D01*
X14775714Y-13416714D01*
X14747143Y-13402429D01*
X14732857Y-13373857D01*
X14732857Y-13359571D01*
X14747143Y-13331000D01*
X14775714Y-13316714D01*
X14818571Y-13316714D01*
X14847143Y-13331000D01*
X14961428Y-13631000D02*
X14975714Y-13616714D01*
X15004286Y-13573857D01*
X15018571Y-13545286D01*
X15032857Y-13502429D01*
X15047143Y-13431000D01*
X15047143Y-13373857D01*
X15032857Y-13302429D01*
X15018571Y-13259571D01*
X15004286Y-13231000D01*
X14975714Y-13188143D01*
X14961428Y-13173857D01*
X8440000Y-13742000D02*
X8440000Y-13812000D01*
X8405000Y-13777000D02*
X8475000Y-13777000D01*
X8818571Y-13612714D02*
X8847143Y-13612714D01*
X8875714Y-13627000D01*
X8890000Y-13641286D01*
X8904286Y-13669857D01*
X8918571Y-13727000D01*
X8918571Y-13798429D01*
X8904286Y-13855571D01*
X8890000Y-13884143D01*
X8875714Y-13898429D01*
X8847143Y-13912714D01*
X8818571Y-13912714D01*
X8790000Y-13898429D01*
X8775714Y-13884143D01*
X8761428Y-13855571D01*
X8747143Y-13798429D01*
X8747143Y-13727000D01*
X8761428Y-13669857D01*
X8775714Y-13641286D01*
X8790000Y-13627000D01*
X8818571Y-13612714D01*
X9047143Y-13884143D02*
X9061428Y-13898429D01*
X9047143Y-13912714D01*
X9032857Y-13898429D01*
X9047143Y-13884143D01*
X9047143Y-13912714D01*
X9161428Y-13612714D02*
X9361428Y-13612714D01*
X9232857Y-13912714D01*
X9532857Y-13612714D02*
X9561428Y-13612714D01*
X9590000Y-13627000D01*
X9604286Y-13641286D01*
X9618571Y-13669857D01*
X9632857Y-13727000D01*
X9632857Y-13798429D01*
X9618571Y-13855571D01*
X9604286Y-13884143D01*
X9590000Y-13898429D01*
X9561428Y-13912714D01*
X9532857Y-13912714D01*
X9504286Y-13898429D01*
X9490000Y-13884143D01*
X9475714Y-13855571D01*
X9461428Y-13798429D01*
X9461428Y-13727000D01*
X9475714Y-13669857D01*
X9490000Y-13641286D01*
X9504286Y-13627000D01*
X9532857Y-13612714D01*
X9761428Y-13912714D02*
X9761428Y-13712714D01*
X9761428Y-13741286D02*
X9775714Y-13727000D01*
X9804286Y-13712714D01*
X9847143Y-13712714D01*
X9875714Y-13727000D01*
X9890000Y-13755571D01*
X9890000Y-13912714D01*
X9890000Y-13755571D02*
X9904286Y-13727000D01*
X9932857Y-13712714D01*
X9975714Y-13712714D01*
X10004286Y-13727000D01*
X10018571Y-13755571D01*
X10018571Y-13912714D01*
X10161428Y-13912714D02*
X10161428Y-13712714D01*
X10161428Y-13741286D02*
X10175714Y-13727000D01*
X10204286Y-13712714D01*
X10247143Y-13712714D01*
X10275714Y-13727000D01*
X10290000Y-13755571D01*
X10290000Y-13912714D01*
X10290000Y-13755571D02*
X10304286Y-13727000D01*
X10332857Y-13712714D01*
X10375714Y-13712714D01*
X10404286Y-13727000D01*
X10418571Y-13755571D01*
X10418571Y-13912714D01*
X11004286Y-13598429D02*
X10747143Y-13984143D01*
X11390000Y-13612714D02*
X11418571Y-13612714D01*
X11447143Y-13627000D01*
X11461428Y-13641286D01*
X11475714Y-13669857D01*
X11490000Y-13727000D01*
X11490000Y-13798429D01*
X11475714Y-13855571D01*
X11461428Y-13884143D01*
X11447143Y-13898429D01*
X11418571Y-13912714D01*
X11390000Y-13912714D01*
X11361428Y-13898429D01*
X11347143Y-13884143D01*
X11332857Y-13855571D01*
X11318571Y-13798429D01*
X11318571Y-13727000D01*
X11332857Y-13669857D01*
X11347143Y-13641286D01*
X11361428Y-13627000D01*
X11390000Y-13612714D01*
X11618571Y-13884143D02*
X11632857Y-13898429D01*
X11618571Y-13912714D01*
X11604286Y-13898429D01*
X11618571Y-13884143D01*
X11618571Y-13912714D01*
X11818571Y-13612714D02*
X11847143Y-13612714D01*
X11875714Y-13627000D01*
X11890000Y-13641286D01*
X11904286Y-13669857D01*
X11918571Y-13727000D01*
X11918571Y-13798429D01*
X11904286Y-13855571D01*
X11890000Y-13884143D01*
X11875714Y-13898429D01*
X11847143Y-13912714D01*
X11818571Y-13912714D01*
X11790000Y-13898429D01*
X11775714Y-13884143D01*
X11761428Y-13855571D01*
X11747143Y-13798429D01*
X11747143Y-13727000D01*
X11761428Y-13669857D01*
X11775714Y-13641286D01*
X11790000Y-13627000D01*
X11818571Y-13612714D01*
X12032857Y-13641286D02*
X12047143Y-13627000D01*
X12075714Y-13612714D01*
X12147143Y-13612714D01*
X12175714Y-13627000D01*
X12190000Y-13641286D01*
X12204286Y-13669857D01*
X12204286Y-13698429D01*
X12190000Y-13741286D01*
X12018571Y-13912714D01*
X12204286Y-13912714D01*
X12375714Y-13741286D02*
X12347143Y-13727000D01*
X12332857Y-13712714D01*
X12318571Y-13684143D01*
X12318571Y-13669857D01*
X12332857Y-13641286D01*
X12347143Y-13627000D01*
X12375714Y-13612714D01*
X12432857Y-13612714D01*
X12461428Y-13627000D01*
X12475714Y-13641286D01*
X12490000Y-13669857D01*
X12490000Y-13684143D01*
X12475714Y-13712714D01*
X12461428Y-13727000D01*
X12432857Y-13741286D01*
X12375714Y-13741286D01*
X12347143Y-13755571D01*
X12332857Y-13769857D01*
X12318571Y-13798429D01*
X12318571Y-13855571D01*
X12332857Y-13884143D01*
X12347143Y-13898429D01*
X12375714Y-13912714D01*
X12432857Y-13912714D01*
X12461428Y-13898429D01*
X12475714Y-13884143D01*
X12490000Y-13855571D01*
X12490000Y-13798429D01*
X12475714Y-13769857D01*
X12461428Y-13755571D01*
X12432857Y-13741286D01*
X12604286Y-13612714D02*
X12604286Y-13669857D01*
X12718571Y-13612714D02*
X12718571Y-13669857D01*
X13161428Y-14027000D02*
X13147143Y-14012714D01*
X13118571Y-13969857D01*
X13104286Y-13941286D01*
X13090000Y-13898429D01*
X13075714Y-13827000D01*
X13075714Y-13769857D01*
X13090000Y-13698429D01*
X13104286Y-13655571D01*
X13118571Y-13627000D01*
X13147143Y-13584143D01*
X13161428Y-13569857D01*
X13404286Y-13612714D02*
X13347143Y-13612714D01*
X13318571Y-13627000D01*
X13304286Y-13641286D01*
X13275714Y-13684143D01*
X13261428Y-13741286D01*
X13261428Y-13855571D01*
X13275714Y-13884143D01*
X13290000Y-13898429D01*
X13318571Y-13912714D01*
X13375714Y-13912714D01*
X13404286Y-13898429D01*
X13418571Y-13884143D01*
X13432857Y-13855571D01*
X13432857Y-13784143D01*
X13418571Y-13755571D01*
X13404286Y-13741286D01*
X13375714Y-13727000D01*
X13318571Y-13727000D01*
X13290000Y-13741286D01*
X13275714Y-13755571D01*
X13261428Y-13784143D01*
X13790000Y-13912714D02*
X13790000Y-13612714D01*
X13918571Y-13912714D02*
X13918571Y-13755571D01*
X13904286Y-13727000D01*
X13875714Y-13712714D01*
X13832857Y-13712714D01*
X13804286Y-13727000D01*
X13790000Y-13741286D01*
X14104286Y-13912714D02*
X14075714Y-13898429D01*
X14061428Y-13884143D01*
X14047143Y-13855571D01*
X14047143Y-13769857D01*
X14061428Y-13741286D01*
X14075714Y-13727000D01*
X14104286Y-13712714D01*
X14147143Y-13712714D01*
X14175714Y-13727000D01*
X14190000Y-13741286D01*
X14204286Y-13769857D01*
X14204286Y-13855571D01*
X14190000Y-13884143D01*
X14175714Y-13898429D01*
X14147143Y-13912714D01*
X14104286Y-13912714D01*
X14375714Y-13912714D02*
X14347143Y-13898429D01*
X14332857Y-13869857D01*
X14332857Y-13612714D01*
X14604286Y-13898429D02*
X14575714Y-13912714D01*
X14518571Y-13912714D01*
X14490000Y-13898429D01*
X14475714Y-13869857D01*
X14475714Y-13755571D01*
X14490000Y-13727000D01*
X14518571Y-13712714D01*
X14575714Y-13712714D01*
X14604286Y-13727000D01*
X14618571Y-13755571D01*
X14618571Y-13784143D01*
X14475714Y-13812714D01*
X14732857Y-13898429D02*
X14761428Y-13912714D01*
X14818571Y-13912714D01*
X14847143Y-13898429D01*
X14861428Y-13869857D01*
X14861428Y-13855571D01*
X14847143Y-13827000D01*
X14818571Y-13812714D01*
X14775714Y-13812714D01*
X14747143Y-13798429D01*
X14732857Y-13769857D01*
X14732857Y-13755571D01*
X14747143Y-13727000D01*
X14775714Y-13712714D01*
X14818571Y-13712714D01*
X14847143Y-13727000D01*
X14961428Y-14027000D02*
X14975714Y-14012714D01*
X15004286Y-13969857D01*
X15018571Y-13941286D01*
X15032857Y-13898429D01*
X15047143Y-13827000D01*
X15047143Y-13769857D01*
X15032857Y-13698429D01*
X15018571Y-13655571D01*
X15004286Y-13627000D01*
X14975714Y-13584143D01*
X14961428Y-13569857D01*
X8464017Y-14199517D02*
X8464017Y-14146483D01*
X8410983Y-14146483D01*
X8410983Y-14199517D01*
X8464017Y-14199517D01*
X8818571Y-14008714D02*
X8847143Y-14008714D01*
X8875714Y-14023000D01*
X8890000Y-14037286D01*
X8904286Y-14065857D01*
X8918571Y-14123000D01*
X8918571Y-14194429D01*
X8904286Y-14251571D01*
X8890000Y-14280143D01*
X8875714Y-14294429D01*
X8847143Y-14308714D01*
X8818571Y-14308714D01*
X8790000Y-14294429D01*
X8775714Y-14280143D01*
X8761428Y-14251571D01*
X8747143Y-14194429D01*
X8747143Y-14123000D01*
X8761428Y-14065857D01*
X8775714Y-14037286D01*
X8790000Y-14023000D01*
X8818571Y-14008714D01*
X9047143Y-14280143D02*
X9061428Y-14294429D01*
X9047143Y-14308714D01*
X9032857Y-14294429D01*
X9047143Y-14280143D01*
X9047143Y-14308714D01*
X9161428Y-14008714D02*
X9361428Y-14008714D01*
X9232857Y-14308714D01*
X9618571Y-14008714D02*
X9475714Y-14008714D01*
X9461428Y-14151571D01*
X9475714Y-14137286D01*
X9504286Y-14123000D01*
X9575714Y-14123000D01*
X9604286Y-14137286D01*
X9618571Y-14151571D01*
X9632857Y-14180143D01*
X9632857Y-14251571D01*
X9618571Y-14280143D01*
X9604286Y-14294429D01*
X9575714Y-14308714D01*
X9504286Y-14308714D01*
X9475714Y-14294429D01*
X9461428Y-14280143D01*
X9761428Y-14308714D02*
X9761428Y-14108714D01*
X9761428Y-14137286D02*
X9775714Y-14123000D01*
X9804286Y-14108714D01*
X9847143Y-14108714D01*
X9875714Y-14123000D01*
X9890000Y-14151571D01*
X9890000Y-14308714D01*
X9890000Y-14151571D02*
X9904286Y-14123000D01*
X9932857Y-14108714D01*
X9975714Y-14108714D01*
X10004286Y-14123000D01*
X10018571Y-14151571D01*
X10018571Y-14308714D01*
X10161428Y-14308714D02*
X10161428Y-14108714D01*
X10161428Y-14137286D02*
X10175714Y-14123000D01*
X10204286Y-14108714D01*
X10247143Y-14108714D01*
X10275714Y-14123000D01*
X10290000Y-14151571D01*
X10290000Y-14308714D01*
X10290000Y-14151571D02*
X10304286Y-14123000D01*
X10332857Y-14108714D01*
X10375714Y-14108714D01*
X10404286Y-14123000D01*
X10418571Y-14151571D01*
X10418571Y-14308714D01*
X11004286Y-13994429D02*
X10747143Y-14380143D01*
X11390000Y-14008714D02*
X11418571Y-14008714D01*
X11447143Y-14023000D01*
X11461428Y-14037286D01*
X11475714Y-14065857D01*
X11490000Y-14123000D01*
X11490000Y-14194429D01*
X11475714Y-14251571D01*
X11461428Y-14280143D01*
X11447143Y-14294429D01*
X11418571Y-14308714D01*
X11390000Y-14308714D01*
X11361428Y-14294429D01*
X11347143Y-14280143D01*
X11332857Y-14251571D01*
X11318571Y-14194429D01*
X11318571Y-14123000D01*
X11332857Y-14065857D01*
X11347143Y-14037286D01*
X11361428Y-14023000D01*
X11390000Y-14008714D01*
X11618571Y-14280143D02*
X11632857Y-14294429D01*
X11618571Y-14308714D01*
X11604286Y-14294429D01*
X11618571Y-14280143D01*
X11618571Y-14308714D01*
X11818571Y-14008714D02*
X11847143Y-14008714D01*
X11875714Y-14023000D01*
X11890000Y-14037286D01*
X11904286Y-14065857D01*
X11918571Y-14123000D01*
X11918571Y-14194429D01*
X11904286Y-14251571D01*
X11890000Y-14280143D01*
X11875714Y-14294429D01*
X11847143Y-14308714D01*
X11818571Y-14308714D01*
X11790000Y-14294429D01*
X11775714Y-14280143D01*
X11761428Y-14251571D01*
X11747143Y-14194429D01*
X11747143Y-14123000D01*
X11761428Y-14065857D01*
X11775714Y-14037286D01*
X11790000Y-14023000D01*
X11818571Y-14008714D01*
X12018571Y-14008714D02*
X12204286Y-14008714D01*
X12104286Y-14123000D01*
X12147143Y-14123000D01*
X12175714Y-14137286D01*
X12190000Y-14151571D01*
X12204286Y-14180143D01*
X12204286Y-14251571D01*
X12190000Y-14280143D01*
X12175714Y-14294429D01*
X12147143Y-14308714D01*
X12061428Y-14308714D01*
X12032857Y-14294429D01*
X12018571Y-14280143D01*
X12390000Y-14008714D02*
X12418571Y-14008714D01*
X12447143Y-14023000D01*
X12461428Y-14037286D01*
X12475714Y-14065857D01*
X12490000Y-14123000D01*
X12490000Y-14194429D01*
X12475714Y-14251571D01*
X12461428Y-14280143D01*
X12447143Y-14294429D01*
X12418571Y-14308714D01*
X12390000Y-14308714D01*
X12361428Y-14294429D01*
X12347143Y-14280143D01*
X12332857Y-14251571D01*
X12318571Y-14194429D01*
X12318571Y-14123000D01*
X12332857Y-14065857D01*
X12347143Y-14037286D01*
X12361428Y-14023000D01*
X12390000Y-14008714D01*
X12604286Y-14008714D02*
X12604286Y-14065857D01*
X12718571Y-14008714D02*
X12718571Y-14065857D01*
X13161428Y-14423000D02*
X13147143Y-14408714D01*
X13118571Y-14365857D01*
X13104286Y-14337286D01*
X13090000Y-14294429D01*
X13075714Y-14223000D01*
X13075714Y-14165857D01*
X13090000Y-14094429D01*
X13104286Y-14051571D01*
X13118571Y-14023000D01*
X13147143Y-13980143D01*
X13161428Y-13965857D01*
X13247143Y-14008714D02*
X13432857Y-14008714D01*
X13332857Y-14123000D01*
X13375714Y-14123000D01*
X13404286Y-14137286D01*
X13418571Y-14151571D01*
X13432857Y-14180143D01*
X13432857Y-14251571D01*
X13418571Y-14280143D01*
X13404286Y-14294429D01*
X13375714Y-14308714D01*
X13290000Y-14308714D01*
X13261428Y-14294429D01*
X13247143Y-14280143D01*
X13790000Y-14308714D02*
X13790000Y-14008714D01*
X13918571Y-14308714D02*
X13918571Y-14151571D01*
X13904286Y-14123000D01*
X13875714Y-14108714D01*
X13832857Y-14108714D01*
X13804286Y-14123000D01*
X13790000Y-14137286D01*
X14104286Y-14308714D02*
X14075714Y-14294429D01*
X14061428Y-14280143D01*
X14047143Y-14251571D01*
X14047143Y-14165857D01*
X14061428Y-14137286D01*
X14075714Y-14123000D01*
X14104286Y-14108714D01*
X14147143Y-14108714D01*
X14175714Y-14123000D01*
X14190000Y-14137286D01*
X14204286Y-14165857D01*
X14204286Y-14251571D01*
X14190000Y-14280143D01*
X14175714Y-14294429D01*
X14147143Y-14308714D01*
X14104286Y-14308714D01*
X14375714Y-14308714D02*
X14347143Y-14294429D01*
X14332857Y-14265857D01*
X14332857Y-14008714D01*
X14604286Y-14294429D02*
X14575714Y-14308714D01*
X14518571Y-14308714D01*
X14490000Y-14294429D01*
X14475714Y-14265857D01*
X14475714Y-14151571D01*
X14490000Y-14123000D01*
X14518571Y-14108714D01*
X14575714Y-14108714D01*
X14604286Y-14123000D01*
X14618571Y-14151571D01*
X14618571Y-14180143D01*
X14475714Y-14208714D01*
X14732857Y-14294429D02*
X14761428Y-14308714D01*
X14818571Y-14308714D01*
X14847143Y-14294429D01*
X14861428Y-14265857D01*
X14861428Y-14251571D01*
X14847143Y-14223000D01*
X14818571Y-14208714D01*
X14775714Y-14208714D01*
X14747143Y-14194429D01*
X14732857Y-14165857D01*
X14732857Y-14151571D01*
X14747143Y-14123000D01*
X14775714Y-14108714D01*
X14818571Y-14108714D01*
X14847143Y-14123000D01*
X14961428Y-14423000D02*
X14975714Y-14408714D01*
X15004286Y-14365857D01*
X15018571Y-14337286D01*
X15032857Y-14294429D01*
X15047143Y-14223000D01*
X15047143Y-14165857D01*
X15032857Y-14094429D01*
X15018571Y-14051571D01*
X15004286Y-14023000D01*
X14975714Y-13980143D01*
X14961428Y-13965857D01*
X8435000Y-14609000D02*
X8475000Y-14569000D01*
X8435000Y-14529000D01*
X8395000Y-14569000D01*
X8435000Y-14609000D01*
X8818571Y-14404714D02*
X8847143Y-14404714D01*
X8875714Y-14419000D01*
X8890000Y-14433286D01*
X8904286Y-14461857D01*
X8918571Y-14519000D01*
X8918571Y-14590429D01*
X8904286Y-14647571D01*
X8890000Y-14676143D01*
X8875714Y-14690429D01*
X8847143Y-14704714D01*
X8818571Y-14704714D01*
X8790000Y-14690429D01*
X8775714Y-14676143D01*
X8761428Y-14647571D01*
X8747143Y-14590429D01*
X8747143Y-14519000D01*
X8761428Y-14461857D01*
X8775714Y-14433286D01*
X8790000Y-14419000D01*
X8818571Y-14404714D01*
X9047143Y-14676143D02*
X9061428Y-14690429D01*
X9047143Y-14704714D01*
X9032857Y-14690429D01*
X9047143Y-14676143D01*
X9047143Y-14704714D01*
X9232857Y-14533286D02*
X9204286Y-14519000D01*
X9190000Y-14504714D01*
X9175714Y-14476143D01*
X9175714Y-14461857D01*
X9190000Y-14433286D01*
X9204286Y-14419000D01*
X9232857Y-14404714D01*
X9290000Y-14404714D01*
X9318571Y-14419000D01*
X9332857Y-14433286D01*
X9347143Y-14461857D01*
X9347143Y-14476143D01*
X9332857Y-14504714D01*
X9318571Y-14519000D01*
X9290000Y-14533286D01*
X9232857Y-14533286D01*
X9204286Y-14547571D01*
X9190000Y-14561857D01*
X9175714Y-14590429D01*
X9175714Y-14647571D01*
X9190000Y-14676143D01*
X9204286Y-14690429D01*
X9232857Y-14704714D01*
X9290000Y-14704714D01*
X9318571Y-14690429D01*
X9332857Y-14676143D01*
X9347143Y-14647571D01*
X9347143Y-14590429D01*
X9332857Y-14561857D01*
X9318571Y-14547571D01*
X9290000Y-14533286D01*
X9532857Y-14404714D02*
X9561428Y-14404714D01*
X9590000Y-14419000D01*
X9604286Y-14433286D01*
X9618571Y-14461857D01*
X9632857Y-14519000D01*
X9632857Y-14590429D01*
X9618571Y-14647571D01*
X9604286Y-14676143D01*
X9590000Y-14690429D01*
X9561428Y-14704714D01*
X9532857Y-14704714D01*
X9504286Y-14690429D01*
X9490000Y-14676143D01*
X9475714Y-14647571D01*
X9461428Y-14590429D01*
X9461428Y-14519000D01*
X9475714Y-14461857D01*
X9490000Y-14433286D01*
X9504286Y-14419000D01*
X9532857Y-14404714D01*
X9761428Y-14704714D02*
X9761428Y-14504714D01*
X9761428Y-14533286D02*
X9775714Y-14519000D01*
X9804286Y-14504714D01*
X9847143Y-14504714D01*
X9875714Y-14519000D01*
X9890000Y-14547571D01*
X9890000Y-14704714D01*
X9890000Y-14547571D02*
X9904286Y-14519000D01*
X9932857Y-14504714D01*
X9975714Y-14504714D01*
X10004286Y-14519000D01*
X10018571Y-14547571D01*
X10018571Y-14704714D01*
X10161428Y-14704714D02*
X10161428Y-14504714D01*
X10161428Y-14533286D02*
X10175714Y-14519000D01*
X10204286Y-14504714D01*
X10247143Y-14504714D01*
X10275714Y-14519000D01*
X10290000Y-14547571D01*
X10290000Y-14704714D01*
X10290000Y-14547571D02*
X10304286Y-14519000D01*
X10332857Y-14504714D01*
X10375714Y-14504714D01*
X10404286Y-14519000D01*
X10418571Y-14547571D01*
X10418571Y-14704714D01*
X11004286Y-14390429D02*
X10747143Y-14776143D01*
X11390000Y-14404714D02*
X11418571Y-14404714D01*
X11447143Y-14419000D01*
X11461428Y-14433286D01*
X11475714Y-14461857D01*
X11490000Y-14519000D01*
X11490000Y-14590429D01*
X11475714Y-14647571D01*
X11461428Y-14676143D01*
X11447143Y-14690429D01*
X11418571Y-14704714D01*
X11390000Y-14704714D01*
X11361428Y-14690429D01*
X11347143Y-14676143D01*
X11332857Y-14647571D01*
X11318571Y-14590429D01*
X11318571Y-14519000D01*
X11332857Y-14461857D01*
X11347143Y-14433286D01*
X11361428Y-14419000D01*
X11390000Y-14404714D01*
X11618571Y-14676143D02*
X11632857Y-14690429D01*
X11618571Y-14704714D01*
X11604286Y-14690429D01*
X11618571Y-14676143D01*
X11618571Y-14704714D01*
X11818571Y-14404714D02*
X11847143Y-14404714D01*
X11875714Y-14419000D01*
X11890000Y-14433286D01*
X11904286Y-14461857D01*
X11918571Y-14519000D01*
X11918571Y-14590429D01*
X11904286Y-14647571D01*
X11890000Y-14676143D01*
X11875714Y-14690429D01*
X11847143Y-14704714D01*
X11818571Y-14704714D01*
X11790000Y-14690429D01*
X11775714Y-14676143D01*
X11761428Y-14647571D01*
X11747143Y-14590429D01*
X11747143Y-14519000D01*
X11761428Y-14461857D01*
X11775714Y-14433286D01*
X11790000Y-14419000D01*
X11818571Y-14404714D01*
X12018571Y-14404714D02*
X12204286Y-14404714D01*
X12104286Y-14519000D01*
X12147143Y-14519000D01*
X12175714Y-14533286D01*
X12190000Y-14547571D01*
X12204286Y-14576143D01*
X12204286Y-14647571D01*
X12190000Y-14676143D01*
X12175714Y-14690429D01*
X12147143Y-14704714D01*
X12061428Y-14704714D01*
X12032857Y-14690429D01*
X12018571Y-14676143D01*
X12490000Y-14704714D02*
X12318571Y-14704714D01*
X12404286Y-14704714D02*
X12404286Y-14404714D01*
X12375714Y-14447571D01*
X12347143Y-14476143D01*
X12318571Y-14490429D01*
X12604286Y-14404714D02*
X12604286Y-14461857D01*
X12718571Y-14404714D02*
X12718571Y-14461857D01*
X13161428Y-14819000D02*
X13147143Y-14804714D01*
X13118571Y-14761857D01*
X13104286Y-14733286D01*
X13090000Y-14690429D01*
X13075714Y-14619000D01*
X13075714Y-14561857D01*
X13090000Y-14490429D01*
X13104286Y-14447571D01*
X13118571Y-14419000D01*
X13147143Y-14376143D01*
X13161428Y-14361857D01*
X13432857Y-14704714D02*
X13261428Y-14704714D01*
X13347143Y-14704714D02*
X13347143Y-14404714D01*
X13318571Y-14447571D01*
X13290000Y-14476143D01*
X13261428Y-14490429D01*
X13575714Y-14704714D02*
X13632857Y-14704714D01*
X13661428Y-14690429D01*
X13675714Y-14676143D01*
X13704286Y-14633286D01*
X13718571Y-14576143D01*
X13718571Y-14461857D01*
X13704286Y-14433286D01*
X13690000Y-14419000D01*
X13661428Y-14404714D01*
X13604286Y-14404714D01*
X13575714Y-14419000D01*
X13561428Y-14433286D01*
X13547143Y-14461857D01*
X13547143Y-14533286D01*
X13561428Y-14561857D01*
X13575714Y-14576143D01*
X13604286Y-14590429D01*
X13661428Y-14590429D01*
X13690000Y-14576143D01*
X13704286Y-14561857D01*
X13718571Y-14533286D01*
X13975714Y-14404714D02*
X13918571Y-14404714D01*
X13890000Y-14419000D01*
X13875714Y-14433286D01*
X13847143Y-14476143D01*
X13832857Y-14533286D01*
X13832857Y-14647571D01*
X13847143Y-14676143D01*
X13861428Y-14690429D01*
X13890000Y-14704714D01*
X13947143Y-14704714D01*
X13975714Y-14690429D01*
X13990000Y-14676143D01*
X14004286Y-14647571D01*
X14004286Y-14576143D01*
X13990000Y-14547571D01*
X13975714Y-14533286D01*
X13947143Y-14519000D01*
X13890000Y-14519000D01*
X13861428Y-14533286D01*
X13847143Y-14547571D01*
X13832857Y-14576143D01*
X14361428Y-14704714D02*
X14361428Y-14404714D01*
X14490000Y-14704714D02*
X14490000Y-14547571D01*
X14475714Y-14519000D01*
X14447143Y-14504714D01*
X14404286Y-14504714D01*
X14375714Y-14519000D01*
X14361428Y-14533286D01*
X14675714Y-14704714D02*
X14647143Y-14690429D01*
X14632857Y-14676143D01*
X14618571Y-14647571D01*
X14618571Y-14561857D01*
X14632857Y-14533286D01*
X14647143Y-14519000D01*
X14675714Y-14504714D01*
X14718571Y-14504714D01*
X14747143Y-14519000D01*
X14761428Y-14533286D01*
X14775714Y-14561857D01*
X14775714Y-14647571D01*
X14761428Y-14676143D01*
X14747143Y-14690429D01*
X14718571Y-14704714D01*
X14675714Y-14704714D01*
X14947143Y-14704714D02*
X14918571Y-14690429D01*
X14904286Y-14661857D01*
X14904286Y-14404714D01*
X15175714Y-14690429D02*
X15147143Y-14704714D01*
X15090000Y-14704714D01*
X15061428Y-14690429D01*
X15047143Y-14661857D01*
X15047143Y-14547571D01*
X15061428Y-14519000D01*
X15090000Y-14504714D01*
X15147143Y-14504714D01*
X15175714Y-14519000D01*
X15190000Y-14547571D01*
X15190000Y-14576143D01*
X15047143Y-14604714D01*
X15304286Y-14690429D02*
X15332857Y-14704714D01*
X15390000Y-14704714D01*
X15418571Y-14690429D01*
X15432857Y-14661857D01*
X15432857Y-14647571D01*
X15418571Y-14619000D01*
X15390000Y-14604714D01*
X15347143Y-14604714D01*
X15318571Y-14590429D01*
X15304286Y-14561857D01*
X15304286Y-14547571D01*
X15318571Y-14519000D01*
X15347143Y-14504714D01*
X15390000Y-14504714D01*
X15418571Y-14519000D01*
X15532857Y-14819000D02*
X15547143Y-14804714D01*
X15575714Y-14761857D01*
X15590000Y-14733286D01*
X15604286Y-14690429D01*
X15618571Y-14619000D01*
X15618571Y-14561857D01*
X15604286Y-14490429D01*
X15590000Y-14447571D01*
X15575714Y-14419000D01*
X15547143Y-14376143D01*
X15532857Y-14361857D01*
X8375000Y-14915000D02*
X8475000Y-15015000D01*
X8475000Y-14915000D02*
X8375000Y-15015000D01*
X8475000Y-14965000D02*
G75*
G03X8475000Y-14965000I-50000J0D01*
G01*
X8918571Y-15100714D02*
X8747143Y-15100714D01*
X8832857Y-15100714D02*
X8832857Y-14800714D01*
X8804286Y-14843571D01*
X8775714Y-14872143D01*
X8747143Y-14886429D01*
X9047143Y-15072143D02*
X9061428Y-15086429D01*
X9047143Y-15100714D01*
X9032857Y-15086429D01*
X9047143Y-15072143D01*
X9047143Y-15100714D01*
X9247143Y-14800714D02*
X9275714Y-14800714D01*
X9304286Y-14815000D01*
X9318571Y-14829286D01*
X9332857Y-14857857D01*
X9347143Y-14915000D01*
X9347143Y-14986429D01*
X9332857Y-15043571D01*
X9318571Y-15072143D01*
X9304286Y-15086429D01*
X9275714Y-15100714D01*
X9247143Y-15100714D01*
X9218571Y-15086429D01*
X9204286Y-15072143D01*
X9190000Y-15043571D01*
X9175714Y-14986429D01*
X9175714Y-14915000D01*
X9190000Y-14857857D01*
X9204286Y-14829286D01*
X9218571Y-14815000D01*
X9247143Y-14800714D01*
X9532857Y-14800714D02*
X9561428Y-14800714D01*
X9590000Y-14815000D01*
X9604286Y-14829286D01*
X9618571Y-14857857D01*
X9632857Y-14915000D01*
X9632857Y-14986429D01*
X9618571Y-15043571D01*
X9604286Y-15072143D01*
X9590000Y-15086429D01*
X9561428Y-15100714D01*
X9532857Y-15100714D01*
X9504286Y-15086429D01*
X9490000Y-15072143D01*
X9475714Y-15043571D01*
X9461428Y-14986429D01*
X9461428Y-14915000D01*
X9475714Y-14857857D01*
X9490000Y-14829286D01*
X9504286Y-14815000D01*
X9532857Y-14800714D01*
X9761428Y-15100714D02*
X9761428Y-14900714D01*
X9761428Y-14929286D02*
X9775714Y-14915000D01*
X9804286Y-14900714D01*
X9847143Y-14900714D01*
X9875714Y-14915000D01*
X9890000Y-14943571D01*
X9890000Y-15100714D01*
X9890000Y-14943571D02*
X9904286Y-14915000D01*
X9932857Y-14900714D01*
X9975714Y-14900714D01*
X10004286Y-14915000D01*
X10018571Y-14943571D01*
X10018571Y-15100714D01*
X10161428Y-15100714D02*
X10161428Y-14900714D01*
X10161428Y-14929286D02*
X10175714Y-14915000D01*
X10204286Y-14900714D01*
X10247143Y-14900714D01*
X10275714Y-14915000D01*
X10290000Y-14943571D01*
X10290000Y-15100714D01*
X10290000Y-14943571D02*
X10304286Y-14915000D01*
X10332857Y-14900714D01*
X10375714Y-14900714D01*
X10404286Y-14915000D01*
X10418571Y-14943571D01*
X10418571Y-15100714D01*
X11004286Y-14786429D02*
X10747143Y-15172143D01*
X11390000Y-14800714D02*
X11418571Y-14800714D01*
X11447143Y-14815000D01*
X11461428Y-14829286D01*
X11475714Y-14857857D01*
X11490000Y-14915000D01*
X11490000Y-14986429D01*
X11475714Y-15043571D01*
X11461428Y-15072143D01*
X11447143Y-15086429D01*
X11418571Y-15100714D01*
X11390000Y-15100714D01*
X11361428Y-15086429D01*
X11347143Y-15072143D01*
X11332857Y-15043571D01*
X11318571Y-14986429D01*
X11318571Y-14915000D01*
X11332857Y-14857857D01*
X11347143Y-14829286D01*
X11361428Y-14815000D01*
X11390000Y-14800714D01*
X11618571Y-15072143D02*
X11632857Y-15086429D01*
X11618571Y-15100714D01*
X11604286Y-15086429D01*
X11618571Y-15072143D01*
X11618571Y-15100714D01*
X11818571Y-14800714D02*
X11847143Y-14800714D01*
X11875714Y-14815000D01*
X11890000Y-14829286D01*
X11904286Y-14857857D01*
X11918571Y-14915000D01*
X11918571Y-14986429D01*
X11904286Y-15043571D01*
X11890000Y-15072143D01*
X11875714Y-15086429D01*
X11847143Y-15100714D01*
X11818571Y-15100714D01*
X11790000Y-15086429D01*
X11775714Y-15072143D01*
X11761428Y-15043571D01*
X11747143Y-14986429D01*
X11747143Y-14915000D01*
X11761428Y-14857857D01*
X11775714Y-14829286D01*
X11790000Y-14815000D01*
X11818571Y-14800714D01*
X12018571Y-14800714D02*
X12204286Y-14800714D01*
X12104286Y-14915000D01*
X12147143Y-14915000D01*
X12175714Y-14929286D01*
X12190000Y-14943571D01*
X12204286Y-14972143D01*
X12204286Y-15043571D01*
X12190000Y-15072143D01*
X12175714Y-15086429D01*
X12147143Y-15100714D01*
X12061428Y-15100714D01*
X12032857Y-15086429D01*
X12018571Y-15072143D01*
X12347143Y-15100714D02*
X12404286Y-15100714D01*
X12432857Y-15086429D01*
X12447143Y-15072143D01*
X12475714Y-15029286D01*
X12490000Y-14972143D01*
X12490000Y-14857857D01*
X12475714Y-14829286D01*
X12461428Y-14815000D01*
X12432857Y-14800714D01*
X12375714Y-14800714D01*
X12347143Y-14815000D01*
X12332857Y-14829286D01*
X12318571Y-14857857D01*
X12318571Y-14929286D01*
X12332857Y-14957857D01*
X12347143Y-14972143D01*
X12375714Y-14986429D01*
X12432857Y-14986429D01*
X12461428Y-14972143D01*
X12475714Y-14957857D01*
X12490000Y-14929286D01*
X12604286Y-14800714D02*
X12604286Y-14857857D01*
X12718571Y-14800714D02*
X12718571Y-14857857D01*
X13161428Y-15215000D02*
X13147143Y-15200714D01*
X13118571Y-15157857D01*
X13104286Y-15129286D01*
X13090000Y-15086429D01*
X13075714Y-15015000D01*
X13075714Y-14957857D01*
X13090000Y-14886429D01*
X13104286Y-14843571D01*
X13118571Y-14815000D01*
X13147143Y-14772143D01*
X13161428Y-14757857D01*
X13318571Y-14929286D02*
X13290000Y-14915000D01*
X13275714Y-14900714D01*
X13261428Y-14872143D01*
X13261428Y-14857857D01*
X13275714Y-14829286D01*
X13290000Y-14815000D01*
X13318571Y-14800714D01*
X13375714Y-14800714D01*
X13404286Y-14815000D01*
X13418571Y-14829286D01*
X13432857Y-14857857D01*
X13432857Y-14872143D01*
X13418571Y-14900714D01*
X13404286Y-14915000D01*
X13375714Y-14929286D01*
X13318571Y-14929286D01*
X13290000Y-14943571D01*
X13275714Y-14957857D01*
X13261428Y-14986429D01*
X13261428Y-15043571D01*
X13275714Y-15072143D01*
X13290000Y-15086429D01*
X13318571Y-15100714D01*
X13375714Y-15100714D01*
X13404286Y-15086429D01*
X13418571Y-15072143D01*
X13432857Y-15043571D01*
X13432857Y-14986429D01*
X13418571Y-14957857D01*
X13404286Y-14943571D01*
X13375714Y-14929286D01*
X13618571Y-14800714D02*
X13647143Y-14800714D01*
X13675714Y-14815000D01*
X13690000Y-14829286D01*
X13704286Y-14857857D01*
X13718571Y-14915000D01*
X13718571Y-14986429D01*
X13704286Y-15043571D01*
X13690000Y-15072143D01*
X13675714Y-15086429D01*
X13647143Y-15100714D01*
X13618571Y-15100714D01*
X13590000Y-15086429D01*
X13575714Y-15072143D01*
X13561428Y-15043571D01*
X13547143Y-14986429D01*
X13547143Y-14915000D01*
X13561428Y-14857857D01*
X13575714Y-14829286D01*
X13590000Y-14815000D01*
X13618571Y-14800714D01*
X14075714Y-15100714D02*
X14075714Y-14800714D01*
X14204286Y-15100714D02*
X14204286Y-14943571D01*
X14190000Y-14915000D01*
X14161428Y-14900714D01*
X14118571Y-14900714D01*
X14090000Y-14915000D01*
X14075714Y-14929286D01*
X14390000Y-15100714D02*
X14361428Y-15086429D01*
X14347143Y-15072143D01*
X14332857Y-15043571D01*
X14332857Y-14957857D01*
X14347143Y-14929286D01*
X14361428Y-14915000D01*
X14390000Y-14900714D01*
X14432857Y-14900714D01*
X14461428Y-14915000D01*
X14475714Y-14929286D01*
X14490000Y-14957857D01*
X14490000Y-15043571D01*
X14475714Y-15072143D01*
X14461428Y-15086429D01*
X14432857Y-15100714D01*
X14390000Y-15100714D01*
X14661428Y-15100714D02*
X14632857Y-15086429D01*
X14618571Y-15057857D01*
X14618571Y-14800714D01*
X14890000Y-15086429D02*
X14861428Y-15100714D01*
X14804286Y-15100714D01*
X14775714Y-15086429D01*
X14761428Y-15057857D01*
X14761428Y-14943571D01*
X14775714Y-14915000D01*
X14804286Y-14900714D01*
X14861428Y-14900714D01*
X14890000Y-14915000D01*
X14904286Y-14943571D01*
X14904286Y-14972143D01*
X14761428Y-15000714D01*
X15018571Y-15086429D02*
X15047143Y-15100714D01*
X15104286Y-15100714D01*
X15132857Y-15086429D01*
X15147143Y-15057857D01*
X15147143Y-15043571D01*
X15132857Y-15015000D01*
X15104286Y-15000714D01*
X15061428Y-15000714D01*
X15032857Y-14986429D01*
X15018571Y-14957857D01*
X15018571Y-14943571D01*
X15032857Y-14915000D01*
X15061428Y-14900714D01*
X15104286Y-14900714D01*
X15132857Y-14915000D01*
X15247143Y-15215000D02*
X15261428Y-15200714D01*
X15290000Y-15157857D01*
X15304286Y-15129286D01*
X15318571Y-15086429D01*
X15332857Y-15015000D01*
X15332857Y-14957857D01*
X15318571Y-14886429D01*
X15304286Y-14843571D01*
X15290000Y-14815000D01*
X15261428Y-14772143D01*
X15247143Y-14757857D01*
X8305000Y-15276000D02*
X8475000Y-15446000D01*
X8475000Y-15276000D02*
X8305000Y-15446000D01*
X8390000Y-15276000D02*
X8390000Y-15446000D01*
X8305000Y-15361000D02*
X8475000Y-15361000D01*
X8918571Y-15496714D02*
X8747143Y-15496714D01*
X8832857Y-15496714D02*
X8832857Y-15196714D01*
X8804286Y-15239571D01*
X8775714Y-15268143D01*
X8747143Y-15282429D01*
X9047143Y-15468143D02*
X9061428Y-15482429D01*
X9047143Y-15496714D01*
X9032857Y-15482429D01*
X9047143Y-15468143D01*
X9047143Y-15496714D01*
X9161428Y-15196714D02*
X9361428Y-15196714D01*
X9232857Y-15496714D01*
X9532857Y-15196714D02*
X9561428Y-15196714D01*
X9590000Y-15211000D01*
X9604286Y-15225286D01*
X9618571Y-15253857D01*
X9632857Y-15311000D01*
X9632857Y-15382429D01*
X9618571Y-15439571D01*
X9604286Y-15468143D01*
X9590000Y-15482429D01*
X9561428Y-15496714D01*
X9532857Y-15496714D01*
X9504286Y-15482429D01*
X9490000Y-15468143D01*
X9475714Y-15439571D01*
X9461428Y-15382429D01*
X9461428Y-15311000D01*
X9475714Y-15253857D01*
X9490000Y-15225286D01*
X9504286Y-15211000D01*
X9532857Y-15196714D01*
X9761428Y-15496714D02*
X9761428Y-15296714D01*
X9761428Y-15325286D02*
X9775714Y-15311000D01*
X9804286Y-15296714D01*
X9847143Y-15296714D01*
X9875714Y-15311000D01*
X9890000Y-15339571D01*
X9890000Y-15496714D01*
X9890000Y-15339571D02*
X9904286Y-15311000D01*
X9932857Y-15296714D01*
X9975714Y-15296714D01*
X10004286Y-15311000D01*
X10018571Y-15339571D01*
X10018571Y-15496714D01*
X10161428Y-15496714D02*
X10161428Y-15296714D01*
X10161428Y-15325286D02*
X10175714Y-15311000D01*
X10204286Y-15296714D01*
X10247143Y-15296714D01*
X10275714Y-15311000D01*
X10290000Y-15339571D01*
X10290000Y-15496714D01*
X10290000Y-15339571D02*
X10304286Y-15311000D01*
X10332857Y-15296714D01*
X10375714Y-15296714D01*
X10404286Y-15311000D01*
X10418571Y-15339571D01*
X10418571Y-15496714D01*
X11004286Y-15182429D02*
X10747143Y-15568143D01*
X11390000Y-15196714D02*
X11418571Y-15196714D01*
X11447143Y-15211000D01*
X11461428Y-15225286D01*
X11475714Y-15253857D01*
X11490000Y-15311000D01*
X11490000Y-15382429D01*
X11475714Y-15439571D01*
X11461428Y-15468143D01*
X11447143Y-15482429D01*
X11418571Y-15496714D01*
X11390000Y-15496714D01*
X11361428Y-15482429D01*
X11347143Y-15468143D01*
X11332857Y-15439571D01*
X11318571Y-15382429D01*
X11318571Y-15311000D01*
X11332857Y-15253857D01*
X11347143Y-15225286D01*
X11361428Y-15211000D01*
X11390000Y-15196714D01*
X11618571Y-15468143D02*
X11632857Y-15482429D01*
X11618571Y-15496714D01*
X11604286Y-15482429D01*
X11618571Y-15468143D01*
X11618571Y-15496714D01*
X11818571Y-15196714D02*
X11847143Y-15196714D01*
X11875714Y-15211000D01*
X11890000Y-15225286D01*
X11904286Y-15253857D01*
X11918571Y-15311000D01*
X11918571Y-15382429D01*
X11904286Y-15439571D01*
X11890000Y-15468143D01*
X11875714Y-15482429D01*
X11847143Y-15496714D01*
X11818571Y-15496714D01*
X11790000Y-15482429D01*
X11775714Y-15468143D01*
X11761428Y-15439571D01*
X11747143Y-15382429D01*
X11747143Y-15311000D01*
X11761428Y-15253857D01*
X11775714Y-15225286D01*
X11790000Y-15211000D01*
X11818571Y-15196714D01*
X12175714Y-15196714D02*
X12118571Y-15196714D01*
X12090000Y-15211000D01*
X12075714Y-15225286D01*
X12047143Y-15268143D01*
X12032857Y-15325286D01*
X12032857Y-15439571D01*
X12047143Y-15468143D01*
X12061428Y-15482429D01*
X12090000Y-15496714D01*
X12147143Y-15496714D01*
X12175714Y-15482429D01*
X12190000Y-15468143D01*
X12204286Y-15439571D01*
X12204286Y-15368143D01*
X12190000Y-15339571D01*
X12175714Y-15325286D01*
X12147143Y-15311000D01*
X12090000Y-15311000D01*
X12061428Y-15325286D01*
X12047143Y-15339571D01*
X12032857Y-15368143D01*
X12304286Y-15196714D02*
X12504286Y-15196714D01*
X12375714Y-15496714D01*
X12604286Y-15196714D02*
X12604286Y-15253857D01*
X12718571Y-15196714D02*
X12718571Y-15253857D01*
X13161428Y-15611000D02*
X13147143Y-15596714D01*
X13118571Y-15553857D01*
X13104286Y-15525286D01*
X13090000Y-15482429D01*
X13075714Y-15411000D01*
X13075714Y-15353857D01*
X13090000Y-15282429D01*
X13104286Y-15239571D01*
X13118571Y-15211000D01*
X13147143Y-15168143D01*
X13161428Y-15153857D01*
X13432857Y-15496714D02*
X13261428Y-15496714D01*
X13347143Y-15496714D02*
X13347143Y-15196714D01*
X13318571Y-15239571D01*
X13290000Y-15268143D01*
X13261428Y-15282429D01*
X13790000Y-15496714D02*
X13790000Y-15196714D01*
X13918571Y-15496714D02*
X13918571Y-15339571D01*
X13904286Y-15311000D01*
X13875714Y-15296714D01*
X13832857Y-15296714D01*
X13804286Y-15311000D01*
X13790000Y-15325286D01*
X14104286Y-15496714D02*
X14075714Y-15482429D01*
X14061428Y-15468143D01*
X14047143Y-15439571D01*
X14047143Y-15353857D01*
X14061428Y-15325286D01*
X14075714Y-15311000D01*
X14104286Y-15296714D01*
X14147143Y-15296714D01*
X14175714Y-15311000D01*
X14190000Y-15325286D01*
X14204286Y-15353857D01*
X14204286Y-15439571D01*
X14190000Y-15468143D01*
X14175714Y-15482429D01*
X14147143Y-15496714D01*
X14104286Y-15496714D01*
X14375714Y-15496714D02*
X14347143Y-15482429D01*
X14332857Y-15453857D01*
X14332857Y-15196714D01*
X14604286Y-15482429D02*
X14575714Y-15496714D01*
X14518571Y-15496714D01*
X14490000Y-15482429D01*
X14475714Y-15453857D01*
X14475714Y-15339571D01*
X14490000Y-15311000D01*
X14518571Y-15296714D01*
X14575714Y-15296714D01*
X14604286Y-15311000D01*
X14618571Y-15339571D01*
X14618571Y-15368143D01*
X14475714Y-15396714D01*
X14718571Y-15611000D02*
X14732857Y-15596714D01*
X14761428Y-15553857D01*
X14775714Y-15525286D01*
X14790000Y-15482429D01*
X14804286Y-15411000D01*
X14804286Y-15353857D01*
X14790000Y-15282429D01*
X14775714Y-15239571D01*
X14761428Y-15211000D01*
X14732857Y-15168143D01*
X14718571Y-15153857D01*
X8215000Y-15627000D02*
X8475000Y-15887000D01*
X8475000Y-15627000D02*
X8215000Y-15887000D01*
X8436925Y-15848925D02*
X8436925Y-15665075D01*
X8253075Y-15665075D01*
X8253075Y-15848925D01*
X8436925Y-15848925D01*
X8747143Y-15621286D02*
X8761428Y-15607000D01*
X8790000Y-15592714D01*
X8861428Y-15592714D01*
X8890000Y-15607000D01*
X8904286Y-15621286D01*
X8918571Y-15649857D01*
X8918571Y-15678429D01*
X8904286Y-15721286D01*
X8732857Y-15892714D01*
X8918571Y-15892714D01*
X9047143Y-15864143D02*
X9061428Y-15878429D01*
X9047143Y-15892714D01*
X9032857Y-15878429D01*
X9047143Y-15864143D01*
X9047143Y-15892714D01*
X9318571Y-15592714D02*
X9261428Y-15592714D01*
X9232857Y-15607000D01*
X9218571Y-15621286D01*
X9190000Y-15664143D01*
X9175714Y-15721286D01*
X9175714Y-15835571D01*
X9190000Y-15864143D01*
X9204286Y-15878429D01*
X9232857Y-15892714D01*
X9290000Y-15892714D01*
X9318571Y-15878429D01*
X9332857Y-15864143D01*
X9347143Y-15835571D01*
X9347143Y-15764143D01*
X9332857Y-15735571D01*
X9318571Y-15721286D01*
X9290000Y-15707000D01*
X9232857Y-15707000D01*
X9204286Y-15721286D01*
X9190000Y-15735571D01*
X9175714Y-15764143D01*
X9532857Y-15592714D02*
X9561428Y-15592714D01*
X9590000Y-15607000D01*
X9604286Y-15621286D01*
X9618571Y-15649857D01*
X9632857Y-15707000D01*
X9632857Y-15778429D01*
X9618571Y-15835571D01*
X9604286Y-15864143D01*
X9590000Y-15878429D01*
X9561428Y-15892714D01*
X9532857Y-15892714D01*
X9504286Y-15878429D01*
X9490000Y-15864143D01*
X9475714Y-15835571D01*
X9461428Y-15778429D01*
X9461428Y-15707000D01*
X9475714Y-15649857D01*
X9490000Y-15621286D01*
X9504286Y-15607000D01*
X9532857Y-15592714D01*
X9761428Y-15892714D02*
X9761428Y-15692714D01*
X9761428Y-15721286D02*
X9775714Y-15707000D01*
X9804286Y-15692714D01*
X9847143Y-15692714D01*
X9875714Y-15707000D01*
X9890000Y-15735571D01*
X9890000Y-15892714D01*
X9890000Y-15735571D02*
X9904286Y-15707000D01*
X9932857Y-15692714D01*
X9975714Y-15692714D01*
X10004286Y-15707000D01*
X10018571Y-15735571D01*
X10018571Y-15892714D01*
X10161428Y-15892714D02*
X10161428Y-15692714D01*
X10161428Y-15721286D02*
X10175714Y-15707000D01*
X10204286Y-15692714D01*
X10247143Y-15692714D01*
X10275714Y-15707000D01*
X10290000Y-15735571D01*
X10290000Y-15892714D01*
X10290000Y-15735571D02*
X10304286Y-15707000D01*
X10332857Y-15692714D01*
X10375714Y-15692714D01*
X10404286Y-15707000D01*
X10418571Y-15735571D01*
X10418571Y-15892714D01*
X11004286Y-15578429D02*
X10747143Y-15964143D01*
X11390000Y-15592714D02*
X11418571Y-15592714D01*
X11447143Y-15607000D01*
X11461428Y-15621286D01*
X11475714Y-15649857D01*
X11490000Y-15707000D01*
X11490000Y-15778429D01*
X11475714Y-15835571D01*
X11461428Y-15864143D01*
X11447143Y-15878429D01*
X11418571Y-15892714D01*
X11390000Y-15892714D01*
X11361428Y-15878429D01*
X11347143Y-15864143D01*
X11332857Y-15835571D01*
X11318571Y-15778429D01*
X11318571Y-15707000D01*
X11332857Y-15649857D01*
X11347143Y-15621286D01*
X11361428Y-15607000D01*
X11390000Y-15592714D01*
X11618571Y-15864143D02*
X11632857Y-15878429D01*
X11618571Y-15892714D01*
X11604286Y-15878429D01*
X11618571Y-15864143D01*
X11618571Y-15892714D01*
X11918571Y-15892714D02*
X11747143Y-15892714D01*
X11832857Y-15892714D02*
X11832857Y-15592714D01*
X11804286Y-15635571D01*
X11775714Y-15664143D01*
X11747143Y-15678429D01*
X12104286Y-15592714D02*
X12132857Y-15592714D01*
X12161428Y-15607000D01*
X12175714Y-15621286D01*
X12190000Y-15649857D01*
X12204286Y-15707000D01*
X12204286Y-15778429D01*
X12190000Y-15835571D01*
X12175714Y-15864143D01*
X12161428Y-15878429D01*
X12132857Y-15892714D01*
X12104286Y-15892714D01*
X12075714Y-15878429D01*
X12061428Y-15864143D01*
X12047143Y-15835571D01*
X12032857Y-15778429D01*
X12032857Y-15707000D01*
X12047143Y-15649857D01*
X12061428Y-15621286D01*
X12075714Y-15607000D01*
X12104286Y-15592714D01*
X12318571Y-15621286D02*
X12332857Y-15607000D01*
X12361428Y-15592714D01*
X12432857Y-15592714D01*
X12461428Y-15607000D01*
X12475714Y-15621286D01*
X12490000Y-15649857D01*
X12490000Y-15678429D01*
X12475714Y-15721286D01*
X12304286Y-15892714D01*
X12490000Y-15892714D01*
X12604286Y-15592714D02*
X12604286Y-15649857D01*
X12718571Y-15592714D02*
X12718571Y-15649857D01*
X13161428Y-16007000D02*
X13147143Y-15992714D01*
X13118571Y-15949857D01*
X13104286Y-15921286D01*
X13090000Y-15878429D01*
X13075714Y-15807000D01*
X13075714Y-15749857D01*
X13090000Y-15678429D01*
X13104286Y-15635571D01*
X13118571Y-15607000D01*
X13147143Y-15564143D01*
X13161428Y-15549857D01*
X13247143Y-15592714D02*
X13432857Y-15592714D01*
X13332857Y-15707000D01*
X13375714Y-15707000D01*
X13404286Y-15721286D01*
X13418571Y-15735571D01*
X13432857Y-15764143D01*
X13432857Y-15835571D01*
X13418571Y-15864143D01*
X13404286Y-15878429D01*
X13375714Y-15892714D01*
X13290000Y-15892714D01*
X13261428Y-15878429D01*
X13247143Y-15864143D01*
X13790000Y-15892714D02*
X13790000Y-15592714D01*
X13918571Y-15892714D02*
X13918571Y-15735571D01*
X13904286Y-15707000D01*
X13875714Y-15692714D01*
X13832857Y-15692714D01*
X13804286Y-15707000D01*
X13790000Y-15721286D01*
X14104286Y-15892714D02*
X14075714Y-15878429D01*
X14061428Y-15864143D01*
X14047143Y-15835571D01*
X14047143Y-15749857D01*
X14061428Y-15721286D01*
X14075714Y-15707000D01*
X14104286Y-15692714D01*
X14147143Y-15692714D01*
X14175714Y-15707000D01*
X14190000Y-15721286D01*
X14204286Y-15749857D01*
X14204286Y-15835571D01*
X14190000Y-15864143D01*
X14175714Y-15878429D01*
X14147143Y-15892714D01*
X14104286Y-15892714D01*
X14375714Y-15892714D02*
X14347143Y-15878429D01*
X14332857Y-15849857D01*
X14332857Y-15592714D01*
X14604286Y-15878429D02*
X14575714Y-15892714D01*
X14518571Y-15892714D01*
X14490000Y-15878429D01*
X14475714Y-15849857D01*
X14475714Y-15735571D01*
X14490000Y-15707000D01*
X14518571Y-15692714D01*
X14575714Y-15692714D01*
X14604286Y-15707000D01*
X14618571Y-15735571D01*
X14618571Y-15764143D01*
X14475714Y-15792714D01*
X14732857Y-15878429D02*
X14761428Y-15892714D01*
X14818571Y-15892714D01*
X14847143Y-15878429D01*
X14861428Y-15849857D01*
X14861428Y-15835571D01*
X14847143Y-15807000D01*
X14818571Y-15792714D01*
X14775714Y-15792714D01*
X14747143Y-15778429D01*
X14732857Y-15749857D01*
X14732857Y-15735571D01*
X14747143Y-15707000D01*
X14775714Y-15692714D01*
X14818571Y-15692714D01*
X14847143Y-15707000D01*
X14961428Y-16007000D02*
X14975714Y-15992714D01*
X15004286Y-15949857D01*
X15018571Y-15921286D01*
X15032857Y-15878429D01*
X15047143Y-15807000D01*
X15047143Y-15749857D01*
X15032857Y-15678429D01*
X15018571Y-15635571D01*
X15004286Y-15607000D01*
X14975714Y-15564143D01*
X14961428Y-15549857D01*
X8155000Y-15993000D02*
X8475000Y-16313000D01*
X8475000Y-15993000D02*
X8155000Y-16313000D01*
X8315000Y-16313000D02*
X8475000Y-16153000D01*
X8315000Y-15993000D01*
X8155000Y-16153000D01*
X8315000Y-16313000D01*
X8732857Y-15988714D02*
X8918571Y-15988714D01*
X8818571Y-16103000D01*
X8861428Y-16103000D01*
X8890000Y-16117286D01*
X8904286Y-16131571D01*
X8918571Y-16160143D01*
X8918571Y-16231571D01*
X8904286Y-16260143D01*
X8890000Y-16274429D01*
X8861428Y-16288714D01*
X8775714Y-16288714D01*
X8747143Y-16274429D01*
X8732857Y-16260143D01*
X9047143Y-16260143D02*
X9061428Y-16274429D01*
X9047143Y-16288714D01*
X9032857Y-16274429D01*
X9047143Y-16260143D01*
X9047143Y-16288714D01*
X9175714Y-16017286D02*
X9190000Y-16003000D01*
X9218571Y-15988714D01*
X9290000Y-15988714D01*
X9318571Y-16003000D01*
X9332857Y-16017286D01*
X9347143Y-16045857D01*
X9347143Y-16074429D01*
X9332857Y-16117286D01*
X9161428Y-16288714D01*
X9347143Y-16288714D01*
X9532857Y-15988714D02*
X9561428Y-15988714D01*
X9590000Y-16003000D01*
X9604286Y-16017286D01*
X9618571Y-16045857D01*
X9632857Y-16103000D01*
X9632857Y-16174429D01*
X9618571Y-16231571D01*
X9604286Y-16260143D01*
X9590000Y-16274429D01*
X9561428Y-16288714D01*
X9532857Y-16288714D01*
X9504286Y-16274429D01*
X9490000Y-16260143D01*
X9475714Y-16231571D01*
X9461428Y-16174429D01*
X9461428Y-16103000D01*
X9475714Y-16045857D01*
X9490000Y-16017286D01*
X9504286Y-16003000D01*
X9532857Y-15988714D01*
X9761428Y-16288714D02*
X9761428Y-16088714D01*
X9761428Y-16117286D02*
X9775714Y-16103000D01*
X9804286Y-16088714D01*
X9847143Y-16088714D01*
X9875714Y-16103000D01*
X9890000Y-16131571D01*
X9890000Y-16288714D01*
X9890000Y-16131571D02*
X9904286Y-16103000D01*
X9932857Y-16088714D01*
X9975714Y-16088714D01*
X10004286Y-16103000D01*
X10018571Y-16131571D01*
X10018571Y-16288714D01*
X10161428Y-16288714D02*
X10161428Y-16088714D01*
X10161428Y-16117286D02*
X10175714Y-16103000D01*
X10204286Y-16088714D01*
X10247143Y-16088714D01*
X10275714Y-16103000D01*
X10290000Y-16131571D01*
X10290000Y-16288714D01*
X10290000Y-16131571D02*
X10304286Y-16103000D01*
X10332857Y-16088714D01*
X10375714Y-16088714D01*
X10404286Y-16103000D01*
X10418571Y-16131571D01*
X10418571Y-16288714D01*
X11004286Y-15974429D02*
X10747143Y-16360143D01*
X11390000Y-15988714D02*
X11418571Y-15988714D01*
X11447143Y-16003000D01*
X11461428Y-16017286D01*
X11475714Y-16045857D01*
X11490000Y-16103000D01*
X11490000Y-16174429D01*
X11475714Y-16231571D01*
X11461428Y-16260143D01*
X11447143Y-16274429D01*
X11418571Y-16288714D01*
X11390000Y-16288714D01*
X11361428Y-16274429D01*
X11347143Y-16260143D01*
X11332857Y-16231571D01*
X11318571Y-16174429D01*
X11318571Y-16103000D01*
X11332857Y-16045857D01*
X11347143Y-16017286D01*
X11361428Y-16003000D01*
X11390000Y-15988714D01*
X11618571Y-16260143D02*
X11632857Y-16274429D01*
X11618571Y-16288714D01*
X11604286Y-16274429D01*
X11618571Y-16260143D01*
X11618571Y-16288714D01*
X11918571Y-16288714D02*
X11747143Y-16288714D01*
X11832857Y-16288714D02*
X11832857Y-15988714D01*
X11804286Y-16031571D01*
X11775714Y-16060143D01*
X11747143Y-16074429D01*
X12032857Y-16017286D02*
X12047143Y-16003000D01*
X12075714Y-15988714D01*
X12147143Y-15988714D01*
X12175714Y-16003000D01*
X12190000Y-16017286D01*
X12204286Y-16045857D01*
X12204286Y-16074429D01*
X12190000Y-16117286D01*
X12018571Y-16288714D01*
X12204286Y-16288714D01*
X12461428Y-15988714D02*
X12404286Y-15988714D01*
X12375714Y-16003000D01*
X12361428Y-16017286D01*
X12332857Y-16060143D01*
X12318571Y-16117286D01*
X12318571Y-16231571D01*
X12332857Y-16260143D01*
X12347143Y-16274429D01*
X12375714Y-16288714D01*
X12432857Y-16288714D01*
X12461428Y-16274429D01*
X12475714Y-16260143D01*
X12490000Y-16231571D01*
X12490000Y-16160143D01*
X12475714Y-16131571D01*
X12461428Y-16117286D01*
X12432857Y-16103000D01*
X12375714Y-16103000D01*
X12347143Y-16117286D01*
X12332857Y-16131571D01*
X12318571Y-16160143D01*
X12604286Y-15988714D02*
X12604286Y-16045857D01*
X12718571Y-15988714D02*
X12718571Y-16045857D01*
X13161428Y-16403000D02*
X13147143Y-16388714D01*
X13118571Y-16345857D01*
X13104286Y-16317286D01*
X13090000Y-16274429D01*
X13075714Y-16203000D01*
X13075714Y-16145857D01*
X13090000Y-16074429D01*
X13104286Y-16031571D01*
X13118571Y-16003000D01*
X13147143Y-15960143D01*
X13161428Y-15945857D01*
X13404286Y-16088714D02*
X13404286Y-16288714D01*
X13332857Y-15974429D02*
X13261428Y-16188714D01*
X13447143Y-16188714D01*
X13790000Y-16288714D02*
X13790000Y-15988714D01*
X13918571Y-16288714D02*
X13918571Y-16131571D01*
X13904286Y-16103000D01*
X13875714Y-16088714D01*
X13832857Y-16088714D01*
X13804286Y-16103000D01*
X13790000Y-16117286D01*
X14104286Y-16288714D02*
X14075714Y-16274429D01*
X14061428Y-16260143D01*
X14047143Y-16231571D01*
X14047143Y-16145857D01*
X14061428Y-16117286D01*
X14075714Y-16103000D01*
X14104286Y-16088714D01*
X14147143Y-16088714D01*
X14175714Y-16103000D01*
X14190000Y-16117286D01*
X14204286Y-16145857D01*
X14204286Y-16231571D01*
X14190000Y-16260143D01*
X14175714Y-16274429D01*
X14147143Y-16288714D01*
X14104286Y-16288714D01*
X14375714Y-16288714D02*
X14347143Y-16274429D01*
X14332857Y-16245857D01*
X14332857Y-15988714D01*
X14604286Y-16274429D02*
X14575714Y-16288714D01*
X14518571Y-16288714D01*
X14490000Y-16274429D01*
X14475714Y-16245857D01*
X14475714Y-16131571D01*
X14490000Y-16103000D01*
X14518571Y-16088714D01*
X14575714Y-16088714D01*
X14604286Y-16103000D01*
X14618571Y-16131571D01*
X14618571Y-16160143D01*
X14475714Y-16188714D01*
X14732857Y-16274429D02*
X14761428Y-16288714D01*
X14818571Y-16288714D01*
X14847143Y-16274429D01*
X14861428Y-16245857D01*
X14861428Y-16231571D01*
X14847143Y-16203000D01*
X14818571Y-16188714D01*
X14775714Y-16188714D01*
X14747143Y-16174429D01*
X14732857Y-16145857D01*
X14732857Y-16131571D01*
X14747143Y-16103000D01*
X14775714Y-16088714D01*
X14818571Y-16088714D01*
X14847143Y-16103000D01*
X14961428Y-16403000D02*
X14975714Y-16388714D01*
X15004286Y-16345857D01*
X15018571Y-16317286D01*
X15032857Y-16274429D01*
X15047143Y-16203000D01*
X15047143Y-16145857D01*
X15032857Y-16074429D01*
X15018571Y-16031571D01*
X15004286Y-16003000D01*
X14975714Y-15960143D01*
X14961428Y-15945857D01*
M02*
